<?xml version="1.0" encoding="UTF-8" standalone="no"?>
<!DOCTYPE svg PUBLIC "-//W3C//DTD SVG 1.1//EN"
 "http://www.w3.org/Graphics/SVG/1.1/DTD/svg11.dtd">
<!-- Generated by graphviz version 2.47.3 (20210619.1520)
 -->
<!-- Title: dependencies Pages: 1 -->
<svg width="320pt" height="247pt"
 viewBox="0.00 0.00 320.00 246.80" xmlns="http://www.w3.org/2000/svg" xmlns:xlink="http://www.w3.org/1999/xlink">
<g id="graph0" class="graph" transform="scale(1 1) rotate(0) translate(4 242.8)">
<title>dependencies</title>
<polygon fill="white" stroke="transparent" points="-4,4 -4,-242.8 316,-242.8 316,4 -4,4"/>
<text text-anchor="middle" x="156" y="-8.2" font-family="sans-serif" font-size="14.00">dependencies</text>
<g id="clust1" class="cluster">
<title>cluster_DashboardModule</title>
<polygon fill="none" stroke="black" stroke-dasharray="1,5" points="8,-32.8 8,-230.8 304,-230.8 304,-32.8 8,-32.8"/>
</g>
<g id="clust5" class="cluster">
<title>cluster_DashboardModule_exports</title>
<polygon fill="none" stroke="black" points="75,-170.8 75,-222.8 237,-222.8 237,-170.8 75,-170.8"/>
</g>
<g id="clust2" class="cluster">
<title>cluster_DashboardModule_declarations</title>
<polygon fill="none" stroke="black" points="138,-40.8 138,-92.8 296,-92.8 296,-40.8 138,-40.8"/>
</g>
<g id="clust4" class="cluster">
<title>cluster_DashboardModule_imports</title>
<polygon fill="none" stroke="black" points="16,-40.8 16,-92.8 130,-92.8 130,-40.8 16,-40.8"/>
</g>
<!-- DashboardComponent -->
<g id="node1" class="node">
<title>DashboardComponent</title>
<polygon fill="#ffffb3" stroke="black" points="287.97,-84.8 146.03,-84.8 146.03,-48.8 287.97,-48.8 287.97,-84.8"/>
<text text-anchor="middle" x="217" y="-62.6" font-family="Times,serif" font-size="14.00">DashboardComponent</text>
</g>
<!-- DashboardModule -->
<g id="node2" class="node">
<title>DashboardModule</title>
<polygon fill="#8dd3c7" stroke="black" points="216.19,-149.8 213.19,-153.8 192.19,-153.8 189.19,-149.8 95.81,-149.8 95.81,-113.8 216.19,-113.8 216.19,-149.8"/>
<text text-anchor="middle" x="156" y="-127.6" font-family="Times,serif" font-size="14.00">DashboardModule</text>
</g>
<!-- DashboardComponent&#45;&gt;DashboardModule -->
<g id="edge1" class="edge">
<title>DashboardComponent&#45;&gt;DashboardModule</title>
<path fill="none" stroke="black" d="M181.05,-84.91C181.05,-84.91 181.05,-103.79 181.05,-103.79"/>
<polygon fill="black" stroke="black" points="177.55,-103.79 181.05,-113.79 184.55,-103.79 177.55,-103.79"/>
</g>
<!-- DashboardComponent  -->
<g id="node4" class="node">
<title>DashboardComponent </title>
<polygon fill="#fb8072" stroke="black" points="228.97,-214.8 83.03,-214.8 83.03,-178.8 228.97,-178.8 228.97,-214.8"/>
<text text-anchor="middle" x="156" y="-192.6" font-family="Times,serif" font-size="14.00">DashboardComponent </text>
</g>
<!-- DashboardModule&#45;&gt;DashboardComponent  -->
<g id="edge3" class="edge">
<title>DashboardModule&#45;&gt;DashboardComponent </title>
<path fill="none" stroke="black" stroke-dasharray="5,2" d="M156,-149.91C156,-149.91 156,-168.79 156,-168.79"/>
<polygon fill="black" stroke="black" points="152.5,-168.79 156,-178.79 159.5,-168.79 152.5,-168.79"/>
</g>
<!-- SharedModule -->
<g id="node3" class="node">
<title>SharedModule</title>
<polygon fill="#8dd3c7" stroke="black" points="122.42,-84.8 119.42,-88.8 98.42,-88.8 95.42,-84.8 23.58,-84.8 23.58,-48.8 122.42,-48.8 122.42,-84.8"/>
<text text-anchor="middle" x="73" y="-62.6" font-family="Times,serif" font-size="14.00">SharedModule</text>
</g>
<!-- SharedModule&#45;&gt;DashboardModule -->
<g id="edge2" class="edge">
<title>SharedModule&#45;&gt;DashboardModule</title>
<path fill="none" stroke="black" d="M109.06,-84.91C109.06,-84.91 109.06,-103.79 109.06,-103.79"/>
<polygon fill="black" stroke="black" points="105.56,-103.79 109.06,-113.79 112.56,-103.79 105.56,-103.79"/>
</g>
</g>
</svg>
