<?xml version="1.0" encoding="UTF-8" standalone="no"?>
<!DOCTYPE svg PUBLIC "-//W3C//DTD SVG 1.1//EN"
 "http://www.w3.org/Graphics/SVG/1.1/DTD/svg11.dtd">
<!-- Generated by graphviz version 2.47.3 (20210619.1520)
 -->
<!-- Title: dependencies Pages: 1 -->
<svg width="770pt" height="247pt"
 viewBox="0.00 0.00 770.00 246.80" xmlns="http://www.w3.org/2000/svg" xmlns:xlink="http://www.w3.org/1999/xlink">
<g id="graph0" class="graph" transform="scale(1 1) rotate(0) translate(4 242.8)">
<title>dependencies</title>
<polygon fill="white" stroke="transparent" points="-4,4 -4,-242.8 766,-242.8 766,4 -4,4"/>
<text text-anchor="middle" x="381" y="-8.2" font-family="sans-serif" font-size="14.00">dependencies</text>
<g id="clust1" class="cluster">
<title>cluster_UserModule</title>
<polygon fill="none" stroke="black" stroke-dasharray="1,5" points="8,-32.8 8,-230.8 754,-230.8 754,-32.8 8,-32.8"/>
</g>
<g id="clust8" class="cluster">
<title>cluster_UserModule_providers</title>
<polygon fill="none" stroke="black" points="614,-40.8 614,-92.8 746,-92.8 746,-40.8 614,-40.8"/>
</g>
<g id="clust6" class="cluster">
<title>cluster_UserModule_exports</title>
<polygon fill="none" stroke="black" points="206,-170.8 206,-222.8 530,-222.8 530,-170.8 206,-170.8"/>
</g>
<g id="clust2" class="cluster">
<title>cluster_UserModule_declarations</title>
<polygon fill="none" stroke="black" points="288,-40.8 288,-92.8 606,-92.8 606,-40.8 288,-40.8"/>
</g>
<g id="clust5" class="cluster">
<title>cluster_UserModule_imports</title>
<polygon fill="none" stroke="black" points="16,-40.8 16,-92.8 280,-92.8 280,-40.8 16,-40.8"/>
</g>
<!-- UserFormComponent -->
<g id="node1" class="node">
<title>UserFormComponent</title>
<polygon fill="#ffffb3" stroke="black" points="598.09,-84.8 459.91,-84.8 459.91,-48.8 598.09,-48.8 598.09,-84.8"/>
<text text-anchor="middle" x="529" y="-62.6" font-family="Times,serif" font-size="14.00">UserFormComponent</text>
</g>
<!-- UserModule -->
<g id="node3" class="node">
<title>UserModule</title>
<polygon fill="#8dd3c7" stroke="black" points="411.98,-149.8 408.98,-153.8 387.98,-153.8 384.98,-149.8 326.02,-149.8 326.02,-113.8 411.98,-113.8 411.98,-149.8"/>
<text text-anchor="middle" x="369" y="-127.6" font-family="Times,serif" font-size="14.00">UserModule</text>
</g>
<!-- UserFormComponent&#45;&gt;UserModule -->
<g id="edge1" class="edge">
<title>UserFormComponent&#45;&gt;UserModule</title>
<path fill="none" stroke="black" d="M490.88,-84.82C490.88,-102.17 490.88,-125.8 490.88,-125.8 490.88,-125.8 422.31,-125.8 422.31,-125.8"/>
<polygon fill="black" stroke="black" points="422.31,-122.3 412.31,-125.8 422.31,-129.3 422.31,-122.3"/>
</g>
<!-- UsersTableComponent -->
<g id="node2" class="node">
<title>UsersTableComponent</title>
<polygon fill="#ffffb3" stroke="black" points="441.58,-84.8 296.42,-84.8 296.42,-48.8 441.58,-48.8 441.58,-84.8"/>
<text text-anchor="middle" x="369" y="-62.6" font-family="Times,serif" font-size="14.00">UsersTableComponent</text>
</g>
<!-- UsersTableComponent&#45;&gt;UserModule -->
<g id="edge2" class="edge">
<title>UsersTableComponent&#45;&gt;UserModule</title>
<path fill="none" stroke="black" d="M369,-84.91C369,-84.91 369,-103.79 369,-103.79"/>
<polygon fill="black" stroke="black" points="365.5,-103.79 369,-113.79 372.5,-103.79 365.5,-103.79"/>
</g>
<!-- UserFormComponent  -->
<g id="node6" class="node">
<title>UserFormComponent </title>
<polygon fill="#fb8072" stroke="black" points="521.59,-214.8 380.41,-214.8 380.41,-178.8 521.59,-178.8 521.59,-214.8"/>
<text text-anchor="middle" x="451" y="-192.6" font-family="Times,serif" font-size="14.00">UserFormComponent </text>
</g>
<!-- UserModule&#45;&gt;UserFormComponent  -->
<g id="edge5" class="edge">
<title>UserModule&#45;&gt;UserFormComponent </title>
<path fill="none" stroke="black" stroke-dasharray="5,2" d="M396.1,-149.91C396.1,-149.91 396.1,-168.79 396.1,-168.79"/>
<polygon fill="black" stroke="black" points="392.6,-168.79 396.1,-178.79 399.6,-168.79 392.6,-168.79"/>
</g>
<!-- UsersTableComponent  -->
<g id="node7" class="node">
<title>UsersTableComponent </title>
<polygon fill="#fb8072" stroke="black" points="362.08,-214.8 213.92,-214.8 213.92,-178.8 362.08,-178.8 362.08,-214.8"/>
<text text-anchor="middle" x="288" y="-192.6" font-family="Times,serif" font-size="14.00">UsersTableComponent </text>
</g>
<!-- UserModule&#45;&gt;UsersTableComponent  -->
<g id="edge6" class="edge">
<title>UserModule&#45;&gt;UsersTableComponent </title>
<path fill="none" stroke="black" stroke-dasharray="5,2" d="M344.15,-149.91C344.15,-149.91 344.15,-168.79 344.15,-168.79"/>
<polygon fill="black" stroke="black" points="340.65,-168.79 344.15,-178.79 347.65,-168.79 340.65,-168.79"/>
</g>
<!-- SharedModule -->
<g id="node4" class="node">
<title>SharedModule</title>
<polygon fill="#8dd3c7" stroke="black" points="272.42,-84.8 269.42,-88.8 248.42,-88.8 245.42,-84.8 173.58,-84.8 173.58,-48.8 272.42,-48.8 272.42,-84.8"/>
<text text-anchor="middle" x="223" y="-62.6" font-family="Times,serif" font-size="14.00">SharedModule</text>
</g>
<!-- SharedModule&#45;&gt;UserModule -->
<g id="edge3" class="edge">
<title>SharedModule&#45;&gt;UserModule</title>
<path fill="none" stroke="black" d="M242.96,-84.82C242.96,-102.17 242.96,-125.8 242.96,-125.8 242.96,-125.8 315.98,-125.8 315.98,-125.8"/>
<polygon fill="black" stroke="black" points="315.98,-129.3 325.98,-125.8 315.98,-122.3 315.98,-129.3"/>
</g>
<!-- UserRoutingModule -->
<g id="node5" class="node">
<title>UserRoutingModule</title>
<polygon fill="#8dd3c7" stroke="black" points="155.59,-84.8 152.59,-88.8 131.59,-88.8 128.59,-84.8 24.41,-84.8 24.41,-48.8 155.59,-48.8 155.59,-84.8"/>
<text text-anchor="middle" x="90" y="-62.6" font-family="Times,serif" font-size="14.00">UserRoutingModule</text>
</g>
<!-- UserRoutingModule&#45;&gt;UserModule -->
<g id="edge4" class="edge">
<title>UserRoutingModule&#45;&gt;UserModule</title>
<path fill="none" stroke="black" d="M90,-85.08C90,-106.12 90,-137.8 90,-137.8 90,-137.8 316.02,-137.8 316.02,-137.8"/>
<polygon fill="black" stroke="black" points="316.02,-141.3 326.02,-137.8 316.02,-134.3 316.02,-141.3"/>
</g>
<!-- UserService -->
<g id="node8" class="node">
<title>UserService</title>
<ellipse fill="#fdb462" stroke="black" cx="680" cy="-66.8" rx="58.44" ry="18"/>
<text text-anchor="middle" x="680" y="-62.6" font-family="Times,serif" font-size="14.00">UserService</text>
</g>
<!-- UserService&#45;&gt;UserModule -->
<g id="edge7" class="edge">
<title>UserService&#45;&gt;UserModule</title>
<path fill="none" stroke="black" d="M680,-85.08C680,-106.12 680,-137.8 680,-137.8 680,-137.8 422.24,-137.8 422.24,-137.8"/>
<polygon fill="black" stroke="black" points="422.24,-134.3 412.24,-137.8 422.24,-141.3 422.24,-134.3"/>
</g>
</g>
</svg>
