<?xml version="1.0" encoding="UTF-8" standalone="no"?>
<!DOCTYPE svg PUBLIC "-//W3C//DTD SVG 1.1//EN"
 "http://www.w3.org/Graphics/SVG/1.1/DTD/svg11.dtd">
<!-- Generated by graphviz version 2.47.3 (20210619.1520)
 -->
<!-- Title: dependencies Pages: 1 -->
<svg width="598pt" height="247pt"
 viewBox="0.00 0.00 598.00 246.80" xmlns="http://www.w3.org/2000/svg" xmlns:xlink="http://www.w3.org/1999/xlink">
<g id="graph0" class="graph" transform="scale(1 1) rotate(0) translate(4 242.8)">
<title>dependencies</title>
<polygon fill="white" stroke="transparent" points="-4,4 -4,-242.8 594,-242.8 594,4 -4,4"/>
<text text-anchor="middle" x="295" y="-8.2" font-family="sans-serif" font-size="14.00">dependencies</text>
<g id="clust1" class="cluster">
<title>cluster_TagModule</title>
<polygon fill="none" stroke="black" stroke-dasharray="1,5" points="8,-32.8 8,-230.8 582,-230.8 582,-32.8 8,-32.8"/>
</g>
<g id="clust2" class="cluster">
<title>cluster_TagModule_declarations</title>
<polygon fill="none" stroke="black" points="272,-40.8 272,-92.8 574,-92.8 574,-40.8 272,-40.8"/>
</g>
<g id="clust8" class="cluster">
<title>cluster_TagModule_providers</title>
<polygon fill="none" stroke="black" points="138,-40.8 138,-92.8 264,-92.8 264,-40.8 138,-40.8"/>
</g>
<g id="clust6" class="cluster">
<title>cluster_TagModule_exports</title>
<polygon fill="none" stroke="black" points="116,-170.8 116,-222.8 425,-222.8 425,-170.8 116,-170.8"/>
</g>
<g id="clust5" class="cluster">
<title>cluster_TagModule_imports</title>
<polygon fill="none" stroke="black" points="16,-40.8 16,-92.8 130,-92.8 130,-40.8 16,-40.8"/>
</g>
<!-- TagFormComponent -->
<g id="node1" class="node">
<title>TagFormComponent</title>
<polygon fill="#ffffb3" stroke="black" points="565.93,-84.8 432.07,-84.8 432.07,-48.8 565.93,-48.8 565.93,-84.8"/>
<text text-anchor="middle" x="499" y="-62.6" font-family="Times,serif" font-size="14.00">TagFormComponent</text>
</g>
<!-- TagModule -->
<g id="node3" class="node">
<title>TagModule</title>
<polygon fill="#8dd3c7" stroke="black" points="311.82,-149.8 308.82,-153.8 287.82,-153.8 284.82,-149.8 230.18,-149.8 230.18,-113.8 311.82,-113.8 311.82,-149.8"/>
<text text-anchor="middle" x="271" y="-127.6" font-family="Times,serif" font-size="14.00">TagModule</text>
</g>
<!-- TagFormComponent&#45;&gt;TagModule -->
<g id="edge1" class="edge">
<title>TagFormComponent&#45;&gt;TagModule</title>
<path fill="none" stroke="black" d="M499,-84.91C499,-104.14 499,-131.8 499,-131.8 499,-131.8 321.76,-131.8 321.76,-131.8"/>
<polygon fill="black" stroke="black" points="321.76,-128.3 311.76,-131.8 321.76,-135.3 321.76,-128.3"/>
</g>
<!-- TagTableComponent -->
<g id="node2" class="node">
<title>TagTableComponent</title>
<polygon fill="#ffffb3" stroke="black" points="414.47,-84.8 279.53,-84.8 279.53,-48.8 414.47,-48.8 414.47,-84.8"/>
<text text-anchor="middle" x="347" y="-62.6" font-family="Times,serif" font-size="14.00">TagTableComponent</text>
</g>
<!-- TagTableComponent&#45;&gt;TagModule -->
<g id="edge2" class="edge">
<title>TagTableComponent&#45;&gt;TagModule</title>
<path fill="none" stroke="black" d="M295.59,-84.91C295.59,-84.91 295.59,-103.79 295.59,-103.79"/>
<polygon fill="black" stroke="black" points="292.09,-103.79 295.59,-113.79 299.09,-103.79 292.09,-103.79"/>
</g>
<!-- TagFormComponent  -->
<g id="node5" class="node">
<title>TagFormComponent </title>
<polygon fill="#fb8072" stroke="black" points="417.43,-214.8 280.57,-214.8 280.57,-178.8 417.43,-178.8 417.43,-214.8"/>
<text text-anchor="middle" x="349" y="-192.6" font-family="Times,serif" font-size="14.00">TagFormComponent </text>
</g>
<!-- TagModule&#45;&gt;TagFormComponent  -->
<g id="edge4" class="edge">
<title>TagModule&#45;&gt;TagFormComponent </title>
<path fill="none" stroke="black" stroke-dasharray="5,2" d="M296.1,-149.91C296.1,-149.91 296.1,-168.79 296.1,-168.79"/>
<polygon fill="black" stroke="black" points="292.6,-168.79 296.1,-178.79 299.6,-168.79 292.6,-168.79"/>
</g>
<!-- TagTableComponent  -->
<g id="node6" class="node">
<title>TagTableComponent </title>
<polygon fill="#fb8072" stroke="black" points="262.47,-214.8 123.53,-214.8 123.53,-178.8 262.47,-178.8 262.47,-214.8"/>
<text text-anchor="middle" x="193" y="-192.6" font-family="Times,serif" font-size="14.00">TagTableComponent </text>
</g>
<!-- TagModule&#45;&gt;TagTableComponent  -->
<g id="edge5" class="edge">
<title>TagModule&#45;&gt;TagTableComponent </title>
<path fill="none" stroke="black" stroke-dasharray="5,2" d="M246.29,-149.91C246.29,-149.91 246.29,-168.79 246.29,-168.79"/>
<polygon fill="black" stroke="black" points="242.79,-168.79 246.29,-178.79 249.79,-168.79 242.79,-168.79"/>
</g>
<!-- SharedModule -->
<g id="node4" class="node">
<title>SharedModule</title>
<polygon fill="#8dd3c7" stroke="black" points="122.42,-84.8 119.42,-88.8 98.42,-88.8 95.42,-84.8 23.58,-84.8 23.58,-48.8 122.42,-48.8 122.42,-84.8"/>
<text text-anchor="middle" x="73" y="-62.6" font-family="Times,serif" font-size="14.00">SharedModule</text>
</g>
<!-- SharedModule&#45;&gt;TagModule -->
<g id="edge3" class="edge">
<title>SharedModule&#45;&gt;TagModule</title>
<path fill="none" stroke="black" d="M73,-84.91C73,-104.14 73,-131.8 73,-131.8 73,-131.8 219.97,-131.8 219.97,-131.8"/>
<polygon fill="black" stroke="black" points="219.97,-135.3 229.97,-131.8 219.97,-128.3 219.97,-135.3"/>
</g>
<!-- TagService -->
<g id="node7" class="node">
<title>TagService</title>
<ellipse fill="#fdb462" stroke="black" cx="201" cy="-66.8" rx="55.01" ry="18"/>
<text text-anchor="middle" x="201" y="-62.6" font-family="Times,serif" font-size="14.00">TagService</text>
</g>
<!-- TagService&#45;&gt;TagModule -->
<g id="edge6" class="edge">
<title>TagService&#45;&gt;TagModule</title>
<path fill="none" stroke="black" d="M243.17,-78.42C243.17,-78.42 243.17,-103.65 243.17,-103.65"/>
<polygon fill="black" stroke="black" points="239.67,-103.65 243.17,-113.65 246.67,-103.65 239.67,-103.65"/>
</g>
</g>
</svg>
