<?xml version="1.0" encoding="UTF-8" standalone="no"?>
<!DOCTYPE svg PUBLIC "-//W3C//DTD SVG 1.1//EN"
 "http://www.w3.org/Graphics/SVG/1.1/DTD/svg11.dtd">
<!-- Generated by graphviz version 2.47.3 (20210619.1520)
 -->
<!-- Title: dependencies Pages: 1 -->
<svg width="742pt" height="247pt"
 viewBox="0.00 0.00 742.00 246.80" xmlns="http://www.w3.org/2000/svg" xmlns:xlink="http://www.w3.org/1999/xlink">
<g id="graph0" class="graph" transform="scale(1 1) rotate(0) translate(4 242.8)">
<title>dependencies</title>
<polygon fill="white" stroke="transparent" points="-4,4 -4,-242.8 738,-242.8 738,4 -4,4"/>
<text text-anchor="middle" x="367" y="-8.2" font-family="sans-serif" font-size="14.00">dependencies</text>
<g id="clust1" class="cluster">
<title>cluster_TagModule</title>
<polygon fill="none" stroke="black" stroke-dasharray="1,5" points="8,-32.8 8,-230.8 726,-230.8 726,-32.8 8,-32.8"/>
</g>
<g id="clust2" class="cluster">
<title>cluster_TagModule_declarations</title>
<polygon fill="none" stroke="black" points="416,-40.8 416,-92.8 718,-92.8 718,-40.8 416,-40.8"/>
</g>
<g id="clust8" class="cluster">
<title>cluster_TagModule_providers</title>
<polygon fill="none" stroke="black" points="282,-40.8 282,-92.8 408,-92.8 408,-40.8 282,-40.8"/>
</g>
<g id="clust5" class="cluster">
<title>cluster_TagModule_imports</title>
<polygon fill="none" stroke="black" points="16,-40.8 16,-92.8 274,-92.8 274,-40.8 16,-40.8"/>
</g>
<g id="clust6" class="cluster">
<title>cluster_TagModule_exports</title>
<polygon fill="none" stroke="black" points="190,-170.8 190,-222.8 499,-222.8 499,-170.8 190,-170.8"/>
</g>
<!-- TagFormComponent -->
<g id="node1" class="node">
<title>TagFormComponent</title>
<polygon fill="#ffffb3" stroke="black" points="709.93,-84.8 576.07,-84.8 576.07,-48.8 709.93,-48.8 709.93,-84.8"/>
<text text-anchor="middle" x="643" y="-62.6" font-family="Times,serif" font-size="14.00">TagFormComponent</text>
</g>
<!-- TagModule -->
<g id="node3" class="node">
<title>TagModule</title>
<polygon fill="#8dd3c7" stroke="black" points="385.82,-149.8 382.82,-153.8 361.82,-153.8 358.82,-149.8 304.18,-149.8 304.18,-113.8 385.82,-113.8 385.82,-149.8"/>
<text text-anchor="middle" x="345" y="-127.6" font-family="Times,serif" font-size="14.00">TagModule</text>
</g>
<!-- TagFormComponent&#45;&gt;TagModule -->
<g id="edge1" class="edge">
<title>TagFormComponent&#45;&gt;TagModule</title>
<path fill="none" stroke="black" d="M643,-85.08C643,-106.12 643,-137.8 643,-137.8 643,-137.8 395.81,-137.8 395.81,-137.8"/>
<polygon fill="black" stroke="black" points="395.81,-134.3 385.81,-137.8 395.81,-141.3 395.81,-134.3"/>
</g>
<!-- TagTableComponent -->
<g id="node2" class="node">
<title>TagTableComponent</title>
<polygon fill="#ffffb3" stroke="black" points="558.47,-84.8 423.53,-84.8 423.53,-48.8 558.47,-48.8 558.47,-84.8"/>
<text text-anchor="middle" x="491" y="-62.6" font-family="Times,serif" font-size="14.00">TagTableComponent</text>
</g>
<!-- TagTableComponent&#45;&gt;TagModule -->
<g id="edge2" class="edge">
<title>TagTableComponent&#45;&gt;TagModule</title>
<path fill="none" stroke="black" d="M457.49,-84.82C457.49,-102.17 457.49,-125.8 457.49,-125.8 457.49,-125.8 395.93,-125.8 395.93,-125.8"/>
<polygon fill="black" stroke="black" points="395.93,-122.3 385.93,-125.8 395.93,-129.3 395.93,-122.3"/>
</g>
<!-- TagFormComponent  -->
<g id="node6" class="node">
<title>TagFormComponent </title>
<polygon fill="#fb8072" stroke="black" points="491.43,-214.8 354.57,-214.8 354.57,-178.8 491.43,-178.8 491.43,-214.8"/>
<text text-anchor="middle" x="423" y="-192.6" font-family="Times,serif" font-size="14.00">TagFormComponent </text>
</g>
<!-- TagModule&#45;&gt;TagFormComponent  -->
<g id="edge5" class="edge">
<title>TagModule&#45;&gt;TagFormComponent </title>
<path fill="none" stroke="black" stroke-dasharray="5,2" d="M370.1,-149.91C370.1,-149.91 370.1,-168.79 370.1,-168.79"/>
<polygon fill="black" stroke="black" points="366.6,-168.79 370.1,-178.79 373.6,-168.79 366.6,-168.79"/>
</g>
<!-- TagTableComponent  -->
<g id="node7" class="node">
<title>TagTableComponent </title>
<polygon fill="#fb8072" stroke="black" points="336.47,-214.8 197.53,-214.8 197.53,-178.8 336.47,-178.8 336.47,-214.8"/>
<text text-anchor="middle" x="267" y="-192.6" font-family="Times,serif" font-size="14.00">TagTableComponent </text>
</g>
<!-- TagModule&#45;&gt;TagTableComponent  -->
<g id="edge6" class="edge">
<title>TagModule&#45;&gt;TagTableComponent </title>
<path fill="none" stroke="black" stroke-dasharray="5,2" d="M320.29,-149.91C320.29,-149.91 320.29,-168.79 320.29,-168.79"/>
<polygon fill="black" stroke="black" points="316.79,-168.79 320.29,-178.79 323.79,-168.79 316.79,-168.79"/>
</g>
<!-- SharedModule -->
<g id="node4" class="node">
<title>SharedModule</title>
<polygon fill="#8dd3c7" stroke="black" points="266.42,-84.8 263.42,-88.8 242.42,-88.8 239.42,-84.8 167.58,-84.8 167.58,-48.8 266.42,-48.8 266.42,-84.8"/>
<text text-anchor="middle" x="217" y="-62.6" font-family="Times,serif" font-size="14.00">SharedModule</text>
</g>
<!-- SharedModule&#45;&gt;TagModule -->
<g id="edge3" class="edge">
<title>SharedModule&#45;&gt;TagModule</title>
<path fill="none" stroke="black" d="M231.99,-84.82C231.99,-102.17 231.99,-125.8 231.99,-125.8 231.99,-125.8 294.2,-125.8 294.2,-125.8"/>
<polygon fill="black" stroke="black" points="294.2,-129.3 304.2,-125.8 294.2,-122.3 294.2,-129.3"/>
</g>
<!-- TagRoutingModule -->
<g id="node5" class="node">
<title>TagRoutingModule</title>
<polygon fill="#8dd3c7" stroke="black" points="150.44,-84.8 147.44,-88.8 126.44,-88.8 123.44,-84.8 23.56,-84.8 23.56,-48.8 150.44,-48.8 150.44,-84.8"/>
<text text-anchor="middle" x="87" y="-62.6" font-family="Times,serif" font-size="14.00">TagRoutingModule</text>
</g>
<!-- TagRoutingModule&#45;&gt;TagModule -->
<g id="edge4" class="edge">
<title>TagRoutingModule&#45;&gt;TagModule</title>
<path fill="none" stroke="black" d="M87,-85.08C87,-106.12 87,-137.8 87,-137.8 87,-137.8 294.12,-137.8 294.12,-137.8"/>
<polygon fill="black" stroke="black" points="294.12,-141.3 304.12,-137.8 294.12,-134.3 294.12,-141.3"/>
</g>
<!-- TagService -->
<g id="node8" class="node">
<title>TagService</title>
<ellipse fill="#fdb462" stroke="black" cx="345" cy="-66.8" rx="55.01" ry="18"/>
<text text-anchor="middle" x="345" y="-62.6" font-family="Times,serif" font-size="14.00">TagService</text>
</g>
<!-- TagService&#45;&gt;TagModule -->
<g id="edge7" class="edge">
<title>TagService&#45;&gt;TagModule</title>
<path fill="none" stroke="black" d="M345,-84.91C345,-84.91 345,-103.79 345,-103.79"/>
<polygon fill="black" stroke="black" points="341.5,-103.79 345,-113.79 348.5,-103.79 341.5,-103.79"/>
</g>
</g>
</svg>
