<?xml version="1.0" encoding="UTF-8" standalone="no"?>
<!DOCTYPE svg PUBLIC "-//W3C//DTD SVG 1.1//EN"
 "http://www.w3.org/Graphics/SVG/1.1/DTD/svg11.dtd">
<!-- Generated by graphviz version 2.47.3 (20210619.1520)
 -->
<!-- Title: dependencies Pages: 1 -->
<svg width="742pt" height="247pt"
 viewBox="0.00 0.00 742.00 246.80" xmlns="http://www.w3.org/2000/svg" xmlns:xlink="http://www.w3.org/1999/xlink">
<g id="graph0" class="graph" transform="scale(1 1) rotate(0) translate(4 242.8)">
<title>dependencies</title>
<polygon fill="white" stroke="transparent" points="-4,4 -4,-242.8 738,-242.8 738,4 -4,4"/>
<text text-anchor="middle" x="367" y="-8.2" font-family="sans-serif" font-size="14.00">dependencies</text>
<g id="clust1" class="cluster">
<title>cluster_TagModule</title>
<polygon fill="none" stroke="black" stroke-dasharray="1,5" points="8,-32.8 8,-230.8 726,-230.8 726,-32.8 8,-32.8"/>
</g>
<g id="clust2" class="cluster">
<title>cluster_TagModule_declarations</title>
<polygon fill="none" stroke="black" points="416,-40.8 416,-92.8 718,-92.8 718,-40.8 416,-40.8"/>
</g>
<g id="clust6" class="cluster">
<title>cluster_TagModule_exports</title>
<polygon fill="none" stroke="black" points="196,-170.8 196,-222.8 505,-222.8 505,-170.8 196,-170.8"/>
</g>
<g id="clust5" class="cluster">
<title>cluster_TagModule_imports</title>
<polygon fill="none" stroke="black" points="150,-40.8 150,-92.8 408,-92.8 408,-40.8 150,-40.8"/>
</g>
<g id="clust8" class="cluster">
<title>cluster_TagModule_providers</title>
<polygon fill="none" stroke="black" points="16,-40.8 16,-92.8 142,-92.8 142,-40.8 16,-40.8"/>
</g>
<!-- TagFormComponent -->
<g id="node1" class="node">
<title>TagFormComponent</title>
<polygon fill="#ffffb3" stroke="black" points="709.93,-84.8 576.07,-84.8 576.07,-48.8 709.93,-48.8 709.93,-84.8"/>
<text text-anchor="middle" x="643" y="-62.6" font-family="Times,serif" font-size="14.00">TagFormComponent</text>
</g>
<!-- TagModule -->
<g id="node3" class="node">
<title>TagModule</title>
<polygon fill="#8dd3c7" stroke="black" points="391.82,-149.8 388.82,-153.8 367.82,-153.8 364.82,-149.8 310.18,-149.8 310.18,-113.8 391.82,-113.8 391.82,-149.8"/>
<text text-anchor="middle" x="351" y="-127.6" font-family="Times,serif" font-size="14.00">TagModule</text>
</g>
<!-- TagFormComponent&#45;&gt;TagModule -->
<g id="edge1" class="edge">
<title>TagFormComponent&#45;&gt;TagModule</title>
<path fill="none" stroke="black" d="M643,-85.08C643,-106.12 643,-137.8 643,-137.8 643,-137.8 401.91,-137.8 401.91,-137.8"/>
<polygon fill="black" stroke="black" points="401.91,-134.3 391.91,-137.8 401.91,-141.3 401.91,-134.3"/>
</g>
<!-- TagTableComponent -->
<g id="node2" class="node">
<title>TagTableComponent</title>
<polygon fill="#ffffb3" stroke="black" points="558.47,-84.8 423.53,-84.8 423.53,-48.8 558.47,-48.8 558.47,-84.8"/>
<text text-anchor="middle" x="491" y="-62.6" font-family="Times,serif" font-size="14.00">TagTableComponent</text>
</g>
<!-- TagTableComponent&#45;&gt;TagModule -->
<g id="edge2" class="edge">
<title>TagTableComponent&#45;&gt;TagModule</title>
<path fill="none" stroke="black" d="M460.49,-84.82C460.49,-102.17 460.49,-125.8 460.49,-125.8 460.49,-125.8 401.77,-125.8 401.77,-125.8"/>
<polygon fill="black" stroke="black" points="401.77,-122.3 391.77,-125.8 401.77,-129.3 401.77,-122.3"/>
</g>
<!-- TagFormComponent  -->
<g id="node6" class="node">
<title>TagFormComponent </title>
<polygon fill="#fb8072" stroke="black" points="497.43,-214.8 360.57,-214.8 360.57,-178.8 497.43,-178.8 497.43,-214.8"/>
<text text-anchor="middle" x="429" y="-192.6" font-family="Times,serif" font-size="14.00">TagFormComponent </text>
</g>
<!-- TagModule&#45;&gt;TagFormComponent  -->
<g id="edge5" class="edge">
<title>TagModule&#45;&gt;TagFormComponent </title>
<path fill="none" stroke="black" stroke-dasharray="5,2" d="M376.1,-149.91C376.1,-149.91 376.1,-168.79 376.1,-168.79"/>
<polygon fill="black" stroke="black" points="372.6,-168.79 376.1,-178.79 379.6,-168.79 372.6,-168.79"/>
</g>
<!-- TagTableComponent  -->
<g id="node7" class="node">
<title>TagTableComponent </title>
<polygon fill="#fb8072" stroke="black" points="342.47,-214.8 203.53,-214.8 203.53,-178.8 342.47,-178.8 342.47,-214.8"/>
<text text-anchor="middle" x="273" y="-192.6" font-family="Times,serif" font-size="14.00">TagTableComponent </text>
</g>
<!-- TagModule&#45;&gt;TagTableComponent  -->
<g id="edge6" class="edge">
<title>TagModule&#45;&gt;TagTableComponent </title>
<path fill="none" stroke="black" stroke-dasharray="5,2" d="M326.29,-149.91C326.29,-149.91 326.29,-168.79 326.29,-168.79"/>
<polygon fill="black" stroke="black" points="322.79,-168.79 326.29,-178.79 329.79,-168.79 322.79,-168.79"/>
</g>
<!-- SharedModule -->
<g id="node4" class="node">
<title>SharedModule</title>
<polygon fill="#8dd3c7" stroke="black" points="400.42,-84.8 397.42,-88.8 376.42,-88.8 373.42,-84.8 301.58,-84.8 301.58,-48.8 400.42,-48.8 400.42,-84.8"/>
<text text-anchor="middle" x="351" y="-62.6" font-family="Times,serif" font-size="14.00">SharedModule</text>
</g>
<!-- SharedModule&#45;&gt;TagModule -->
<g id="edge3" class="edge">
<title>SharedModule&#45;&gt;TagModule</title>
<path fill="none" stroke="black" d="M351,-84.91C351,-84.91 351,-103.79 351,-103.79"/>
<polygon fill="black" stroke="black" points="347.5,-103.79 351,-113.79 354.5,-103.79 347.5,-103.79"/>
</g>
<!-- TagRoutingModule -->
<g id="node5" class="node">
<title>TagRoutingModule</title>
<polygon fill="#8dd3c7" stroke="black" points="284.44,-84.8 281.44,-88.8 260.44,-88.8 257.44,-84.8 157.56,-84.8 157.56,-48.8 284.44,-48.8 284.44,-84.8"/>
<text text-anchor="middle" x="221" y="-62.6" font-family="Times,serif" font-size="14.00">TagRoutingModule</text>
</g>
<!-- TagRoutingModule&#45;&gt;TagModule -->
<g id="edge4" class="edge">
<title>TagRoutingModule&#45;&gt;TagModule</title>
<path fill="none" stroke="black" d="M243.99,-84.82C243.99,-102.17 243.99,-125.8 243.99,-125.8 243.99,-125.8 300.24,-125.8 300.24,-125.8"/>
<polygon fill="black" stroke="black" points="300.24,-129.3 310.24,-125.8 300.24,-122.3 300.24,-129.3"/>
</g>
<!-- TagService -->
<g id="node8" class="node">
<title>TagService</title>
<ellipse fill="#fdb462" stroke="black" cx="79" cy="-66.8" rx="55.01" ry="18"/>
<text text-anchor="middle" x="79" y="-62.6" font-family="Times,serif" font-size="14.00">TagService</text>
</g>
<!-- TagService&#45;&gt;TagModule -->
<g id="edge7" class="edge">
<title>TagService&#45;&gt;TagModule</title>
<path fill="none" stroke="black" d="M79,-85.08C79,-106.12 79,-137.8 79,-137.8 79,-137.8 300.28,-137.8 300.28,-137.8"/>
<polygon fill="black" stroke="black" points="300.28,-141.3 310.28,-137.8 300.28,-134.3 300.28,-141.3"/>
</g>
</g>
</svg>
