<?xml version="1.0" encoding="UTF-8" standalone="no"?>
<!DOCTYPE svg PUBLIC "-//W3C//DTD SVG 1.1//EN"
 "http://www.w3.org/Graphics/SVG/1.1/DTD/svg11.dtd">
<!-- Generated by graphviz version 2.47.3 (20210619.1520)
 -->
<!-- Title: dependencies Pages: 1 -->
<svg width="448pt" height="247pt"
 viewBox="0.00 0.00 448.00 246.80" xmlns="http://www.w3.org/2000/svg" xmlns:xlink="http://www.w3.org/1999/xlink">
<g id="graph0" class="graph" transform="scale(1 1) rotate(0) translate(4 242.8)">
<title>dependencies</title>
<polygon fill="white" stroke="transparent" points="-4,4 -4,-242.8 444,-242.8 444,4 -4,4"/>
<text text-anchor="middle" x="220" y="-8.2" font-family="sans-serif" font-size="14.00">dependencies</text>
<g id="clust1" class="cluster">
<title>cluster_SecurityModule</title>
<polygon fill="none" stroke="black" stroke-dasharray="1,5" points="8,-32.8 8,-230.8 432,-230.8 432,-32.8 8,-32.8"/>
</g>
<g id="clust7" class="cluster">
<title>cluster_SecurityModule_providers</title>
<polygon fill="none" stroke="black" points="290,-40.8 290,-92.8 424,-92.8 424,-40.8 290,-40.8"/>
</g>
<g id="clust2" class="cluster">
<title>cluster_SecurityModule_declarations</title>
<polygon fill="none" stroke="black" points="138,-40.8 138,-92.8 282,-92.8 282,-40.8 138,-40.8"/>
</g>
<g id="clust4" class="cluster">
<title>cluster_SecurityModule_imports</title>
<polygon fill="none" stroke="black" points="16,-40.8 16,-92.8 130,-92.8 130,-40.8 16,-40.8"/>
</g>
<g id="clust5" class="cluster">
<title>cluster_SecurityModule_exports</title>
<polygon fill="none" stroke="black" points="136,-170.8 136,-222.8 284,-222.8 284,-170.8 136,-170.8"/>
</g>
<!-- SecurityComponent -->
<g id="node1" class="node">
<title>SecurityComponent</title>
<polygon fill="#ffffb3" stroke="black" points="273.99,-84.8 146.01,-84.8 146.01,-48.8 273.99,-48.8 273.99,-84.8"/>
<text text-anchor="middle" x="210" y="-62.6" font-family="Times,serif" font-size="14.00">SecurityComponent</text>
</g>
<!-- SecurityModule -->
<g id="node2" class="node">
<title>SecurityModule</title>
<polygon fill="#8dd3c7" stroke="black" points="263.2,-149.8 260.2,-153.8 239.2,-153.8 236.2,-149.8 156.8,-149.8 156.8,-113.8 263.2,-113.8 263.2,-149.8"/>
<text text-anchor="middle" x="210" y="-127.6" font-family="Times,serif" font-size="14.00">SecurityModule</text>
</g>
<!-- SecurityComponent&#45;&gt;SecurityModule -->
<g id="edge1" class="edge">
<title>SecurityComponent&#45;&gt;SecurityModule</title>
<path fill="none" stroke="black" d="M210,-84.91C210,-84.91 210,-103.79 210,-103.79"/>
<polygon fill="black" stroke="black" points="206.5,-103.79 210,-113.79 213.5,-103.79 206.5,-103.79"/>
</g>
<!-- SecurityComponent  -->
<g id="node4" class="node">
<title>SecurityComponent </title>
<polygon fill="#fb8072" stroke="black" points="275.99,-214.8 144.01,-214.8 144.01,-178.8 275.99,-178.8 275.99,-214.8"/>
<text text-anchor="middle" x="210" y="-192.6" font-family="Times,serif" font-size="14.00">SecurityComponent </text>
</g>
<!-- SecurityModule&#45;&gt;SecurityComponent  -->
<g id="edge3" class="edge">
<title>SecurityModule&#45;&gt;SecurityComponent </title>
<path fill="none" stroke="black" stroke-dasharray="5,2" d="M210,-149.91C210,-149.91 210,-168.79 210,-168.79"/>
<polygon fill="black" stroke="black" points="206.5,-168.79 210,-178.79 213.5,-168.79 206.5,-168.79"/>
</g>
<!-- SharedModule -->
<g id="node3" class="node">
<title>SharedModule</title>
<polygon fill="#8dd3c7" stroke="black" points="122.42,-84.8 119.42,-88.8 98.42,-88.8 95.42,-84.8 23.58,-84.8 23.58,-48.8 122.42,-48.8 122.42,-84.8"/>
<text text-anchor="middle" x="73" y="-62.6" font-family="Times,serif" font-size="14.00">SharedModule</text>
</g>
<!-- SharedModule&#45;&gt;SecurityModule -->
<g id="edge2" class="edge">
<title>SharedModule&#45;&gt;SecurityModule</title>
<path fill="none" stroke="black" d="M73,-84.91C73,-104.14 73,-131.8 73,-131.8 73,-131.8 146.64,-131.8 146.64,-131.8"/>
<polygon fill="black" stroke="black" points="146.64,-135.3 156.64,-131.8 146.64,-128.3 146.64,-135.3"/>
</g>
<!-- AuthService -->
<g id="node5" class="node">
<title>AuthService</title>
<ellipse fill="#fdb462" stroke="black" cx="357" cy="-66.8" rx="59.11" ry="18"/>
<text text-anchor="middle" x="357" y="-62.6" font-family="Times,serif" font-size="14.00">AuthService</text>
</g>
<!-- AuthService&#45;&gt;SecurityModule -->
<g id="edge4" class="edge">
<title>AuthService&#45;&gt;SecurityModule</title>
<path fill="none" stroke="black" d="M357,-84.91C357,-104.14 357,-131.8 357,-131.8 357,-131.8 273.49,-131.8 273.49,-131.8"/>
<polygon fill="black" stroke="black" points="273.49,-128.3 263.49,-131.8 273.49,-135.3 273.49,-128.3"/>
</g>
</g>
</svg>
