<?xml version="1.0" encoding="UTF-8" standalone="no"?>
<!DOCTYPE svg PUBLIC "-//W3C//DTD SVG 1.1//EN"
 "http://www.w3.org/Graphics/SVG/1.1/DTD/svg11.dtd">
<!-- Generated by graphviz version 2.47.3 (20210619.1520)
 -->
<!-- Title: dependencies Pages: 1 -->
<svg width="448pt" height="247pt"
 viewBox="0.00 0.00 448.00 246.80" xmlns="http://www.w3.org/2000/svg" xmlns:xlink="http://www.w3.org/1999/xlink">
<g id="graph0" class="graph" transform="scale(1 1) rotate(0) translate(4 242.8)">
<title>dependencies</title>
<polygon fill="white" stroke="transparent" points="-4,4 -4,-242.8 444,-242.8 444,4 -4,4"/>
<text text-anchor="middle" x="220" y="-8.2" font-family="sans-serif" font-size="14.00">dependencies</text>
<g id="clust1" class="cluster">
<title>cluster_SecurityModule</title>
<polygon fill="none" stroke="black" stroke-dasharray="1,5" points="8,-32.8 8,-230.8 432,-230.8 432,-32.8 8,-32.8"/>
</g>
<g id="clust2" class="cluster">
<title>cluster_SecurityModule_declarations</title>
<polygon fill="none" stroke="black" points="280,-40.8 280,-92.8 424,-92.8 424,-40.8 280,-40.8"/>
</g>
<g id="clust5" class="cluster">
<title>cluster_SecurityModule_exports</title>
<polygon fill="none" stroke="black" points="131,-170.8 131,-222.8 279,-222.8 279,-170.8 131,-170.8"/>
</g>
<g id="clust7" class="cluster">
<title>cluster_SecurityModule_providers</title>
<polygon fill="none" stroke="black" points="138,-40.8 138,-92.8 272,-92.8 272,-40.8 138,-40.8"/>
</g>
<g id="clust4" class="cluster">
<title>cluster_SecurityModule_imports</title>
<polygon fill="none" stroke="black" points="16,-40.8 16,-92.8 130,-92.8 130,-40.8 16,-40.8"/>
</g>
<!-- SecurityComponent -->
<g id="node1" class="node">
<title>SecurityComponent</title>
<polygon fill="#ffffb3" stroke="black" points="415.99,-84.8 288.01,-84.8 288.01,-48.8 415.99,-48.8 415.99,-84.8"/>
<text text-anchor="middle" x="352" y="-62.6" font-family="Times,serif" font-size="14.00">SecurityComponent</text>
</g>
<!-- SecurityModule -->
<g id="node2" class="node">
<title>SecurityModule</title>
<polygon fill="#8dd3c7" stroke="black" points="258.2,-149.8 255.2,-153.8 234.2,-153.8 231.2,-149.8 151.8,-149.8 151.8,-113.8 258.2,-113.8 258.2,-149.8"/>
<text text-anchor="middle" x="205" y="-127.6" font-family="Times,serif" font-size="14.00">SecurityModule</text>
</g>
<!-- SecurityComponent&#45;&gt;SecurityModule -->
<g id="edge1" class="edge">
<title>SecurityComponent&#45;&gt;SecurityModule</title>
<path fill="none" stroke="black" d="M352,-84.91C352,-104.14 352,-131.8 352,-131.8 352,-131.8 268.49,-131.8 268.49,-131.8"/>
<polygon fill="black" stroke="black" points="268.49,-128.3 258.49,-131.8 268.49,-135.3 268.49,-128.3"/>
</g>
<!-- SecurityComponent  -->
<g id="node4" class="node">
<title>SecurityComponent </title>
<polygon fill="#fb8072" stroke="black" points="270.99,-214.8 139.01,-214.8 139.01,-178.8 270.99,-178.8 270.99,-214.8"/>
<text text-anchor="middle" x="205" y="-192.6" font-family="Times,serif" font-size="14.00">SecurityComponent </text>
</g>
<!-- SecurityModule&#45;&gt;SecurityComponent  -->
<g id="edge3" class="edge">
<title>SecurityModule&#45;&gt;SecurityComponent </title>
<path fill="none" stroke="black" stroke-dasharray="5,2" d="M205,-149.91C205,-149.91 205,-168.79 205,-168.79"/>
<polygon fill="black" stroke="black" points="201.5,-168.79 205,-178.79 208.5,-168.79 201.5,-168.79"/>
</g>
<!-- SharedModule -->
<g id="node3" class="node">
<title>SharedModule</title>
<polygon fill="#8dd3c7" stroke="black" points="122.42,-84.8 119.42,-88.8 98.42,-88.8 95.42,-84.8 23.58,-84.8 23.58,-48.8 122.42,-48.8 122.42,-84.8"/>
<text text-anchor="middle" x="73" y="-62.6" font-family="Times,serif" font-size="14.00">SharedModule</text>
</g>
<!-- SharedModule&#45;&gt;SecurityModule -->
<g id="edge2" class="edge">
<title>SharedModule&#45;&gt;SecurityModule</title>
<path fill="none" stroke="black" d="M73,-84.91C73,-104.14 73,-131.8 73,-131.8 73,-131.8 141.69,-131.8 141.69,-131.8"/>
<polygon fill="black" stroke="black" points="141.69,-135.3 151.69,-131.8 141.69,-128.3 141.69,-135.3"/>
</g>
<!-- AuthService -->
<g id="node5" class="node">
<title>AuthService</title>
<ellipse fill="#fdb462" stroke="black" cx="205" cy="-66.8" rx="59.11" ry="18"/>
<text text-anchor="middle" x="205" y="-62.6" font-family="Times,serif" font-size="14.00">AuthService</text>
</g>
<!-- AuthService&#45;&gt;SecurityModule -->
<g id="edge4" class="edge">
<title>AuthService&#45;&gt;SecurityModule</title>
<path fill="none" stroke="black" d="M205,-84.91C205,-84.91 205,-103.79 205,-103.79"/>
<polygon fill="black" stroke="black" points="201.5,-103.79 205,-113.79 208.5,-103.79 201.5,-103.79"/>
</g>
</g>
</svg>
