<?xml version="1.0" encoding="UTF-8" standalone="no"?>
<!DOCTYPE svg PUBLIC "-//W3C//DTD SVG 1.1//EN"
 "http://www.w3.org/Graphics/SVG/1.1/DTD/svg11.dtd">
<!-- Generated by graphviz version 2.47.3 (20210619.1520)
 -->
<!-- Title: dependencies Pages: 1 -->
<svg width="677pt" height="174pt"
 viewBox="0.00 0.00 677.00 173.80" xmlns="http://www.w3.org/2000/svg" xmlns:xlink="http://www.w3.org/1999/xlink">
<g id="graph0" class="graph" transform="scale(1 1) rotate(0) translate(4 169.8)">
<title>dependencies</title>
<polygon fill="white" stroke="transparent" points="-4,4 -4,-169.8 673,-169.8 673,4 -4,4"/>
<text text-anchor="middle" x="334.5" y="-8.2" font-family="sans-serif" font-size="14.00">dependencies</text>
<g id="clust1" class="cluster">
<title>cluster_BookingModule</title>
<polygon fill="none" stroke="black" stroke-dasharray="1,5" points="8,-32.8 8,-157.8 661,-157.8 661,-32.8 8,-32.8"/>
</g>
<g id="clust2" class="cluster">
<title>cluster_BookingModule_declarations</title>
<polygon fill="none" stroke="black" points="138,-40.8 138,-92.8 653,-92.8 653,-40.8 138,-40.8"/>
</g>
<g id="clust6" class="cluster">
<title>cluster_BookingModule_imports</title>
<polygon fill="none" stroke="black" points="16,-40.8 16,-92.8 130,-92.8 130,-40.8 16,-40.8"/>
</g>
<!-- BookingFormComponent -->
<g id="node1" class="node">
<title>BookingFormComponent</title>
<polygon fill="#ffffb3" stroke="black" points="644.89,-84.8 485.11,-84.8 485.11,-48.8 644.89,-48.8 644.89,-84.8"/>
<text text-anchor="middle" x="565" y="-62.6" font-family="Times,serif" font-size="14.00">BookingFormComponent</text>
</g>
<!-- BookingModule -->
<g id="node4" class="node">
<title>BookingModule</title>
<polygon fill="#8dd3c7" stroke="black" points="363.78,-149.8 360.78,-153.8 339.78,-153.8 336.78,-149.8 256.22,-149.8 256.22,-113.8 363.78,-113.8 363.78,-149.8"/>
<text text-anchor="middle" x="310" y="-127.6" font-family="Times,serif" font-size="14.00">BookingModule</text>
</g>
<!-- BookingFormComponent&#45;&gt;BookingModule -->
<g id="edge1" class="edge">
<title>BookingFormComponent&#45;&gt;BookingModule</title>
<path fill="none" stroke="black" d="M565,-84.91C565,-104.14 565,-131.8 565,-131.8 565,-131.8 374.08,-131.8 374.08,-131.8"/>
<polygon fill="black" stroke="black" points="374.08,-128.3 364.08,-131.8 374.08,-135.3 374.08,-128.3"/>
</g>
<!-- DatePickerComponent -->
<g id="node2" class="node">
<title>DatePickerComponent</title>
<polygon fill="#ffffb3" stroke="black" points="466.52,-84.8 323.48,-84.8 323.48,-48.8 466.52,-48.8 466.52,-84.8"/>
<text text-anchor="middle" x="395" y="-62.6" font-family="Times,serif" font-size="14.00">DatePickerComponent</text>
</g>
<!-- DatePickerComponent&#45;&gt;BookingModule -->
<g id="edge2" class="edge">
<title>DatePickerComponent&#45;&gt;BookingModule</title>
<path fill="none" stroke="black" d="M343.56,-84.91C343.56,-84.91 343.56,-103.79 343.56,-103.79"/>
<polygon fill="black" stroke="black" points="340.06,-103.79 343.56,-113.79 347.06,-103.79 340.06,-103.79"/>
</g>
<!-- MainBookingComponent -->
<g id="node3" class="node">
<title>MainBookingComponent</title>
<polygon fill="#ffffb3" stroke="black" points="305.61,-84.8 146.39,-84.8 146.39,-48.8 305.61,-48.8 305.61,-84.8"/>
<text text-anchor="middle" x="226" y="-62.6" font-family="Times,serif" font-size="14.00">MainBookingComponent</text>
</g>
<!-- MainBookingComponent&#45;&gt;BookingModule -->
<g id="edge3" class="edge">
<title>MainBookingComponent&#45;&gt;BookingModule</title>
<path fill="none" stroke="black" d="M280.83,-84.91C280.83,-84.91 280.83,-103.79 280.83,-103.79"/>
<polygon fill="black" stroke="black" points="277.33,-103.79 280.83,-113.79 284.33,-103.79 277.33,-103.79"/>
</g>
<!-- SharedModule -->
<g id="node5" class="node">
<title>SharedModule</title>
<polygon fill="#8dd3c7" stroke="black" points="122.42,-84.8 119.42,-88.8 98.42,-88.8 95.42,-84.8 23.58,-84.8 23.58,-48.8 122.42,-48.8 122.42,-84.8"/>
<text text-anchor="middle" x="73" y="-62.6" font-family="Times,serif" font-size="14.00">SharedModule</text>
</g>
<!-- SharedModule&#45;&gt;BookingModule -->
<g id="edge4" class="edge">
<title>SharedModule&#45;&gt;BookingModule</title>
<path fill="none" stroke="black" d="M73,-84.91C73,-104.14 73,-131.8 73,-131.8 73,-131.8 246.22,-131.8 246.22,-131.8"/>
<polygon fill="black" stroke="black" points="246.22,-135.3 256.22,-131.8 246.22,-128.3 246.22,-135.3"/>
</g>
</g>
</svg>
