<?xml version="1.0" encoding="UTF-8" standalone="no"?>
<!DOCTYPE svg PUBLIC "-//W3C//DTD SVG 1.1//EN"
 "http://www.w3.org/Graphics/SVG/1.1/DTD/svg11.dtd">
<!-- Generated by graphviz version 2.47.3 (20210619.1520)
 -->
<!-- Title: dependencies Pages: 1 -->
<svg width="681pt" height="247pt"
 viewBox="0.00 0.00 681.00 246.80" xmlns="http://www.w3.org/2000/svg" xmlns:xlink="http://www.w3.org/1999/xlink">
<g id="graph0" class="graph" transform="scale(1 1) rotate(0) translate(4 242.8)">
<title>dependencies</title>
<polygon fill="white" stroke="transparent" points="-4,4 -4,-242.8 677,-242.8 677,4 -4,4"/>
<text text-anchor="middle" x="336.5" y="-8.2" font-family="sans-serif" font-size="14.00">dependencies</text>
<g id="clust1" class="cluster">
<title>cluster_AdminModule</title>
<polygon fill="none" stroke="black" stroke-dasharray="1,5" points="8,-32.8 8,-230.8 665,-230.8 665,-32.8 8,-32.8"/>
</g>
<g id="clust3" class="cluster">
<title>cluster_AdminModule_imports</title>
<polygon fill="none" stroke="black" points="16,-40.8 16,-92.8 657,-92.8 657,-40.8 16,-40.8"/>
</g>
<g id="clust4" class="cluster">
<title>cluster_AdminModule_exports</title>
<polygon fill="none" stroke="black" points="181,-170.8 181,-222.8 426,-222.8 426,-170.8 181,-170.8"/>
</g>
<!-- AdminRoutingModule -->
<g id="node1" class="node">
<title>AdminRoutingModule</title>
<polygon fill="#8dd3c7" stroke="black" points="648.56,-84.8 645.56,-88.8 624.56,-88.8 621.56,-84.8 505.44,-84.8 505.44,-48.8 648.56,-48.8 648.56,-84.8"/>
<text text-anchor="middle" x="577" y="-62.6" font-family="Times,serif" font-size="14.00">AdminRoutingModule</text>
</g>
<!-- AdminModule -->
<g id="node6" class="node">
<title>AdminModule</title>
<polygon fill="#8dd3c7" stroke="black" points="363.44,-149.8 360.44,-153.8 339.44,-153.8 336.44,-149.8 264.56,-149.8 264.56,-113.8 363.44,-113.8 363.44,-149.8"/>
<text text-anchor="middle" x="314" y="-127.6" font-family="Times,serif" font-size="14.00">AdminModule</text>
</g>
<!-- AdminRoutingModule&#45;&gt;AdminModule -->
<g id="edge1" class="edge">
<title>AdminRoutingModule&#45;&gt;AdminModule</title>
<path fill="none" stroke="black" d="M577,-85.08C577,-106.12 577,-137.8 577,-137.8 577,-137.8 373.47,-137.8 373.47,-137.8"/>
<polygon fill="black" stroke="black" points="373.47,-134.3 363.47,-137.8 373.47,-141.3 373.47,-134.3"/>
</g>
<!-- SecurityModule -->
<g id="node2" class="node">
<title>SecurityModule</title>
<polygon fill="#8dd3c7" stroke="black" points="487.2,-84.8 484.2,-88.8 463.2,-88.8 460.2,-84.8 380.8,-84.8 380.8,-48.8 487.2,-48.8 487.2,-84.8"/>
<text text-anchor="middle" x="434" y="-62.6" font-family="Times,serif" font-size="14.00">SecurityModule</text>
</g>
<!-- SecurityModule&#45;&gt;AdminModule -->
<g id="edge2" class="edge">
<title>SecurityModule&#45;&gt;AdminModule</title>
<path fill="none" stroke="black" d="M399.65,-84.82C399.65,-102.17 399.65,-125.8 399.65,-125.8 399.65,-125.8 373.33,-125.8 373.33,-125.8"/>
<polygon fill="black" stroke="black" points="373.33,-122.3 363.33,-125.8 373.33,-129.3 373.33,-122.3"/>
</g>
<!-- SharedModule -->
<g id="node3" class="node">
<title>SharedModule</title>
<polygon fill="#8dd3c7" stroke="black" points="363.42,-84.8 360.42,-88.8 339.42,-88.8 336.42,-84.8 264.58,-84.8 264.58,-48.8 363.42,-48.8 363.42,-84.8"/>
<text text-anchor="middle" x="314" y="-62.6" font-family="Times,serif" font-size="14.00">SharedModule</text>
</g>
<!-- SharedModule&#45;&gt;AdminModule -->
<g id="edge3" class="edge">
<title>SharedModule&#45;&gt;AdminModule</title>
<path fill="none" stroke="black" d="M314,-84.91C314,-84.91 314,-103.79 314,-103.79"/>
<polygon fill="black" stroke="black" points="310.5,-103.79 314,-113.79 317.5,-103.79 310.5,-103.79"/>
</g>
<!-- TagModule -->
<g id="node4" class="node">
<title>TagModule</title>
<polygon fill="#8dd3c7" stroke="black" points="246.82,-84.8 243.82,-88.8 222.82,-88.8 219.82,-84.8 165.18,-84.8 165.18,-48.8 246.82,-48.8 246.82,-84.8"/>
<text text-anchor="middle" x="206" y="-62.6" font-family="Times,serif" font-size="14.00">TagModule</text>
</g>
<!-- TagModule&#45;&gt;AdminModule -->
<g id="edge4" class="edge">
<title>TagModule&#45;&gt;AdminModule</title>
<path fill="none" stroke="black" d="M217.63,-84.82C217.63,-102.17 217.63,-125.8 217.63,-125.8 217.63,-125.8 254.69,-125.8 254.69,-125.8"/>
<polygon fill="black" stroke="black" points="254.69,-129.3 264.69,-125.8 254.69,-122.3 254.69,-129.3"/>
</g>
<!-- UsersTableModule -->
<g id="node5" class="node">
<title>UsersTableModule</title>
<polygon fill="#8dd3c7" stroke="black" points="147.79,-84.8 144.79,-88.8 123.79,-88.8 120.79,-84.8 24.21,-84.8 24.21,-48.8 147.79,-48.8 147.79,-84.8"/>
<text text-anchor="middle" x="86" y="-62.6" font-family="Times,serif" font-size="14.00">UsersTableModule</text>
</g>
<!-- UsersTableModule&#45;&gt;AdminModule -->
<g id="edge5" class="edge">
<title>UsersTableModule&#45;&gt;AdminModule</title>
<path fill="none" stroke="black" d="M86,-85.08C86,-106.12 86,-137.8 86,-137.8 86,-137.8 254.53,-137.8 254.53,-137.8"/>
<polygon fill="black" stroke="black" points="254.53,-141.3 264.53,-137.8 254.53,-134.3 254.53,-141.3"/>
</g>
<!-- TagModule  -->
<g id="node7" class="node">
<title>TagModule </title>
<polygon fill="#fb8072" stroke="black" points="418.32,-214.8 333.68,-214.8 333.68,-178.8 418.32,-178.8 418.32,-214.8"/>
<text text-anchor="middle" x="376" y="-192.6" font-family="Times,serif" font-size="14.00">TagModule </text>
</g>
<!-- AdminModule&#45;&gt;TagModule  -->
<g id="edge6" class="edge">
<title>AdminModule&#45;&gt;TagModule </title>
<path fill="none" stroke="black" stroke-dasharray="5,2" d="M348.41,-149.91C348.41,-149.91 348.41,-168.79 348.41,-168.79"/>
<polygon fill="black" stroke="black" points="344.91,-168.79 348.41,-178.79 351.91,-168.79 344.91,-168.79"/>
</g>
<!-- UsersTableModule  -->
<g id="node8" class="node">
<title>UsersTableModule </title>
<polygon fill="#fb8072" stroke="black" points="315.29,-214.8 188.71,-214.8 188.71,-178.8 315.29,-178.8 315.29,-214.8"/>
<text text-anchor="middle" x="252" y="-192.6" font-family="Times,serif" font-size="14.00">UsersTableModule </text>
</g>
<!-- AdminModule&#45;&gt;UsersTableModule  -->
<g id="edge7" class="edge">
<title>AdminModule&#45;&gt;UsersTableModule </title>
<path fill="none" stroke="black" stroke-dasharray="5,2" d="M290.09,-149.91C290.09,-149.91 290.09,-168.79 290.09,-168.79"/>
<polygon fill="black" stroke="black" points="286.59,-168.79 290.09,-178.79 293.59,-168.79 286.59,-168.79"/>
</g>
</g>
</svg>
