<?xml version="1.0" encoding="UTF-8" standalone="no"?>
<!DOCTYPE svg PUBLIC "-//W3C//DTD SVG 1.1//EN"
 "http://www.w3.org/Graphics/SVG/1.1/DTD/svg11.dtd">
<!-- Generated by graphviz version 2.47.3 (20210619.1520)
 -->
<!-- Title: dependencies Pages: 1 -->
<svg width="582pt" height="247pt"
 viewBox="0.00 0.00 582.00 246.80" xmlns="http://www.w3.org/2000/svg" xmlns:xlink="http://www.w3.org/1999/xlink">
<g id="graph0" class="graph" transform="scale(1 1) rotate(0) translate(4 242.8)">
<title>dependencies</title>
<polygon fill="white" stroke="transparent" points="-4,4 -4,-242.8 578,-242.8 578,4 -4,4"/>
<text text-anchor="middle" x="287" y="-8.2" font-family="sans-serif" font-size="14.00">dependencies</text>
<g id="clust1" class="cluster">
<title>cluster_AdminModule</title>
<polygon fill="none" stroke="black" stroke-dasharray="1,5" points="8,-32.8 8,-230.8 566,-230.8 566,-32.8 8,-32.8"/>
</g>
<g id="clust3" class="cluster">
<title>cluster_AdminModule_imports</title>
<polygon fill="none" stroke="black" points="16,-40.8 16,-92.8 558,-92.8 558,-40.8 16,-40.8"/>
</g>
<g id="clust4" class="cluster">
<title>cluster_AdminModule_exports</title>
<polygon fill="none" stroke="black" points="204,-170.8 204,-222.8 346,-222.8 346,-170.8 204,-170.8"/>
</g>
<!-- AdminRoutingModule -->
<g id="node1" class="node">
<title>AdminRoutingModule</title>
<polygon fill="#8dd3c7" stroke="black" points="549.56,-84.8 546.56,-88.8 525.56,-88.8 522.56,-84.8 406.44,-84.8 406.44,-48.8 549.56,-48.8 549.56,-84.8"/>
<text text-anchor="middle" x="478" y="-62.6" font-family="Times,serif" font-size="14.00">AdminRoutingModule</text>
</g>
<!-- AdminModule -->
<g id="node5" class="node">
<title>AdminModule</title>
<polygon fill="#8dd3c7" stroke="black" points="324.44,-149.8 321.44,-153.8 300.44,-153.8 297.44,-149.8 225.56,-149.8 225.56,-113.8 324.44,-113.8 324.44,-149.8"/>
<text text-anchor="middle" x="275" y="-127.6" font-family="Times,serif" font-size="14.00">AdminModule</text>
</g>
<!-- AdminRoutingModule&#45;&gt;AdminModule -->
<g id="edge1" class="edge">
<title>AdminRoutingModule&#45;&gt;AdminModule</title>
<path fill="none" stroke="black" d="M478,-84.91C478,-104.14 478,-131.8 478,-131.8 478,-131.8 334.4,-131.8 334.4,-131.8"/>
<polygon fill="black" stroke="black" points="334.4,-128.3 324.4,-131.8 334.4,-135.3 334.4,-128.3"/>
</g>
<!-- SecurityModule -->
<g id="node2" class="node">
<title>SecurityModule</title>
<polygon fill="#8dd3c7" stroke="black" points="388.2,-84.8 385.2,-88.8 364.2,-88.8 361.2,-84.8 281.8,-84.8 281.8,-48.8 388.2,-48.8 388.2,-84.8"/>
<text text-anchor="middle" x="335" y="-62.6" font-family="Times,serif" font-size="14.00">SecurityModule</text>
</g>
<!-- SecurityModule&#45;&gt;AdminModule -->
<g id="edge2" class="edge">
<title>SecurityModule&#45;&gt;AdminModule</title>
<path fill="none" stroke="black" d="M303.06,-84.91C303.06,-84.91 303.06,-103.79 303.06,-103.79"/>
<polygon fill="black" stroke="black" points="299.56,-103.79 303.06,-113.79 306.56,-103.79 299.56,-103.79"/>
</g>
<!-- SharedModule -->
<g id="node3" class="node">
<title>SharedModule</title>
<polygon fill="#8dd3c7" stroke="black" points="264.42,-84.8 261.42,-88.8 240.42,-88.8 237.42,-84.8 165.58,-84.8 165.58,-48.8 264.42,-48.8 264.42,-84.8"/>
<text text-anchor="middle" x="215" y="-62.6" font-family="Times,serif" font-size="14.00">SharedModule</text>
</g>
<!-- SharedModule&#45;&gt;AdminModule -->
<g id="edge3" class="edge">
<title>SharedModule&#45;&gt;AdminModule</title>
<path fill="none" stroke="black" d="M245,-84.91C245,-84.91 245,-103.79 245,-103.79"/>
<polygon fill="black" stroke="black" points="241.5,-103.79 245,-113.79 248.5,-103.79 241.5,-103.79"/>
</g>
<!-- UsersTableModule -->
<g id="node4" class="node">
<title>UsersTableModule</title>
<polygon fill="#8dd3c7" stroke="black" points="147.79,-84.8 144.79,-88.8 123.79,-88.8 120.79,-84.8 24.21,-84.8 24.21,-48.8 147.79,-48.8 147.79,-84.8"/>
<text text-anchor="middle" x="86" y="-62.6" font-family="Times,serif" font-size="14.00">UsersTableModule</text>
</g>
<!-- UsersTableModule&#45;&gt;AdminModule -->
<g id="edge4" class="edge">
<title>UsersTableModule&#45;&gt;AdminModule</title>
<path fill="none" stroke="black" d="M86,-84.91C86,-104.14 86,-131.8 86,-131.8 86,-131.8 215.34,-131.8 215.34,-131.8"/>
<polygon fill="black" stroke="black" points="215.34,-135.3 225.34,-131.8 215.34,-128.3 215.34,-135.3"/>
</g>
<!-- UsersTableModule  -->
<g id="node6" class="node">
<title>UsersTableModule </title>
<polygon fill="#fb8072" stroke="black" points="338.29,-214.8 211.71,-214.8 211.71,-178.8 338.29,-178.8 338.29,-214.8"/>
<text text-anchor="middle" x="275" y="-192.6" font-family="Times,serif" font-size="14.00">UsersTableModule </text>
</g>
<!-- AdminModule&#45;&gt;UsersTableModule  -->
<g id="edge5" class="edge">
<title>AdminModule&#45;&gt;UsersTableModule </title>
<path fill="none" stroke="black" stroke-dasharray="5,2" d="M275,-149.91C275,-149.91 275,-168.79 275,-168.79"/>
<polygon fill="black" stroke="black" points="271.5,-168.79 275,-178.79 278.5,-168.79 271.5,-168.79"/>
</g>
</g>
</svg>
