<?xml version="1.0" encoding="UTF-8" standalone="no"?>
<!DOCTYPE svg PUBLIC "-//W3C//DTD SVG 1.1//EN"
 "http://www.w3.org/Graphics/SVG/1.1/DTD/svg11.dtd">
<!-- Generated by graphviz version 2.47.3 (20210619.1520)
 -->
<!-- Title: dependencies Pages: 1 -->
<svg width="440pt" height="174pt"
 viewBox="0.00 0.00 440.00 173.80" xmlns="http://www.w3.org/2000/svg" xmlns:xlink="http://www.w3.org/1999/xlink">
<g id="graph0" class="graph" transform="scale(1 1) rotate(0) translate(4 169.8)">
<title>dependencies</title>
<polygon fill="white" stroke="transparent" points="-4,4 -4,-169.8 436,-169.8 436,4 -4,4"/>
<text text-anchor="middle" x="216" y="-8.2" font-family="sans-serif" font-size="14.00">dependencies</text>
<g id="clust1" class="cluster">
<title>cluster_AdminModule</title>
<polygon fill="none" stroke="black" stroke-dasharray="1,5" points="8,-32.8 8,-157.8 424,-157.8 424,-32.8 8,-32.8"/>
</g>
<g id="clust3" class="cluster">
<title>cluster_AdminModule_imports</title>
<polygon fill="none" stroke="black" points="16,-40.8 16,-92.8 416,-92.8 416,-40.8 16,-40.8"/>
</g>
<!-- AdminRoutingModule -->
<g id="node1" class="node">
<title>AdminRoutingModule</title>
<polygon fill="#8dd3c7" stroke="black" points="407.56,-84.8 404.56,-88.8 383.56,-88.8 380.56,-84.8 264.44,-84.8 264.44,-48.8 407.56,-48.8 407.56,-84.8"/>
<text text-anchor="middle" x="336" y="-62.6" font-family="Times,serif" font-size="14.00">AdminRoutingModule</text>
</g>
<!-- AdminModule -->
<g id="node4" class="node">
<title>AdminModule</title>
<polygon fill="#8dd3c7" stroke="black" points="242.44,-149.8 239.44,-153.8 218.44,-153.8 215.44,-149.8 143.56,-149.8 143.56,-113.8 242.44,-113.8 242.44,-149.8"/>
<text text-anchor="middle" x="193" y="-127.6" font-family="Times,serif" font-size="14.00">AdminModule</text>
</g>
<!-- AdminRoutingModule&#45;&gt;AdminModule -->
<g id="edge1" class="edge">
<title>AdminRoutingModule&#45;&gt;AdminModule</title>
<path fill="none" stroke="black" d="M336,-84.91C336,-104.14 336,-131.8 336,-131.8 336,-131.8 252.61,-131.8 252.61,-131.8"/>
<polygon fill="black" stroke="black" points="252.61,-128.3 242.61,-131.8 252.61,-135.3 252.61,-128.3"/>
</g>
<!-- SecurityModule -->
<g id="node2" class="node">
<title>SecurityModule</title>
<polygon fill="#8dd3c7" stroke="black" points="246.2,-84.8 243.2,-88.8 222.2,-88.8 219.2,-84.8 139.8,-84.8 139.8,-48.8 246.2,-48.8 246.2,-84.8"/>
<text text-anchor="middle" x="193" y="-62.6" font-family="Times,serif" font-size="14.00">SecurityModule</text>
</g>
<!-- SecurityModule&#45;&gt;AdminModule -->
<g id="edge2" class="edge">
<title>SecurityModule&#45;&gt;AdminModule</title>
<path fill="none" stroke="black" d="M193,-84.91C193,-84.91 193,-103.79 193,-103.79"/>
<polygon fill="black" stroke="black" points="189.5,-103.79 193,-113.79 196.5,-103.79 189.5,-103.79"/>
</g>
<!-- SharedModule -->
<g id="node3" class="node">
<title>SharedModule</title>
<polygon fill="#8dd3c7" stroke="black" points="122.42,-84.8 119.42,-88.8 98.42,-88.8 95.42,-84.8 23.58,-84.8 23.58,-48.8 122.42,-48.8 122.42,-84.8"/>
<text text-anchor="middle" x="73" y="-62.6" font-family="Times,serif" font-size="14.00">SharedModule</text>
</g>
<!-- SharedModule&#45;&gt;AdminModule -->
<g id="edge3" class="edge">
<title>SharedModule&#45;&gt;AdminModule</title>
<path fill="none" stroke="black" d="M73,-84.91C73,-104.14 73,-131.8 73,-131.8 73,-131.8 133.5,-131.8 133.5,-131.8"/>
<polygon fill="black" stroke="black" points="133.5,-135.3 143.5,-131.8 133.5,-128.3 133.5,-135.3"/>
</g>
</g>
</svg>
