<?xml version="1.0" encoding="UTF-8" standalone="no"?>
<!DOCTYPE svg PUBLIC "-//W3C//DTD SVG 1.1//EN"
 "http://www.w3.org/Graphics/SVG/1.1/DTD/svg11.dtd">
<!-- Generated by graphviz version 2.47.3 (20210619.1520)
 -->
<!-- Title: dependencies Pages: 1 -->
<svg width="324pt" height="247pt"
 viewBox="0.00 0.00 324.00 246.80" xmlns="http://www.w3.org/2000/svg" xmlns:xlink="http://www.w3.org/1999/xlink">
<g id="graph0" class="graph" transform="scale(1 1) rotate(0) translate(4 242.8)">
<title>dependencies</title>
<polygon fill="white" stroke="transparent" points="-4,4 -4,-242.8 320,-242.8 320,4 -4,4"/>
<text text-anchor="middle" x="158" y="-8.2" font-family="sans-serif" font-size="14.00">dependencies</text>
<g id="clust1" class="cluster">
<title>cluster_UsersTableModule</title>
<polygon fill="none" stroke="black" stroke-dasharray="1,5" points="8,-32.8 8,-230.8 308,-230.8 308,-32.8 8,-32.8"/>
</g>
<g id="clust5" class="cluster">
<title>cluster_UsersTableModule_exports</title>
<polygon fill="none" stroke="black" points="76,-170.8 76,-222.8 240,-222.8 240,-170.8 76,-170.8"/>
</g>
<g id="clust2" class="cluster">
<title>cluster_UsersTableModule_declarations</title>
<polygon fill="none" stroke="black" points="138,-40.8 138,-92.8 300,-92.8 300,-40.8 138,-40.8"/>
</g>
<g id="clust4" class="cluster">
<title>cluster_UsersTableModule_imports</title>
<polygon fill="none" stroke="black" points="16,-40.8 16,-92.8 130,-92.8 130,-40.8 16,-40.8"/>
</g>
<!-- UsersTableComponent -->
<g id="node1" class="node">
<title>UsersTableComponent</title>
<polygon fill="#ffffb3" stroke="black" points="291.58,-84.8 146.42,-84.8 146.42,-48.8 291.58,-48.8 291.58,-84.8"/>
<text text-anchor="middle" x="219" y="-62.6" font-family="Times,serif" font-size="14.00">UsersTableComponent</text>
</g>
<!-- UsersTableModule -->
<g id="node2" class="node">
<title>UsersTableModule</title>
<polygon fill="#8dd3c7" stroke="black" points="219.79,-149.8 216.79,-153.8 195.79,-153.8 192.79,-149.8 96.21,-149.8 96.21,-113.8 219.79,-113.8 219.79,-149.8"/>
<text text-anchor="middle" x="158" y="-127.6" font-family="Times,serif" font-size="14.00">UsersTableModule</text>
</g>
<!-- UsersTableComponent&#45;&gt;UsersTableModule -->
<g id="edge1" class="edge">
<title>UsersTableComponent&#45;&gt;UsersTableModule</title>
<path fill="none" stroke="black" d="M183.05,-84.91C183.05,-84.91 183.05,-103.79 183.05,-103.79"/>
<polygon fill="black" stroke="black" points="179.55,-103.79 183.05,-113.79 186.55,-103.79 179.55,-103.79"/>
</g>
<!-- UsersTableComponent  -->
<g id="node4" class="node">
<title>UsersTableComponent </title>
<polygon fill="#fb8072" stroke="black" points="232.08,-214.8 83.92,-214.8 83.92,-178.8 232.08,-178.8 232.08,-214.8"/>
<text text-anchor="middle" x="158" y="-192.6" font-family="Times,serif" font-size="14.00">UsersTableComponent </text>
</g>
<!-- UsersTableModule&#45;&gt;UsersTableComponent  -->
<g id="edge3" class="edge">
<title>UsersTableModule&#45;&gt;UsersTableComponent </title>
<path fill="none" stroke="black" stroke-dasharray="5,2" d="M158,-149.91C158,-149.91 158,-168.79 158,-168.79"/>
<polygon fill="black" stroke="black" points="154.5,-168.79 158,-178.79 161.5,-168.79 154.5,-168.79"/>
</g>
<!-- SharedModule -->
<g id="node3" class="node">
<title>SharedModule</title>
<polygon fill="#8dd3c7" stroke="black" points="122.42,-84.8 119.42,-88.8 98.42,-88.8 95.42,-84.8 23.58,-84.8 23.58,-48.8 122.42,-48.8 122.42,-84.8"/>
<text text-anchor="middle" x="73" y="-62.6" font-family="Times,serif" font-size="14.00">SharedModule</text>
</g>
<!-- SharedModule&#45;&gt;UsersTableModule -->
<g id="edge2" class="edge">
<title>SharedModule&#45;&gt;UsersTableModule</title>
<path fill="none" stroke="black" d="M109.28,-84.91C109.28,-84.91 109.28,-103.79 109.28,-103.79"/>
<polygon fill="black" stroke="black" points="105.78,-103.79 109.28,-113.79 112.78,-103.79 105.78,-103.79"/>
</g>
</g>
</svg>
