<?xml version="1.0" encoding="UTF-8" standalone="no"?>
<!DOCTYPE svg PUBLIC "-//W3C//DTD SVG 1.1//EN"
 "http://www.w3.org/Graphics/SVG/1.1/DTD/svg11.dtd">
<!-- Generated by graphviz version 2.47.3 (20210619.1520)
 -->
<!-- Title: dependencies Pages: 1 -->
<svg width="988pt" height="247pt"
 viewBox="0.00 0.00 988.00 246.80" xmlns="http://www.w3.org/2000/svg" xmlns:xlink="http://www.w3.org/1999/xlink">
<g id="graph0" class="graph" transform="scale(1 1) rotate(0) translate(4 242.8)">
<title>dependencies</title>
<polygon fill="white" stroke="transparent" points="-4,4 -4,-242.8 984,-242.8 984,4 -4,4"/>
<text text-anchor="middle" x="490" y="-8.2" font-family="sans-serif" font-size="14.00">dependencies</text>
<g id="clust1" class="cluster">
<title>cluster_AppModule</title>
<polygon fill="none" stroke="black" stroke-dasharray="1,5" points="8,-32.8 8,-230.8 972,-230.8 972,-32.8 8,-32.8"/>
</g>
<g id="clust2" class="cluster">
<title>cluster_AppModule_declarations</title>
<polygon fill="none" stroke="black" points="410,-40.8 410,-92.8 964,-92.8 964,-40.8 410,-40.8"/>
</g>
<g id="clust7" class="cluster">
<title>cluster_AppModule_imports</title>
<polygon fill="none" stroke="black" points="16,-40.8 16,-92.8 402,-92.8 402,-40.8 16,-40.8"/>
</g>
<g id="clust9" class="cluster">
<title>cluster_AppModule_bootstrap</title>
<polygon fill="none" stroke="black" points="428,-170.8 428,-222.8 552,-222.8 552,-170.8 428,-170.8"/>
</g>
<!-- AppComponent -->
<g id="node1" class="node">
<title>AppComponent</title>
<polygon fill="#ffffb3" stroke="black" points="955.94,-84.8 850.06,-84.8 850.06,-48.8 955.94,-48.8 955.94,-84.8"/>
<text text-anchor="middle" x="903" y="-62.6" font-family="Times,serif" font-size="14.00">AppComponent</text>
</g>
<!-- AppModule -->
<g id="node5" class="node">
<title>AppModule</title>
<polygon fill="#8dd3c7" stroke="black" points="531.66,-149.8 528.66,-153.8 507.66,-153.8 504.66,-149.8 448.34,-149.8 448.34,-113.8 531.66,-113.8 531.66,-149.8"/>
<text text-anchor="middle" x="490" y="-127.6" font-family="Times,serif" font-size="14.00">AppModule</text>
</g>
<!-- AppComponent&#45;&gt;AppModule -->
<g id="edge1" class="edge">
<title>AppComponent&#45;&gt;AppModule</title>
<path fill="none" stroke="black" d="M903,-85.09C903,-107.01 903,-140.8 903,-140.8 903,-140.8 541.87,-140.8 541.87,-140.8"/>
<polygon fill="black" stroke="black" points="541.87,-137.3 531.87,-140.8 541.87,-144.3 541.87,-137.3"/>
</g>
<!-- FooterComponent -->
<g id="node2" class="node">
<title>FooterComponent</title>
<polygon fill="#ffffb3" stroke="black" points="831.88,-84.8 714.12,-84.8 714.12,-48.8 831.88,-48.8 831.88,-84.8"/>
<text text-anchor="middle" x="773" y="-62.6" font-family="Times,serif" font-size="14.00">FooterComponent</text>
</g>
<!-- FooterComponent&#45;&gt;AppModule -->
<g id="edge2" class="edge">
<title>FooterComponent&#45;&gt;AppModule</title>
<path fill="none" stroke="black" d="M773,-84.91C773,-104.14 773,-131.8 773,-131.8 773,-131.8 541.76,-131.8 541.76,-131.8"/>
<polygon fill="black" stroke="black" points="541.76,-128.3 531.76,-131.8 541.76,-135.3 541.76,-128.3"/>
</g>
<!-- HomeComponent -->
<g id="node3" class="node">
<title>HomeComponent</title>
<polygon fill="#ffffb3" stroke="black" points="695.55,-84.8 580.45,-84.8 580.45,-48.8 695.55,-48.8 695.55,-84.8"/>
<text text-anchor="middle" x="638" y="-62.6" font-family="Times,serif" font-size="14.00">HomeComponent</text>
</g>
<!-- HomeComponent&#45;&gt;AppModule -->
<g id="edge3" class="edge">
<title>HomeComponent&#45;&gt;AppModule</title>
<path fill="none" stroke="black" d="M638,-84.83C638,-101.2 638,-122.8 638,-122.8 638,-122.8 542.01,-122.8 542.01,-122.8"/>
<polygon fill="black" stroke="black" points="542.02,-119.3 532.01,-122.8 542.01,-126.3 542.02,-119.3"/>
</g>
<!-- NavigationComponent -->
<g id="node4" class="node">
<title>NavigationComponent</title>
<polygon fill="#ffffb3" stroke="black" points="561.54,-84.8 418.46,-84.8 418.46,-48.8 561.54,-48.8 561.54,-84.8"/>
<text text-anchor="middle" x="490" y="-62.6" font-family="Times,serif" font-size="14.00">NavigationComponent</text>
</g>
<!-- NavigationComponent&#45;&gt;AppModule -->
<g id="edge4" class="edge">
<title>NavigationComponent&#45;&gt;AppModule</title>
<path fill="none" stroke="black" d="M490,-84.91C490,-84.91 490,-103.79 490,-103.79"/>
<polygon fill="black" stroke="black" points="486.5,-103.79 490,-113.79 493.5,-103.79 486.5,-103.79"/>
</g>
<!-- AppComponent  -->
<g id="node9" class="node">
<title>AppComponent </title>
<polygon fill="#80b1d3" stroke="black" points="544.44,-214.8 435.56,-214.8 435.56,-178.8 544.44,-178.8 544.44,-214.8"/>
<text text-anchor="middle" x="490" y="-192.6" font-family="Times,serif" font-size="14.00">AppComponent </text>
</g>
<!-- AppModule&#45;&gt;AppComponent  -->
<g id="edge8" class="edge">
<title>AppModule&#45;&gt;AppComponent </title>
<path fill="none" stroke="black" stroke-dasharray="1,5" d="M490,-149.91C490,-149.91 490,-168.79 490,-168.79"/>
<polygon fill="black" stroke="black" points="486.5,-168.79 490,-178.79 493.5,-168.79 486.5,-168.79"/>
</g>
<!-- AppRoutingModule -->
<g id="node6" class="node">
<title>AppRoutingModule</title>
<polygon fill="#8dd3c7" stroke="black" points="394.27,-84.8 391.27,-88.8 370.27,-88.8 367.27,-84.8 265.73,-84.8 265.73,-48.8 394.27,-48.8 394.27,-84.8"/>
<text text-anchor="middle" x="330" y="-62.6" font-family="Times,serif" font-size="14.00">AppRoutingModule</text>
</g>
<!-- AppRoutingModule&#45;&gt;AppModule -->
<g id="edge5" class="edge">
<title>AppRoutingModule&#45;&gt;AppModule</title>
<path fill="none" stroke="black" d="M330,-84.83C330,-101.2 330,-122.8 330,-122.8 330,-122.8 437.96,-122.8 437.96,-122.8"/>
<polygon fill="black" stroke="black" points="437.96,-126.3 447.96,-122.8 437.96,-119.3 437.96,-126.3"/>
</g>
<!-- BookingModule -->
<g id="node7" class="node">
<title>BookingModule</title>
<polygon fill="#8dd3c7" stroke="black" points="247.78,-84.8 244.78,-88.8 223.78,-88.8 220.78,-84.8 140.22,-84.8 140.22,-48.8 247.78,-48.8 247.78,-84.8"/>
<text text-anchor="middle" x="194" y="-62.6" font-family="Times,serif" font-size="14.00">BookingModule</text>
</g>
<!-- BookingModule&#45;&gt;AppModule -->
<g id="edge6" class="edge">
<title>BookingModule&#45;&gt;AppModule</title>
<path fill="none" stroke="black" d="M194,-84.91C194,-104.14 194,-131.8 194,-131.8 194,-131.8 438.22,-131.8 438.22,-131.8"/>
<polygon fill="black" stroke="black" points="438.22,-135.3 448.22,-131.8 438.22,-128.3 438.22,-135.3"/>
</g>
<!-- SharedModule -->
<g id="node8" class="node">
<title>SharedModule</title>
<polygon fill="#8dd3c7" stroke="black" points="122.42,-84.8 119.42,-88.8 98.42,-88.8 95.42,-84.8 23.58,-84.8 23.58,-48.8 122.42,-48.8 122.42,-84.8"/>
<text text-anchor="middle" x="73" y="-62.6" font-family="Times,serif" font-size="14.00">SharedModule</text>
</g>
<!-- SharedModule&#45;&gt;AppModule -->
<g id="edge7" class="edge">
<title>SharedModule&#45;&gt;AppModule</title>
<path fill="none" stroke="black" d="M73,-85.09C73,-107.01 73,-140.8 73,-140.8 73,-140.8 438.11,-140.8 438.11,-140.8"/>
<polygon fill="black" stroke="black" points="438.11,-144.3 448.11,-140.8 438.11,-137.3 438.11,-144.3"/>
</g>
</g>
</svg>
