<?xml version="1.0" encoding="UTF-8" standalone="no"?>
<!DOCTYPE svg PUBLIC "-//W3C//DTD SVG 1.1//EN"
 "http://www.w3.org/Graphics/SVG/1.1/DTD/svg11.dtd">
<!-- Generated by graphviz version 2.47.3 (20210619.1520)
 -->
<!-- Title: dependencies Pages: 1 -->
<svg width="842pt" height="247pt"
 viewBox="0.00 0.00 842.00 246.80" xmlns="http://www.w3.org/2000/svg" xmlns:xlink="http://www.w3.org/1999/xlink">
<g id="graph0" class="graph" transform="scale(1 1) rotate(0) translate(4 242.8)">
<title>dependencies</title>
<polygon fill="white" stroke="transparent" points="-4,4 -4,-242.8 838,-242.8 838,4 -4,4"/>
<text text-anchor="middle" x="417" y="-8.2" font-family="sans-serif" font-size="14.00">dependencies</text>
<g id="clust1" class="cluster">
<title>cluster_AppModule</title>
<polygon fill="none" stroke="black" stroke-dasharray="1,5" points="8,-32.8 8,-230.8 826,-230.8 826,-32.8 8,-32.8"/>
</g>
<g id="clust2" class="cluster">
<title>cluster_AppModule_declarations</title>
<polygon fill="none" stroke="black" points="264,-40.8 264,-92.8 818,-92.8 818,-40.8 264,-40.8"/>
</g>
<g id="clust7" class="cluster">
<title>cluster_AppModule_imports</title>
<polygon fill="none" stroke="black" points="16,-40.8 16,-92.8 256,-92.8 256,-40.8 16,-40.8"/>
</g>
<g id="clust9" class="cluster">
<title>cluster_AppModule_bootstrap</title>
<polygon fill="none" stroke="black" points="356,-170.8 356,-222.8 480,-222.8 480,-170.8 356,-170.8"/>
</g>
<!-- AppComponent -->
<g id="node1" class="node">
<title>AppComponent</title>
<polygon fill="#ffffb3" stroke="black" points="809.94,-84.8 704.06,-84.8 704.06,-48.8 809.94,-48.8 809.94,-84.8"/>
<text text-anchor="middle" x="757" y="-62.6" font-family="Times,serif" font-size="14.00">AppComponent</text>
</g>
<!-- AppModule -->
<g id="node5" class="node">
<title>AppModule</title>
<polygon fill="#8dd3c7" stroke="black" points="459.66,-149.8 456.66,-153.8 435.66,-153.8 432.66,-149.8 376.34,-149.8 376.34,-113.8 459.66,-113.8 459.66,-149.8"/>
<text text-anchor="middle" x="418" y="-127.6" font-family="Times,serif" font-size="14.00">AppModule</text>
</g>
<!-- AppComponent&#45;&gt;AppModule -->
<g id="edge1" class="edge">
<title>AppComponent&#45;&gt;AppModule</title>
<path fill="none" stroke="black" d="M757,-85.08C757,-106.12 757,-137.8 757,-137.8 757,-137.8 469.91,-137.8 469.91,-137.8"/>
<polygon fill="black" stroke="black" points="469.91,-134.3 459.91,-137.8 469.91,-141.3 469.91,-134.3"/>
</g>
<!-- FooterComponent -->
<g id="node2" class="node">
<title>FooterComponent</title>
<polygon fill="#ffffb3" stroke="black" points="685.88,-84.8 568.12,-84.8 568.12,-48.8 685.88,-48.8 685.88,-84.8"/>
<text text-anchor="middle" x="627" y="-62.6" font-family="Times,serif" font-size="14.00">FooterComponent</text>
</g>
<!-- FooterComponent&#45;&gt;AppModule -->
<g id="edge2" class="edge">
<title>FooterComponent&#45;&gt;AppModule</title>
<path fill="none" stroke="black" d="M627,-84.82C627,-102.17 627,-125.8 627,-125.8 627,-125.8 469.79,-125.8 469.79,-125.8"/>
<polygon fill="black" stroke="black" points="469.79,-122.3 459.79,-125.8 469.79,-129.3 469.79,-122.3"/>
</g>
<!-- HomeComponent -->
<g id="node3" class="node">
<title>HomeComponent</title>
<polygon fill="#ffffb3" stroke="black" points="549.55,-84.8 434.45,-84.8 434.45,-48.8 549.55,-48.8 549.55,-84.8"/>
<text text-anchor="middle" x="492" y="-62.6" font-family="Times,serif" font-size="14.00">HomeComponent</text>
</g>
<!-- HomeComponent&#45;&gt;AppModule -->
<g id="edge3" class="edge">
<title>HomeComponent&#45;&gt;AppModule</title>
<path fill="none" stroke="black" d="M447.03,-84.91C447.03,-84.91 447.03,-103.79 447.03,-103.79"/>
<polygon fill="black" stroke="black" points="443.53,-103.79 447.03,-113.79 450.53,-103.79 443.53,-103.79"/>
</g>
<!-- NavigationComponent -->
<g id="node4" class="node">
<title>NavigationComponent</title>
<polygon fill="#ffffb3" stroke="black" points="415.54,-84.8 272.46,-84.8 272.46,-48.8 415.54,-48.8 415.54,-84.8"/>
<text text-anchor="middle" x="344" y="-62.6" font-family="Times,serif" font-size="14.00">NavigationComponent</text>
</g>
<!-- NavigationComponent&#45;&gt;AppModule -->
<g id="edge4" class="edge">
<title>NavigationComponent&#45;&gt;AppModule</title>
<path fill="none" stroke="black" d="M395.97,-84.91C395.97,-84.91 395.97,-103.79 395.97,-103.79"/>
<polygon fill="black" stroke="black" points="392.47,-103.79 395.97,-113.79 399.47,-103.79 392.47,-103.79"/>
</g>
<!-- AppComponent  -->
<g id="node8" class="node">
<title>AppComponent </title>
<polygon fill="#80b1d3" stroke="black" points="472.44,-214.8 363.56,-214.8 363.56,-178.8 472.44,-178.8 472.44,-214.8"/>
<text text-anchor="middle" x="418" y="-192.6" font-family="Times,serif" font-size="14.00">AppComponent </text>
</g>
<!-- AppModule&#45;&gt;AppComponent  -->
<g id="edge7" class="edge">
<title>AppModule&#45;&gt;AppComponent </title>
<path fill="none" stroke="black" stroke-dasharray="1,5" d="M418,-149.91C418,-149.91 418,-168.79 418,-168.79"/>
<polygon fill="black" stroke="black" points="414.5,-168.79 418,-178.79 421.5,-168.79 414.5,-168.79"/>
</g>
<!-- BookingModule -->
<g id="node6" class="node">
<title>BookingModule</title>
<polygon fill="#8dd3c7" stroke="black" points="247.78,-84.8 244.78,-88.8 223.78,-88.8 220.78,-84.8 140.22,-84.8 140.22,-48.8 247.78,-48.8 247.78,-84.8"/>
<text text-anchor="middle" x="194" y="-62.6" font-family="Times,serif" font-size="14.00">BookingModule</text>
</g>
<!-- BookingModule&#45;&gt;AppModule -->
<g id="edge5" class="edge">
<title>BookingModule&#45;&gt;AppModule</title>
<path fill="none" stroke="black" d="M194,-84.82C194,-102.17 194,-125.8 194,-125.8 194,-125.8 366.13,-125.8 366.13,-125.8"/>
<polygon fill="black" stroke="black" points="366.13,-129.3 376.13,-125.8 366.13,-122.3 366.13,-129.3"/>
</g>
<!-- SharedModule -->
<g id="node7" class="node">
<title>SharedModule</title>
<polygon fill="#8dd3c7" stroke="black" points="122.42,-84.8 119.42,-88.8 98.42,-88.8 95.42,-84.8 23.58,-84.8 23.58,-48.8 122.42,-48.8 122.42,-84.8"/>
<text text-anchor="middle" x="73" y="-62.6" font-family="Times,serif" font-size="14.00">SharedModule</text>
</g>
<!-- SharedModule&#45;&gt;AppModule -->
<g id="edge6" class="edge">
<title>SharedModule&#45;&gt;AppModule</title>
<path fill="none" stroke="black" d="M73,-85.08C73,-106.12 73,-137.8 73,-137.8 73,-137.8 366.04,-137.8 366.04,-137.8"/>
<polygon fill="black" stroke="black" points="366.04,-141.3 376.04,-137.8 366.04,-134.3 366.04,-141.3"/>
</g>
</g>
</svg>
