<?xml version="1.0" encoding="UTF-8" standalone="no"?>
<!DOCTYPE svg PUBLIC "-//W3C//DTD SVG 1.1//EN"
 "http://www.w3.org/Graphics/SVG/1.1/DTD/svg11.dtd">
<!-- Generated by graphviz version 2.47.3 (20210619.1520)
 -->
<!-- Title: dependencies Pages: 1 -->
<svg width="988pt" height="247pt"
 viewBox="0.00 0.00 988.00 246.80" xmlns="http://www.w3.org/2000/svg" xmlns:xlink="http://www.w3.org/1999/xlink">
<g id="graph0" class="graph" transform="scale(1 1) rotate(0) translate(4 242.8)">
<title>dependencies</title>
<polygon fill="white" stroke="transparent" points="-4,4 -4,-242.8 984,-242.8 984,4 -4,4"/>
<text text-anchor="middle" x="490" y="-8.2" font-family="sans-serif" font-size="14.00">dependencies</text>
<g id="clust1" class="cluster">
<title>cluster_AppModule</title>
<polygon fill="none" stroke="black" stroke-dasharray="1,5" points="8,-32.8 8,-230.8 972,-230.8 972,-32.8 8,-32.8"/>
</g>
<g id="clust7" class="cluster">
<title>cluster_AppModule_imports</title>
<polygon fill="none" stroke="black" points="578,-40.8 578,-92.8 964,-92.8 964,-40.8 578,-40.8"/>
</g>
<g id="clust9" class="cluster">
<title>cluster_AppModule_bootstrap</title>
<polygon fill="none" stroke="black" points="447,-170.8 447,-222.8 571,-222.8 571,-170.8 447,-170.8"/>
</g>
<g id="clust2" class="cluster">
<title>cluster_AppModule_declarations</title>
<polygon fill="none" stroke="black" points="16,-40.8 16,-92.8 570,-92.8 570,-40.8 16,-40.8"/>
</g>
<!-- AppComponent -->
<g id="node1" class="node">
<title>AppComponent</title>
<polygon fill="#ffffb3" stroke="black" points="561.94,-84.8 456.06,-84.8 456.06,-48.8 561.94,-48.8 561.94,-84.8"/>
<text text-anchor="middle" x="509" y="-62.6" font-family="Times,serif" font-size="14.00">AppComponent</text>
</g>
<!-- AppModule -->
<g id="node5" class="node">
<title>AppModule</title>
<polygon fill="#8dd3c7" stroke="black" points="550.66,-149.8 547.66,-153.8 526.66,-153.8 523.66,-149.8 467.34,-149.8 467.34,-113.8 550.66,-113.8 550.66,-149.8"/>
<text text-anchor="middle" x="509" y="-127.6" font-family="Times,serif" font-size="14.00">AppModule</text>
</g>
<!-- AppComponent&#45;&gt;AppModule -->
<g id="edge1" class="edge">
<title>AppComponent&#45;&gt;AppModule</title>
<path fill="none" stroke="black" d="M509,-84.91C509,-84.91 509,-103.79 509,-103.79"/>
<polygon fill="black" stroke="black" points="505.5,-103.79 509,-113.79 512.5,-103.79 505.5,-103.79"/>
</g>
<!-- FooterComponent -->
<g id="node2" class="node">
<title>FooterComponent</title>
<polygon fill="#ffffb3" stroke="black" points="437.88,-84.8 320.12,-84.8 320.12,-48.8 437.88,-48.8 437.88,-84.8"/>
<text text-anchor="middle" x="379" y="-62.6" font-family="Times,serif" font-size="14.00">FooterComponent</text>
</g>
<!-- FooterComponent&#45;&gt;AppModule -->
<g id="edge2" class="edge">
<title>FooterComponent&#45;&gt;AppModule</title>
<path fill="none" stroke="black" d="M379,-84.83C379,-101.2 379,-122.8 379,-122.8 379,-122.8 457.15,-122.8 457.15,-122.8"/>
<polygon fill="black" stroke="black" points="457.15,-126.3 467.15,-122.8 457.15,-119.3 457.15,-126.3"/>
</g>
<!-- HomeComponent -->
<g id="node3" class="node">
<title>HomeComponent</title>
<polygon fill="#ffffb3" stroke="black" points="301.55,-84.8 186.45,-84.8 186.45,-48.8 301.55,-48.8 301.55,-84.8"/>
<text text-anchor="middle" x="244" y="-62.6" font-family="Times,serif" font-size="14.00">HomeComponent</text>
</g>
<!-- HomeComponent&#45;&gt;AppModule -->
<g id="edge3" class="edge">
<title>HomeComponent&#45;&gt;AppModule</title>
<path fill="none" stroke="black" d="M244,-84.91C244,-104.14 244,-131.8 244,-131.8 244,-131.8 457.3,-131.8 457.3,-131.8"/>
<polygon fill="black" stroke="black" points="457.3,-135.3 467.3,-131.8 457.3,-128.3 457.3,-135.3"/>
</g>
<!-- NavigationComponent -->
<g id="node4" class="node">
<title>NavigationComponent</title>
<polygon fill="#ffffb3" stroke="black" points="167.54,-84.8 24.46,-84.8 24.46,-48.8 167.54,-48.8 167.54,-84.8"/>
<text text-anchor="middle" x="96" y="-62.6" font-family="Times,serif" font-size="14.00">NavigationComponent</text>
</g>
<!-- NavigationComponent&#45;&gt;AppModule -->
<g id="edge4" class="edge">
<title>NavigationComponent&#45;&gt;AppModule</title>
<path fill="none" stroke="black" d="M96,-85.09C96,-107.01 96,-140.8 96,-140.8 96,-140.8 457.13,-140.8 457.13,-140.8"/>
<polygon fill="black" stroke="black" points="457.13,-144.3 467.13,-140.8 457.13,-137.3 457.13,-144.3"/>
</g>
<!-- AppComponent  -->
<g id="node9" class="node">
<title>AppComponent </title>
<polygon fill="#80b1d3" stroke="black" points="563.44,-214.8 454.56,-214.8 454.56,-178.8 563.44,-178.8 563.44,-214.8"/>
<text text-anchor="middle" x="509" y="-192.6" font-family="Times,serif" font-size="14.00">AppComponent </text>
</g>
<!-- AppModule&#45;&gt;AppComponent  -->
<g id="edge8" class="edge">
<title>AppModule&#45;&gt;AppComponent </title>
<path fill="none" stroke="black" stroke-dasharray="1,5" d="M509,-149.91C509,-149.91 509,-168.79 509,-168.79"/>
<polygon fill="black" stroke="black" points="505.5,-168.79 509,-178.79 512.5,-168.79 505.5,-168.79"/>
</g>
<!-- AppRoutingModule -->
<g id="node6" class="node">
<title>AppRoutingModule</title>
<polygon fill="#8dd3c7" stroke="black" points="956.27,-84.8 953.27,-88.8 932.27,-88.8 929.27,-84.8 827.73,-84.8 827.73,-48.8 956.27,-48.8 956.27,-84.8"/>
<text text-anchor="middle" x="892" y="-62.6" font-family="Times,serif" font-size="14.00">AppRoutingModule</text>
</g>
<!-- AppRoutingModule&#45;&gt;AppModule -->
<g id="edge5" class="edge">
<title>AppRoutingModule&#45;&gt;AppModule</title>
<path fill="none" stroke="black" d="M892,-85.09C892,-107.01 892,-140.8 892,-140.8 892,-140.8 560.72,-140.8 560.72,-140.8"/>
<polygon fill="black" stroke="black" points="560.72,-137.3 550.72,-140.8 560.72,-144.3 560.72,-137.3"/>
</g>
<!-- BookingModule -->
<g id="node7" class="node">
<title>BookingModule</title>
<polygon fill="#8dd3c7" stroke="black" points="809.78,-84.8 806.78,-88.8 785.78,-88.8 782.78,-84.8 702.22,-84.8 702.22,-48.8 809.78,-48.8 809.78,-84.8"/>
<text text-anchor="middle" x="756" y="-62.6" font-family="Times,serif" font-size="14.00">BookingModule</text>
</g>
<!-- BookingModule&#45;&gt;AppModule -->
<g id="edge6" class="edge">
<title>BookingModule&#45;&gt;AppModule</title>
<path fill="none" stroke="black" d="M756,-84.91C756,-104.14 756,-131.8 756,-131.8 756,-131.8 560.9,-131.8 560.9,-131.8"/>
<polygon fill="black" stroke="black" points="560.9,-128.3 550.9,-131.8 560.9,-135.3 560.9,-128.3"/>
</g>
<!-- SharedModule -->
<g id="node8" class="node">
<title>SharedModule</title>
<polygon fill="#8dd3c7" stroke="black" points="684.42,-84.8 681.42,-88.8 660.42,-88.8 657.42,-84.8 585.58,-84.8 585.58,-48.8 684.42,-48.8 684.42,-84.8"/>
<text text-anchor="middle" x="635" y="-62.6" font-family="Times,serif" font-size="14.00">SharedModule</text>
</g>
<!-- SharedModule&#45;&gt;AppModule -->
<g id="edge7" class="edge">
<title>SharedModule&#45;&gt;AppModule</title>
<path fill="none" stroke="black" d="M635,-84.83C635,-101.2 635,-122.8 635,-122.8 635,-122.8 560.96,-122.8 560.96,-122.8"/>
<polygon fill="black" stroke="black" points="560.96,-119.3 550.96,-122.8 560.96,-126.3 560.96,-119.3"/>
</g>
</g>
</svg>
