<?xml version="1.0" encoding="UTF-8" standalone="no"?>
<!DOCTYPE svg PUBLIC "-//W3C//DTD SVG 1.1//EN"
 "http://www.w3.org/Graphics/SVG/1.1/DTD/svg11.dtd">
<!-- Generated by graphviz version 2.47.3 (20210619.1520)
 -->
<!-- Title: dependencies Pages: 1 -->
<svg width="2491pt" height="329pt"
 viewBox="0.00 0.00 2491.00 328.80" xmlns="http://www.w3.org/2000/svg" xmlns:xlink="http://www.w3.org/1999/xlink">
<g id="graph0" class="graph" transform="scale(1 1) rotate(0) translate(4 324.8)">
<title>dependencies</title>
<polygon fill="white" stroke="transparent" points="-4,4 -4,-324.8 2487,-324.8 2487,4 -4,4"/>
<text text-anchor="middle" x="1241.5" y="-8.2" font-family="sans-serif" font-size="14.00">dependencies</text>
<g id="clust1" class="cluster">
<title>cluster_AdminModule</title>
<polygon fill="none" stroke="black" stroke-dasharray="1,5" points="8,-32.8 8,-168.8 184,-168.8 184,-32.8 8,-32.8"/>
</g>
<g id="clust3" class="cluster">
<title>cluster_AdminModule_imports</title>
<polygon fill="none" stroke="black" points="16,-40.8 16,-92.8 176,-92.8 176,-40.8 16,-40.8"/>
</g>
<g id="clust13" class="cluster">
<title>cluster_AppModule</title>
<polygon fill="none" stroke="black" stroke-dasharray="1,5" points="731,-32.8 731,-312.8 1447,-312.8 1447,-32.8 731,-32.8"/>
</g>
<g id="clust14" class="cluster">
<title>cluster_AppModule_declarations</title>
<polygon fill="none" stroke="black" points="885,-116.8 885,-168.8 1439,-168.8 1439,-116.8 885,-116.8"/>
</g>
<g id="clust19" class="cluster">
<title>cluster_AppModule_imports</title>
<polygon fill="none" stroke="black" points="739,-40.8 739,-168.8 863,-168.8 863,-40.8 739,-40.8"/>
</g>
<g id="clust21" class="cluster">
<title>cluster_AppModule_bootstrap</title>
<polygon fill="none" stroke="black" points="977,-252.8 977,-304.8 1101,-304.8 1101,-252.8 977,-252.8"/>
</g>
<g id="clust29" class="cluster">
<title>cluster_BookingModule</title>
<polygon fill="none" stroke="black" stroke-dasharray="1,5" points="192,-32.8 192,-100.8 723,-100.8 723,-32.8 192,-32.8"/>
</g>
<g id="clust30" class="cluster">
<title>cluster_BookingModule_declarations</title>
<polygon fill="none" stroke="black" points="200,-40.8 200,-92.8 715,-92.8 715,-40.8 200,-40.8"/>
</g>
<g id="clust38" class="cluster">
<title>cluster_ErrorModule</title>
<polygon fill="none" stroke="black" stroke-dasharray="1,5" points="2277,-32.8 2277,-168.8 2475,-168.8 2475,-32.8 2277,-32.8"/>
</g>
<g id="clust39" class="cluster">
<title>cluster_ErrorModule_declarations</title>
<polygon fill="none" stroke="black" points="2285,-40.8 2285,-92.8 2467,-92.8 2467,-40.8 2285,-40.8"/>
</g>
<g id="clust45" class="cluster">
<title>cluster_SecurityModule</title>
<polygon fill="none" stroke="black" stroke-dasharray="1,5" points="1779,-32.8 1779,-244.8 2081,-244.8 2081,-32.8 1779,-32.8"/>
</g>
<g id="clust46" class="cluster">
<title>cluster_SecurityModule_declarations</title>
<polygon fill="none" stroke="black" points="1929,-40.8 1929,-92.8 2073,-92.8 2073,-40.8 1929,-40.8"/>
</g>
<g id="clust49" class="cluster">
<title>cluster_SecurityModule_exports</title>
<polygon fill="none" stroke="black" points="1787,-184.8 1787,-236.8 1935,-236.8 1935,-184.8 1787,-184.8"/>
</g>
<g id="clust51" class="cluster">
<title>cluster_SecurityModule_providers</title>
<polygon fill="none" stroke="black" points="1787,-40.8 1787,-92.8 1921,-92.8 1921,-40.8 1787,-40.8"/>
</g>
<g id="clust52" class="cluster">
<title>cluster_SharedModule</title>
<polygon fill="none" stroke="black" stroke-dasharray="1,5" points="1455,-108.8 1455,-176.8 1771,-176.8 1771,-108.8 1455,-108.8"/>
</g>
<g id="clust54" class="cluster">
<title>cluster_SharedModule_imports</title>
<polygon fill="none" stroke="black" points="1619,-116.8 1619,-168.8 1763,-168.8 1763,-116.8 1619,-116.8"/>
</g>
<g id="clust55" class="cluster">
<title>cluster_SharedModule_exports</title>
<polygon fill="none" stroke="black" points="1463,-116.8 1463,-168.8 1611,-168.8 1611,-116.8 1463,-116.8"/>
</g>
<g id="clust58" class="cluster">
<title>cluster_UsersTableModule</title>
<polygon fill="none" stroke="black" stroke-dasharray="1,5" points="2089,-32.8 2089,-244.8 2269,-244.8 2269,-32.8 2089,-32.8"/>
</g>
<g id="clust59" class="cluster">
<title>cluster_UsersTableModule_declarations</title>
<polygon fill="none" stroke="black" points="2097,-40.8 2097,-92.8 2259,-92.8 2259,-40.8 2097,-40.8"/>
</g>
<g id="clust62" class="cluster">
<title>cluster_UsersTableModule_exports</title>
<polygon fill="none" stroke="black" points="2097,-184.8 2097,-236.8 2261,-236.8 2261,-184.8 2097,-184.8"/>
</g>
<!-- AdminRoutingModule -->
<g id="node1" class="node">
<title>AdminRoutingModule</title>
<polygon fill="#8dd3c7" stroke="black" points="167.56,-84.8 164.56,-88.8 143.56,-88.8 140.56,-84.8 24.44,-84.8 24.44,-48.8 167.56,-48.8 167.56,-84.8"/>
<text text-anchor="middle" x="96" y="-62.6" font-family="Times,serif" font-size="14.00">AdminRoutingModule</text>
</g>
<!-- AdminModule -->
<g id="node2" class="node">
<title>AdminModule</title>
<polygon fill="#8dd3c7" stroke="black" points="145.44,-160.8 142.44,-164.8 121.44,-164.8 118.44,-160.8 46.56,-160.8 46.56,-124.8 145.44,-124.8 145.44,-160.8"/>
<text text-anchor="middle" x="96" y="-138.6" font-family="Times,serif" font-size="14.00">AdminModule</text>
</g>
<!-- AdminRoutingModule&#45;&gt;AdminModule -->
<g id="edge1" class="edge">
<title>AdminRoutingModule&#45;&gt;AdminModule</title>
<path fill="none" stroke="black" d="M96,-84.81C96,-84.81 96,-114.65 96,-114.65"/>
<polygon fill="black" stroke="black" points="92.5,-114.65 96,-124.65 99.5,-114.65 92.5,-114.65"/>
</g>
<!-- AppComponent -->
<g id="node3" class="node">
<title>AppComponent</title>
<polygon fill="#ffffb3" stroke="black" points="1430.94,-160.8 1325.06,-160.8 1325.06,-124.8 1430.94,-124.8 1430.94,-160.8"/>
<text text-anchor="middle" x="1378" y="-138.6" font-family="Times,serif" font-size="14.00">AppComponent</text>
</g>
<!-- AppModule -->
<g id="node7" class="node">
<title>AppModule</title>
<polygon fill="#8dd3c7" stroke="black" points="1080.66,-228.8 1077.66,-232.8 1056.66,-232.8 1053.66,-228.8 997.34,-228.8 997.34,-192.8 1080.66,-192.8 1080.66,-228.8"/>
<text text-anchor="middle" x="1039" y="-206.6" font-family="Times,serif" font-size="14.00">AppModule</text>
</g>
<!-- AppComponent&#45;&gt;AppModule -->
<g id="edge2" class="edge">
<title>AppComponent&#45;&gt;AppModule</title>
<path fill="none" stroke="black" d="M1378,-161.09C1378,-183.01 1378,-216.8 1378,-216.8 1378,-216.8 1090.91,-216.8 1090.91,-216.8"/>
<polygon fill="black" stroke="black" points="1090.91,-213.3 1080.91,-216.8 1090.91,-220.3 1090.91,-213.3"/>
</g>
<!-- FooterComponent -->
<g id="node4" class="node">
<title>FooterComponent</title>
<polygon fill="#ffffb3" stroke="black" points="1306.88,-160.8 1189.12,-160.8 1189.12,-124.8 1306.88,-124.8 1306.88,-160.8"/>
<text text-anchor="middle" x="1248" y="-138.6" font-family="Times,serif" font-size="14.00">FooterComponent</text>
</g>
<!-- FooterComponent&#45;&gt;AppModule -->
<g id="edge3" class="edge">
<title>FooterComponent&#45;&gt;AppModule</title>
<path fill="none" stroke="black" d="M1248,-161.07C1248,-179.36 1248,-204.8 1248,-204.8 1248,-204.8 1090.79,-204.8 1090.79,-204.8"/>
<polygon fill="black" stroke="black" points="1090.79,-201.3 1080.79,-204.8 1090.79,-208.3 1090.79,-201.3"/>
</g>
<!-- HomeComponent -->
<g id="node5" class="node">
<title>HomeComponent</title>
<polygon fill="#ffffb3" stroke="black" points="1170.55,-160.8 1055.45,-160.8 1055.45,-124.8 1170.55,-124.8 1170.55,-160.8"/>
<text text-anchor="middle" x="1113" y="-138.6" font-family="Times,serif" font-size="14.00">HomeComponent</text>
</g>
<!-- HomeComponent&#45;&gt;AppModule -->
<g id="edge4" class="edge">
<title>HomeComponent&#45;&gt;AppModule</title>
<path fill="none" stroke="black" d="M1068.03,-161.02C1068.03,-161.02 1068.03,-182.53 1068.03,-182.53"/>
<polygon fill="black" stroke="black" points="1064.53,-182.53 1068.03,-192.53 1071.53,-182.53 1064.53,-182.53"/>
</g>
<!-- NavigationComponent -->
<g id="node6" class="node">
<title>NavigationComponent</title>
<polygon fill="#ffffb3" stroke="black" points="1036.54,-160.8 893.46,-160.8 893.46,-124.8 1036.54,-124.8 1036.54,-160.8"/>
<text text-anchor="middle" x="965" y="-138.6" font-family="Times,serif" font-size="14.00">NavigationComponent</text>
</g>
<!-- NavigationComponent&#45;&gt;AppModule -->
<g id="edge5" class="edge">
<title>NavigationComponent&#45;&gt;AppModule</title>
<path fill="none" stroke="black" d="M1016.97,-161.02C1016.97,-161.02 1016.97,-182.53 1016.97,-182.53"/>
<polygon fill="black" stroke="black" points="1013.47,-182.53 1016.97,-192.53 1020.47,-182.53 1013.47,-182.53"/>
</g>
<!-- AppComponent  -->
<g id="node10" class="node">
<title>AppComponent </title>
<polygon fill="#80b1d3" stroke="black" points="1093.44,-296.8 984.56,-296.8 984.56,-260.8 1093.44,-260.8 1093.44,-296.8"/>
<text text-anchor="middle" x="1039" y="-274.6" font-family="Times,serif" font-size="14.00">AppComponent </text>
</g>
<!-- AppModule&#45;&gt;AppComponent  -->
<g id="edge8" class="edge">
<title>AppModule&#45;&gt;AppComponent </title>
<path fill="none" stroke="black" stroke-dasharray="1,5" d="M1039,-229.02C1039,-229.02 1039,-250.53 1039,-250.53"/>
<polygon fill="black" stroke="black" points="1035.5,-250.53 1039,-260.53 1042.5,-250.53 1035.5,-250.53"/>
</g>
<!-- BookingModule -->
<g id="node8" class="node">
<title>BookingModule</title>
<polygon fill="#8dd3c7" stroke="black" points="854.78,-160.8 851.78,-164.8 830.78,-164.8 827.78,-160.8 747.22,-160.8 747.22,-124.8 854.78,-124.8 854.78,-160.8"/>
<text text-anchor="middle" x="801" y="-138.6" font-family="Times,serif" font-size="14.00">BookingModule</text>
</g>
<!-- BookingModule&#45;&gt;AppModule -->
<g id="edge6" class="edge">
<title>BookingModule&#45;&gt;AppModule</title>
<path fill="none" stroke="black" d="M801,-161.02C801,-181.17 801,-210.8 801,-210.8 801,-210.8 987.27,-210.8 987.27,-210.8"/>
<polygon fill="black" stroke="black" points="987.27,-214.3 997.27,-210.8 987.27,-207.3 987.27,-214.3"/>
</g>
<!-- SharedModule -->
<g id="node9" class="node">
<title>SharedModule</title>
<polygon fill="#8dd3c7" stroke="black" points="855.42,-84.8 852.42,-88.8 831.42,-88.8 828.42,-84.8 756.58,-84.8 756.58,-48.8 855.42,-48.8 855.42,-84.8"/>
<text text-anchor="middle" x="806" y="-62.6" font-family="Times,serif" font-size="14.00">SharedModule</text>
</g>
<!-- SharedModule&#45;&gt;AppModule -->
<g id="edge7" class="edge">
<title>SharedModule&#45;&gt;AppModule</title>
<path fill="none" stroke="black" d="M855.44,-77.8C925.69,-77.8 1046,-77.8 1046,-77.8 1046,-77.8 1046,-182.59 1046,-182.59"/>
<polygon fill="black" stroke="black" points="1042.5,-182.59 1046,-192.59 1049.5,-182.59 1042.5,-182.59"/>
</g>
<!-- SharedModule&#45;&gt;BookingModule -->
<g id="edge12" class="edge">
<title>SharedModule&#45;&gt;BookingModule</title>
<path fill="none" stroke="black" d="M789.49,-84.81C789.49,-84.81 789.49,-114.65 789.49,-114.65"/>
<polygon fill="black" stroke="black" points="785.99,-114.65 789.49,-124.65 792.99,-114.65 785.99,-114.65"/>
</g>
<!-- SecurityModule -->
<g id="node17" class="node">
<title>SecurityModule</title>
<polygon fill="#8dd3c7" stroke="black" points="1910.2,-160.8 1907.2,-164.8 1886.2,-164.8 1883.2,-160.8 1803.8,-160.8 1803.8,-124.8 1910.2,-124.8 1910.2,-160.8"/>
<text text-anchor="middle" x="1857" y="-138.6" font-family="Times,serif" font-size="14.00">SecurityModule</text>
</g>
<!-- SharedModule&#45;&gt;SecurityModule -->
<g id="edge15" class="edge">
<title>SharedModule&#45;&gt;SecurityModule</title>
<path fill="none" stroke="black" d="M855.39,-56.8C1052.86,-56.8 1775.04,-56.8 1775.04,-56.8 1775.04,-56.8 1775.04,-142.8 1775.04,-142.8 1775.04,-142.8 1793.71,-142.8 1793.71,-142.8"/>
<polygon fill="black" stroke="black" points="1793.71,-146.3 1803.71,-142.8 1793.71,-139.3 1793.71,-146.3"/>
</g>
<!-- AppRoutingModule  -->
<g id="node21" class="node">
<title>AppRoutingModule </title>
<polygon fill="#fb8072" stroke="black" points="1603.27,-160.8 1470.73,-160.8 1470.73,-124.8 1603.27,-124.8 1603.27,-160.8"/>
<text text-anchor="middle" x="1537" y="-138.6" font-family="Times,serif" font-size="14.00">AppRoutingModule </text>
</g>
<!-- SharedModule&#45;&gt;AppRoutingModule  -->
<g id="edge19" class="edge">
<title>SharedModule&#45;&gt;AppRoutingModule </title>
<path fill="none" stroke="black" stroke-dasharray="5,2" d="M855.38,-70.8C1019.6,-70.8 1537,-70.8 1537,-70.8 1537,-70.8 1537,-114.63 1537,-114.63"/>
<polygon fill="black" stroke="black" points="1533.5,-114.63 1537,-124.63 1540.5,-114.63 1533.5,-114.63"/>
</g>
<!-- UsersTableModule -->
<g id="node23" class="node">
<title>UsersTableModule</title>
<polygon fill="#8dd3c7" stroke="black" points="2239.79,-160.8 2236.79,-164.8 2215.79,-164.8 2212.79,-160.8 2116.21,-160.8 2116.21,-124.8 2239.79,-124.8 2239.79,-160.8"/>
<text text-anchor="middle" x="2178" y="-138.6" font-family="Times,serif" font-size="14.00">UsersTableModule</text>
</g>
<!-- SharedModule&#45;&gt;UsersTableModule -->
<g id="edge21" class="edge">
<title>SharedModule&#45;&gt;UsersTableModule</title>
<path fill="none" stroke="black" d="M822.19,-84.91C822.19,-94.7 822.19,-104.8 822.19,-104.8 822.19,-104.8 2157.45,-104.8 2157.45,-104.8 2157.45,-104.8 2157.45,-114.69 2157.45,-114.69"/>
<polygon fill="black" stroke="black" points="2153.95,-114.69 2157.45,-124.69 2160.95,-114.69 2153.95,-114.69"/>
</g>
<!-- BookingFormComponent -->
<g id="node11" class="node">
<title>BookingFormComponent</title>
<polygon fill="#ffffb3" stroke="black" points="706.89,-84.8 547.11,-84.8 547.11,-48.8 706.89,-48.8 706.89,-84.8"/>
<text text-anchor="middle" x="627" y="-62.6" font-family="Times,serif" font-size="14.00">BookingFormComponent</text>
</g>
<!-- BookingFormComponent&#45;&gt;BookingModule -->
<g id="edge9" class="edge">
<title>BookingFormComponent&#45;&gt;BookingModule</title>
<path fill="none" stroke="black" d="M707.19,-66.8C731.53,-66.8 751.95,-66.8 751.95,-66.8 751.95,-66.8 751.95,-114.79 751.95,-114.79"/>
<polygon fill="black" stroke="black" points="748.45,-114.79 751.95,-124.79 755.45,-114.79 748.45,-114.79"/>
</g>
<!-- DatePickerComponent -->
<g id="node12" class="node">
<title>DatePickerComponent</title>
<polygon fill="#ffffb3" stroke="black" points="528.52,-84.8 385.48,-84.8 385.48,-48.8 528.52,-48.8 528.52,-84.8"/>
<text text-anchor="middle" x="457" y="-62.6" font-family="Times,serif" font-size="14.00">DatePickerComponent</text>
</g>
<!-- DatePickerComponent&#45;&gt;BookingModule -->
<g id="edge10" class="edge">
<title>DatePickerComponent&#45;&gt;BookingModule</title>
<path fill="none" stroke="black" d="M457,-84.83C457,-105.57 457,-136.8 457,-136.8 457,-136.8 736.87,-136.8 736.87,-136.8"/>
<polygon fill="black" stroke="black" points="736.87,-140.3 746.87,-136.8 736.87,-133.3 736.87,-140.3"/>
</g>
<!-- MainBookingComponent -->
<g id="node13" class="node">
<title>MainBookingComponent</title>
<polygon fill="#ffffb3" stroke="black" points="367.61,-84.8 208.39,-84.8 208.39,-48.8 367.61,-48.8 367.61,-84.8"/>
<text text-anchor="middle" x="288" y="-62.6" font-family="Times,serif" font-size="14.00">MainBookingComponent</text>
</g>
<!-- MainBookingComponent&#45;&gt;BookingModule -->
<g id="edge11" class="edge">
<title>MainBookingComponent&#45;&gt;BookingModule</title>
<path fill="none" stroke="black" d="M288,-85C288,-109.16 288,-148.8 288,-148.8 288,-148.8 737.07,-148.8 737.07,-148.8"/>
<polygon fill="black" stroke="black" points="737.07,-152.3 747.07,-148.8 737.07,-145.3 737.07,-152.3"/>
</g>
<!-- PageNotFoundComponent -->
<g id="node14" class="node">
<title>PageNotFoundComponent</title>
<polygon fill="#ffffb3" stroke="black" points="2458.82,-84.8 2293.18,-84.8 2293.18,-48.8 2458.82,-48.8 2458.82,-84.8"/>
<text text-anchor="middle" x="2376" y="-62.6" font-family="Times,serif" font-size="14.00">PageNotFoundComponent</text>
</g>
<!-- ErrorModule -->
<g id="node15" class="node">
<title>ErrorModule</title>
<polygon fill="#8dd3c7" stroke="black" points="2420.58,-160.8 2417.58,-164.8 2396.58,-164.8 2393.58,-160.8 2331.42,-160.8 2331.42,-124.8 2420.58,-124.8 2420.58,-160.8"/>
<text text-anchor="middle" x="2376" y="-138.6" font-family="Times,serif" font-size="14.00">ErrorModule</text>
</g>
<!-- PageNotFoundComponent&#45;&gt;ErrorModule -->
<g id="edge13" class="edge">
<title>PageNotFoundComponent&#45;&gt;ErrorModule</title>
<path fill="none" stroke="black" d="M2376,-84.81C2376,-84.81 2376,-114.65 2376,-114.65"/>
<polygon fill="black" stroke="black" points="2372.5,-114.65 2376,-124.65 2379.5,-114.65 2372.5,-114.65"/>
</g>
<!-- SecurityComponent -->
<g id="node16" class="node">
<title>SecurityComponent</title>
<polygon fill="#ffffb3" stroke="black" points="2064.99,-84.8 1937.01,-84.8 1937.01,-48.8 2064.99,-48.8 2064.99,-84.8"/>
<text text-anchor="middle" x="2001" y="-62.6" font-family="Times,serif" font-size="14.00">SecurityComponent</text>
</g>
<!-- SecurityComponent&#45;&gt;SecurityModule -->
<g id="edge14" class="edge">
<title>SecurityComponent&#45;&gt;SecurityModule</title>
<path fill="none" stroke="black" d="M2001,-84.81C2001,-107.29 2001,-142.8 2001,-142.8 2001,-142.8 1920.21,-142.8 1920.21,-142.8"/>
<polygon fill="black" stroke="black" points="1920.21,-139.3 1910.21,-142.8 1920.21,-146.3 1920.21,-139.3"/>
</g>
<!-- SecurityComponent  -->
<g id="node18" class="node">
<title>SecurityComponent </title>
<polygon fill="#fb8072" stroke="black" points="1926.99,-228.8 1795.01,-228.8 1795.01,-192.8 1926.99,-192.8 1926.99,-228.8"/>
<text text-anchor="middle" x="1861" y="-206.6" font-family="Times,serif" font-size="14.00">SecurityComponent </text>
</g>
<!-- SecurityModule&#45;&gt;SecurityComponent  -->
<g id="edge16" class="edge">
<title>SecurityModule&#45;&gt;SecurityComponent </title>
<path fill="none" stroke="black" stroke-dasharray="5,2" d="M1857,-161.02C1857,-161.02 1857,-182.53 1857,-182.53"/>
<polygon fill="black" stroke="black" points="1853.5,-182.53 1857,-192.53 1860.5,-182.53 1853.5,-182.53"/>
</g>
<!-- AuthService -->
<g id="node19" class="node">
<title>AuthService</title>
<ellipse fill="#fdb462" stroke="black" cx="1854" cy="-66.8" rx="59.11" ry="18"/>
<text text-anchor="middle" x="1854" y="-62.6" font-family="Times,serif" font-size="14.00">AuthService</text>
</g>
<!-- AuthService&#45;&gt;SecurityModule -->
<g id="edge17" class="edge">
<title>AuthService&#45;&gt;SecurityModule</title>
<path fill="none" stroke="black" d="M1857,-84.81C1857,-84.81 1857,-114.65 1857,-114.65"/>
<polygon fill="black" stroke="black" points="1853.5,-114.65 1857,-124.65 1860.5,-114.65 1853.5,-114.65"/>
</g>
<!-- AppRoutingModule -->
<g id="node20" class="node">
<title>AppRoutingModule</title>
<polygon fill="#8dd3c7" stroke="black" points="1755.27,-160.8 1752.27,-164.8 1731.27,-164.8 1728.27,-160.8 1626.73,-160.8 1626.73,-124.8 1755.27,-124.8 1755.27,-160.8"/>
<text text-anchor="middle" x="1691" y="-138.6" font-family="Times,serif" font-size="14.00">AppRoutingModule</text>
</g>
<!-- AppRoutingModule&#45;&gt;SharedModule -->
<g id="edge18" class="edge">
<title>AppRoutingModule&#45;&gt;SharedModule</title>
<path fill="none" stroke="black" d="M1691,-124.48C1691,-101.14 1691,-63.8 1691,-63.8 1691,-63.8 865.48,-63.8 865.48,-63.8"/>
<polygon fill="black" stroke="black" points="865.48,-60.3 855.48,-63.8 865.48,-67.3 865.48,-60.3"/>
</g>
<!-- UsersTableComponent -->
<g id="node22" class="node">
<title>UsersTableComponent</title>
<polygon fill="#ffffb3" stroke="black" points="2250.58,-84.8 2105.42,-84.8 2105.42,-48.8 2250.58,-48.8 2250.58,-84.8"/>
<text text-anchor="middle" x="2178" y="-62.6" font-family="Times,serif" font-size="14.00">UsersTableComponent</text>
</g>
<!-- UsersTableComponent&#45;&gt;UsersTableModule -->
<g id="edge20" class="edge">
<title>UsersTableComponent&#45;&gt;UsersTableModule</title>
<path fill="none" stroke="black" d="M2198.55,-84.81C2198.55,-84.81 2198.55,-114.65 2198.55,-114.65"/>
<polygon fill="black" stroke="black" points="2195.05,-114.65 2198.55,-124.65 2202.05,-114.65 2195.05,-114.65"/>
</g>
<!-- UsersTableComponent  -->
<g id="node24" class="node">
<title>UsersTableComponent </title>
<polygon fill="#fb8072" stroke="black" points="2253.08,-228.8 2104.92,-228.8 2104.92,-192.8 2253.08,-192.8 2253.08,-228.8"/>
<text text-anchor="middle" x="2179" y="-206.6" font-family="Times,serif" font-size="14.00">UsersTableComponent </text>
</g>
<!-- UsersTableModule&#45;&gt;UsersTableComponent  -->
<g id="edge22" class="edge">
<title>UsersTableModule&#45;&gt;UsersTableComponent </title>
<path fill="none" stroke="black" stroke-dasharray="5,2" d="M2178,-161.02C2178,-161.02 2178,-182.53 2178,-182.53"/>
<polygon fill="black" stroke="black" points="2174.5,-182.53 2178,-192.53 2181.5,-182.53 2174.5,-182.53"/>
</g>
</g>
</svg>
