<?xml version="1.0" encoding="UTF-8" standalone="no"?>
<!DOCTYPE svg PUBLIC "-//W3C//DTD SVG 1.1//EN"
 "http://www.w3.org/Graphics/SVG/1.1/DTD/svg11.dtd">
<!-- Generated by graphviz version 2.47.3 (20210619.1520)
 -->
<!-- Title: dependencies Pages: 1 -->
<svg width="3285pt" height="329pt"
 viewBox="0.00 0.00 3285.00 328.80" xmlns="http://www.w3.org/2000/svg" xmlns:xlink="http://www.w3.org/1999/xlink">
<g id="graph0" class="graph" transform="scale(1 1) rotate(0) translate(4 324.8)">
<title>dependencies</title>
<polygon fill="white" stroke="transparent" points="-4,4 -4,-324.8 3281,-324.8 3281,4 -4,4"/>
<text text-anchor="middle" x="1638.5" y="-8.2" font-family="sans-serif" font-size="14.00">dependencies</text>
<g id="clust1" class="cluster">
<title>cluster_AdminModule</title>
<polygon fill="none" stroke="black" stroke-dasharray="1,5" points="1251,-32.8 1251,-312.8 1663,-312.8 1663,-32.8 1251,-32.8"/>
</g>
<g id="clust3" class="cluster">
<title>cluster_AdminModule_imports</title>
<polygon fill="none" stroke="black" points="1259,-40.8 1259,-168.8 1623,-168.8 1623,-40.8 1259,-40.8"/>
</g>
<g id="clust4" class="cluster">
<title>cluster_AdminModule_exports</title>
<polygon fill="none" stroke="black" points="1384,-252.8 1384,-304.8 1629,-304.8 1629,-252.8 1384,-252.8"/>
</g>
<g id="clust13" class="cluster">
<title>cluster_AppModule</title>
<polygon fill="none" stroke="black" stroke-dasharray="1,5" points="2029,-108.8 2029,-312.8 2877,-312.8 2877,-108.8 2029,-108.8"/>
</g>
<g id="clust14" class="cluster">
<title>cluster_AppModule_declarations</title>
<polygon fill="none" stroke="black" points="2315,-116.8 2315,-168.8 2869,-168.8 2869,-116.8 2315,-116.8"/>
</g>
<g id="clust19" class="cluster">
<title>cluster_AppModule_imports</title>
<polygon fill="none" stroke="black" points="2037,-116.8 2037,-168.8 2307,-168.8 2307,-116.8 2037,-116.8"/>
</g>
<g id="clust21" class="cluster">
<title>cluster_AppModule_bootstrap</title>
<polygon fill="none" stroke="black" points="2333,-252.8 2333,-304.8 2457,-304.8 2457,-252.8 2333,-252.8"/>
</g>
<g id="clust29" class="cluster">
<title>cluster_BookingModule</title>
<polygon fill="none" stroke="black" stroke-dasharray="1,5" points="1834,-32.8 1834,-100.8 2365,-100.8 2365,-32.8 1834,-32.8"/>
</g>
<g id="clust30" class="cluster">
<title>cluster_BookingModule_declarations</title>
<polygon fill="none" stroke="black" points="1842,-40.8 1842,-92.8 2357,-92.8 2357,-40.8 1842,-40.8"/>
</g>
<g id="clust38" class="cluster">
<title>cluster_DashboardModule</title>
<polygon fill="none" stroke="black" stroke-dasharray="1,5" points="2885,-32.8 2885,-244.8 3063,-244.8 3063,-32.8 2885,-32.8"/>
</g>
<g id="clust39" class="cluster">
<title>cluster_DashboardModule_declarations</title>
<polygon fill="none" stroke="black" points="2894,-40.8 2894,-92.8 3052,-92.8 3052,-40.8 2894,-40.8"/>
</g>
<g id="clust42" class="cluster">
<title>cluster_DashboardModule_exports</title>
<polygon fill="none" stroke="black" points="2893,-184.8 2893,-236.8 3055,-236.8 3055,-184.8 2893,-184.8"/>
</g>
<g id="clust45" class="cluster">
<title>cluster_ErrorModule</title>
<polygon fill="none" stroke="black" stroke-dasharray="1,5" points="3071,-32.8 3071,-168.8 3269,-168.8 3269,-32.8 3071,-32.8"/>
</g>
<g id="clust46" class="cluster">
<title>cluster_ErrorModule_declarations</title>
<polygon fill="none" stroke="black" points="3079,-40.8 3079,-92.8 3261,-92.8 3261,-40.8 3079,-40.8"/>
</g>
<g id="clust52" class="cluster">
<title>cluster_SecurityModule</title>
<polygon fill="none" stroke="black" stroke-dasharray="1,5" points="785,-32.8 785,-100.8 1243,-100.8 1243,-32.8 785,-32.8"/>
</g>
<g id="clust53" class="cluster">
<title>cluster_SecurityModule_declarations</title>
<polygon fill="none" stroke="black" points="1091,-40.8 1091,-92.8 1235,-92.8 1235,-40.8 1091,-40.8"/>
</g>
<g id="clust56" class="cluster">
<title>cluster_SecurityModule_exports</title>
<polygon fill="none" stroke="black" points="935,-40.8 935,-92.8 1083,-92.8 1083,-40.8 935,-40.8"/>
</g>
<g id="clust58" class="cluster">
<title>cluster_SecurityModule_providers</title>
<polygon fill="none" stroke="black" points="793,-40.8 793,-92.8 927,-92.8 927,-40.8 793,-40.8"/>
</g>
<g id="clust65" class="cluster">
<title>cluster_TagModule</title>
<polygon fill="none" stroke="black" stroke-dasharray="1,5" points="8,-32.8 8,-100.8 777,-100.8 777,-32.8 8,-32.8"/>
</g>
<g id="clust66" class="cluster">
<title>cluster_TagModule_declarations</title>
<polygon fill="none" stroke="black" points="467,-40.8 467,-92.8 769,-92.8 769,-40.8 467,-40.8"/>
</g>
<g id="clust70" class="cluster">
<title>cluster_TagModule_exports</title>
<polygon fill="none" stroke="black" points="150,-40.8 150,-92.8 459,-92.8 459,-40.8 150,-40.8"/>
</g>
<g id="clust72" class="cluster">
<title>cluster_TagModule_providers</title>
<polygon fill="none" stroke="black" points="16,-40.8 16,-92.8 142,-92.8 142,-40.8 16,-40.8"/>
</g>
<g id="clust73" class="cluster">
<title>cluster_UsersTableModule</title>
<polygon fill="none" stroke="black" stroke-dasharray="1,5" points="1671,-176.8 1671,-244.8 2021,-244.8 2021,-176.8 1671,-176.8"/>
</g>
<g id="clust74" class="cluster">
<title>cluster_UsersTableModule_declarations</title>
<polygon fill="none" stroke="black" points="1851,-184.8 1851,-236.8 2013,-236.8 2013,-184.8 1851,-184.8"/>
</g>
<g id="clust77" class="cluster">
<title>cluster_UsersTableModule_exports</title>
<polygon fill="none" stroke="black" points="1679,-184.8 1679,-236.8 1843,-236.8 1843,-184.8 1679,-184.8"/>
</g>
<!-- AdminRoutingModule -->
<g id="node1" class="node">
<title>AdminRoutingModule</title>
<polygon fill="#8dd3c7" stroke="black" points="1498.56,-84.8 1495.56,-88.8 1474.56,-88.8 1471.56,-84.8 1355.44,-84.8 1355.44,-48.8 1498.56,-48.8 1498.56,-84.8"/>
<text text-anchor="middle" x="1427" y="-62.6" font-family="Times,serif" font-size="14.00">AdminRoutingModule</text>
</g>
<!-- AdminModule -->
<g id="node6" class="node">
<title>AdminModule</title>
<polygon fill="#8dd3c7" stroke="black" points="1602.44,-228.8 1599.44,-232.8 1578.44,-232.8 1575.44,-228.8 1503.56,-228.8 1503.56,-192.8 1602.44,-192.8 1602.44,-228.8"/>
<text text-anchor="middle" x="1553" y="-206.6" font-family="Times,serif" font-size="14.00">AdminModule</text>
</g>
<!-- AdminRoutingModule&#45;&gt;AdminModule -->
<g id="edge1" class="edge">
<title>AdminRoutingModule&#45;&gt;AdminModule</title>
<path fill="none" stroke="black" d="M1482.23,-85.01C1482.23,-121.86 1482.23,-201.8 1482.23,-201.8 1482.23,-201.8 1493.46,-201.8 1493.46,-201.8"/>
<polygon fill="black" stroke="black" points="1493.46,-205.3 1503.46,-201.8 1493.46,-198.3 1493.46,-205.3"/>
</g>
<!-- SecurityModule -->
<g id="node2" class="node">
<title>SecurityModule</title>
<polygon fill="#8dd3c7" stroke="black" points="1473.2,-160.8 1470.2,-164.8 1449.2,-164.8 1446.2,-160.8 1366.8,-160.8 1366.8,-124.8 1473.2,-124.8 1473.2,-160.8"/>
<text text-anchor="middle" x="1420" y="-138.6" font-family="Times,serif" font-size="14.00">SecurityModule</text>
</g>
<!-- SecurityModule&#45;&gt;AdminModule -->
<g id="edge2" class="edge">
<title>SecurityModule&#45;&gt;AdminModule</title>
<path fill="none" stroke="black" d="M1432.35,-161.02C1432.35,-181.17 1432.35,-210.8 1432.35,-210.8 1432.35,-210.8 1493.58,-210.8 1493.58,-210.8"/>
<polygon fill="black" stroke="black" points="1493.58,-214.3 1503.58,-210.8 1493.58,-207.3 1493.58,-214.3"/>
</g>
<!-- SecurityComponent  -->
<g id="node26" class="node">
<title>SecurityComponent </title>
<polygon fill="#fb8072" stroke="black" points="1074.99,-84.8 943.01,-84.8 943.01,-48.8 1074.99,-48.8 1074.99,-84.8"/>
<text text-anchor="middle" x="1009" y="-62.6" font-family="Times,serif" font-size="14.00">SecurityComponent </text>
</g>
<!-- SecurityModule&#45;&gt;SecurityComponent  -->
<g id="edge26" class="edge">
<title>SecurityModule&#45;&gt;SecurityComponent </title>
<path fill="none" stroke="black" stroke-dasharray="5,2" d="M1409.38,-124.69C1409.38,-114.9 1409.38,-104.8 1409.38,-104.8 1409.38,-104.8 1009,-104.8 1009,-104.8 1009,-104.8 1009,-94.91 1009,-94.91"/>
<polygon fill="black" stroke="black" points="1012.5,-94.91 1009,-84.91 1005.5,-94.91 1012.5,-94.91"/>
</g>
<!-- SharedModule -->
<g id="node3" class="node">
<title>SharedModule</title>
<polygon fill="#8dd3c7" stroke="black" points="1615.42,-84.8 1612.42,-88.8 1591.42,-88.8 1588.42,-84.8 1516.58,-84.8 1516.58,-48.8 1615.42,-48.8 1615.42,-84.8"/>
<text text-anchor="middle" x="1566" y="-62.6" font-family="Times,serif" font-size="14.00">SharedModule</text>
</g>
<!-- SharedModule&#45;&gt;SecurityModule -->
<g id="edge25" class="edge">
<title>SharedModule&#45;&gt;SecurityModule</title>
<path fill="none" stroke="black" d="M1555.93,-85.04C1555.93,-100.37 1555.93,-119.8 1555.93,-119.8 1555.93,-119.8 1451.86,-119.8 1451.86,-119.8 1451.86,-119.8 1451.86,-120.29 1451.86,-120.29"/>
<polygon fill="black" stroke="black" points="1448.36,-114.68 1451.86,-124.68 1455.36,-114.68 1448.36,-114.68"/>
</g>
<!-- TagModule -->
<g id="node4" class="node">
<title>TagModule</title>
<polygon fill="#8dd3c7" stroke="black" points="1348.82,-160.8 1345.82,-164.8 1324.82,-164.8 1321.82,-160.8 1267.18,-160.8 1267.18,-124.8 1348.82,-124.8 1348.82,-160.8"/>
<text text-anchor="middle" x="1308" y="-138.6" font-family="Times,serif" font-size="14.00">TagModule</text>
</g>
<!-- SharedModule&#45;&gt;TagModule -->
<g id="edge30" class="edge">
<title>SharedModule&#45;&gt;TagModule</title>
<path fill="none" stroke="black" d="M1536.36,-85.01C1536.36,-90.35 1536.36,-94.8 1536.36,-94.8 1536.36,-94.8 1308,-94.8 1308,-94.8 1308,-94.8 1308,-114.65 1308,-114.65"/>
<polygon fill="black" stroke="black" points="1304.5,-114.65 1308,-124.65 1311.5,-114.65 1304.5,-114.65"/>
</g>
<!-- UsersTableModule -->
<g id="node5" class="node">
<title>UsersTableModule</title>
<polygon fill="#8dd3c7" stroke="black" points="1614.79,-160.8 1611.79,-164.8 1590.79,-164.8 1587.79,-160.8 1491.21,-160.8 1491.21,-124.8 1614.79,-124.8 1614.79,-160.8"/>
<text text-anchor="middle" x="1553" y="-138.6" font-family="Times,serif" font-size="14.00">UsersTableModule</text>
</g>
<!-- SharedModule&#45;&gt;UsersTableModule -->
<g id="edge35" class="edge">
<title>SharedModule&#45;&gt;UsersTableModule</title>
<path fill="none" stroke="black" d="M1575.5,-84.81C1575.5,-84.81 1575.5,-114.65 1575.5,-114.65"/>
<polygon fill="black" stroke="black" points="1572,-114.65 1575.5,-124.65 1579,-114.65 1572,-114.65"/>
</g>
<!-- SharedModule&#45;&gt;AdminModule -->
<g id="edge3" class="edge">
<title>SharedModule&#45;&gt;AdminModule</title>
<path fill="none" stroke="black" d="M1615.43,-75.8C1627.86,-75.8 1637.73,-75.8 1637.73,-75.8 1637.73,-75.8 1637.73,-216.8 1637.73,-216.8 1637.73,-216.8 1612.29,-216.8 1612.29,-216.8"/>
<polygon fill="black" stroke="black" points="1612.29,-213.3 1602.29,-216.8 1612.29,-220.3 1612.29,-213.3"/>
</g>
<!-- AppModule -->
<g id="node13" class="node">
<title>AppModule</title>
<polygon fill="#8dd3c7" stroke="black" points="2436.66,-228.8 2433.66,-232.8 2412.66,-232.8 2409.66,-228.8 2353.34,-228.8 2353.34,-192.8 2436.66,-192.8 2436.66,-228.8"/>
<text text-anchor="middle" x="2395" y="-206.6" font-family="Times,serif" font-size="14.00">AppModule</text>
</g>
<!-- SharedModule&#45;&gt;AppModule -->
<g id="edge14" class="edge">
<title>SharedModule&#45;&gt;AppModule</title>
<path fill="none" stroke="black" d="M1615.44,-66.8C1635.51,-66.8 1654.06,-66.8 1654.06,-66.8 1654.06,-66.8 1654.06,-176.8 1654.06,-176.8 1654.06,-176.8 2381.06,-176.8 2381.06,-176.8 2381.06,-176.8 2381.06,-182.61 2381.06,-182.61"/>
<polygon fill="black" stroke="black" points="2377.56,-182.61 2381.06,-192.61 2384.56,-182.61 2377.56,-182.61"/>
</g>
<!-- BookingModule -->
<g id="node15" class="node">
<title>BookingModule</title>
<polygon fill="#8dd3c7" stroke="black" points="2152.78,-160.8 2149.78,-164.8 2128.78,-164.8 2125.78,-160.8 2045.22,-160.8 2045.22,-124.8 2152.78,-124.8 2152.78,-160.8"/>
<text text-anchor="middle" x="2099" y="-138.6" font-family="Times,serif" font-size="14.00">BookingModule</text>
</g>
<!-- SharedModule&#45;&gt;BookingModule -->
<g id="edge19" class="edge">
<title>SharedModule&#45;&gt;BookingModule</title>
<path fill="none" stroke="black" d="M1615.44,-57.8C1642.42,-57.8 1670.39,-57.8 1670.39,-57.8 1670.39,-57.8 1670.39,-142.8 1670.39,-142.8 1670.39,-142.8 2035.15,-142.8 2035.15,-142.8"/>
<polygon fill="black" stroke="black" points="2035.15,-146.3 2045.15,-142.8 2035.15,-139.3 2035.15,-146.3"/>
</g>
<!-- DashboardModule -->
<g id="node21" class="node">
<title>DashboardModule</title>
<polygon fill="#8dd3c7" stroke="black" points="3033.19,-160.8 3030.19,-164.8 3009.19,-164.8 3006.19,-160.8 2912.81,-160.8 2912.81,-124.8 3033.19,-124.8 3033.19,-160.8"/>
<text text-anchor="middle" x="2973" y="-138.6" font-family="Times,serif" font-size="14.00">DashboardModule</text>
</g>
<!-- SharedModule&#45;&gt;DashboardModule -->
<g id="edge21" class="edge">
<title>SharedModule&#45;&gt;DashboardModule</title>
<path fill="none" stroke="black" d="M1595.08,-84.92C1595.08,-87.77 1595.08,-89.8 1595.08,-89.8 1595.08,-89.8 2952.97,-89.8 2952.97,-89.8 2952.97,-89.8 2952.97,-114.56 2952.97,-114.56"/>
<polygon fill="black" stroke="black" points="2949.47,-114.56 2952.97,-124.56 2956.47,-114.56 2949.47,-114.56"/>
</g>
<!-- TagModule&#45;&gt;AdminModule -->
<g id="edge4" class="edge">
<title>TagModule&#45;&gt;AdminModule</title>
<path fill="none" stroke="black" d="M1308,-161.05C1308,-183.82 1308,-219.8 1308,-219.8 1308,-219.8 1493.72,-219.8 1493.72,-219.8"/>
<polygon fill="black" stroke="black" points="1493.72,-223.3 1503.72,-219.8 1493.72,-216.3 1493.72,-223.3"/>
</g>
<!-- TagFormComponent  -->
<g id="node30" class="node">
<title>TagFormComponent </title>
<polygon fill="#fb8072" stroke="black" points="451.43,-84.8 314.57,-84.8 314.57,-48.8 451.43,-48.8 451.43,-84.8"/>
<text text-anchor="middle" x="383" y="-62.6" font-family="Times,serif" font-size="14.00">TagFormComponent </text>
</g>
<!-- TagModule&#45;&gt;TagFormComponent  -->
<g id="edge31" class="edge">
<title>TagModule&#45;&gt;TagFormComponent </title>
<path fill="none" stroke="black" stroke-dasharray="5,2" d="M1267.06,-142.8C1088.05,-142.8 383,-142.8 383,-142.8 383,-142.8 383,-94.81 383,-94.81"/>
<polygon fill="black" stroke="black" points="386.5,-94.81 383,-84.81 379.5,-94.81 386.5,-94.81"/>
</g>
<!-- TagTableComponent  -->
<g id="node31" class="node">
<title>TagTableComponent </title>
<polygon fill="#fb8072" stroke="black" points="296.47,-84.8 157.53,-84.8 157.53,-48.8 296.47,-48.8 296.47,-84.8"/>
<text text-anchor="middle" x="227" y="-62.6" font-family="Times,serif" font-size="14.00">TagTableComponent </text>
</g>
<!-- TagModule&#45;&gt;TagTableComponent  -->
<g id="edge32" class="edge">
<title>TagModule&#45;&gt;TagTableComponent </title>
<path fill="none" stroke="black" stroke-dasharray="5,2" d="M1267.27,-148.8C1070.42,-148.8 227,-148.8 227,-148.8 227,-148.8 227,-95 227,-95"/>
<polygon fill="black" stroke="black" points="230.5,-95 227,-85 223.5,-95 230.5,-95"/>
</g>
<!-- UsersTableModule&#45;&gt;AdminModule -->
<g id="edge5" class="edge">
<title>UsersTableModule&#45;&gt;AdminModule</title>
<path fill="none" stroke="black" d="M1553,-161.02C1553,-161.02 1553,-182.53 1553,-182.53"/>
<polygon fill="black" stroke="black" points="1549.5,-182.53 1553,-192.53 1556.5,-182.53 1549.5,-182.53"/>
</g>
<!-- UsersTableComponent  -->
<g id="node34" class="node">
<title>UsersTableComponent </title>
<polygon fill="#fb8072" stroke="black" points="1835.08,-228.8 1686.92,-228.8 1686.92,-192.8 1835.08,-192.8 1835.08,-228.8"/>
<text text-anchor="middle" x="1761" y="-206.6" font-family="Times,serif" font-size="14.00">UsersTableComponent </text>
</g>
<!-- UsersTableModule&#45;&gt;UsersTableComponent  -->
<g id="edge36" class="edge">
<title>UsersTableModule&#45;&gt;UsersTableComponent </title>
<path fill="none" stroke="black" stroke-dasharray="5,2" d="M1608.43,-161.07C1608.43,-179.36 1608.43,-204.8 1608.43,-204.8 1608.43,-204.8 1676.5,-204.8 1676.5,-204.8"/>
<polygon fill="black" stroke="black" points="1676.5,-208.3 1686.5,-204.8 1676.5,-201.3 1676.5,-208.3"/>
</g>
<!-- TagModule  -->
<g id="node7" class="node">
<title>TagModule </title>
<polygon fill="#fb8072" stroke="black" points="1621.32,-296.8 1536.68,-296.8 1536.68,-260.8 1621.32,-260.8 1621.32,-296.8"/>
<text text-anchor="middle" x="1579" y="-274.6" font-family="Times,serif" font-size="14.00">TagModule </text>
</g>
<!-- AdminModule&#45;&gt;TagModule  -->
<g id="edge6" class="edge">
<title>AdminModule&#45;&gt;TagModule </title>
<path fill="none" stroke="black" stroke-dasharray="5,2" d="M1569.41,-229.02C1569.41,-229.02 1569.41,-250.53 1569.41,-250.53"/>
<polygon fill="black" stroke="black" points="1565.91,-250.53 1569.41,-260.53 1572.91,-250.53 1565.91,-250.53"/>
</g>
<!-- UsersTableModule  -->
<g id="node8" class="node">
<title>UsersTableModule </title>
<polygon fill="#fb8072" stroke="black" points="1518.29,-296.8 1391.71,-296.8 1391.71,-260.8 1518.29,-260.8 1518.29,-296.8"/>
<text text-anchor="middle" x="1455" y="-274.6" font-family="Times,serif" font-size="14.00">UsersTableModule </text>
</g>
<!-- AdminModule&#45;&gt;UsersTableModule  -->
<g id="edge7" class="edge">
<title>AdminModule&#45;&gt;UsersTableModule </title>
<path fill="none" stroke="black" stroke-dasharray="5,2" d="M1511.09,-229.02C1511.09,-229.02 1511.09,-250.53 1511.09,-250.53"/>
<polygon fill="black" stroke="black" points="1507.59,-250.53 1511.09,-260.53 1514.59,-250.53 1507.59,-250.53"/>
</g>
<!-- AppComponent -->
<g id="node9" class="node">
<title>AppComponent</title>
<polygon fill="#ffffb3" stroke="black" points="2860.94,-160.8 2755.06,-160.8 2755.06,-124.8 2860.94,-124.8 2860.94,-160.8"/>
<text text-anchor="middle" x="2808" y="-138.6" font-family="Times,serif" font-size="14.00">AppComponent</text>
</g>
<!-- AppComponent&#45;&gt;AppModule -->
<g id="edge8" class="edge">
<title>AppComponent&#45;&gt;AppModule</title>
<path fill="none" stroke="black" d="M2808,-161.05C2808,-183.82 2808,-219.8 2808,-219.8 2808,-219.8 2446.87,-219.8 2446.87,-219.8"/>
<polygon fill="black" stroke="black" points="2446.87,-216.3 2436.87,-219.8 2446.87,-223.3 2446.87,-216.3"/>
</g>
<!-- FooterComponent -->
<g id="node10" class="node">
<title>FooterComponent</title>
<polygon fill="#ffffb3" stroke="black" points="2736.88,-160.8 2619.12,-160.8 2619.12,-124.8 2736.88,-124.8 2736.88,-160.8"/>
<text text-anchor="middle" x="2678" y="-138.6" font-family="Times,serif" font-size="14.00">FooterComponent</text>
</g>
<!-- FooterComponent&#45;&gt;AppModule -->
<g id="edge9" class="edge">
<title>FooterComponent&#45;&gt;AppModule</title>
<path fill="none" stroke="black" d="M2678,-161.02C2678,-181.17 2678,-210.8 2678,-210.8 2678,-210.8 2446.76,-210.8 2446.76,-210.8"/>
<polygon fill="black" stroke="black" points="2446.76,-207.3 2436.76,-210.8 2446.76,-214.3 2446.76,-207.3"/>
</g>
<!-- HomeComponent -->
<g id="node11" class="node">
<title>HomeComponent</title>
<polygon fill="#ffffb3" stroke="black" points="2600.55,-160.8 2485.45,-160.8 2485.45,-124.8 2600.55,-124.8 2600.55,-160.8"/>
<text text-anchor="middle" x="2543" y="-138.6" font-family="Times,serif" font-size="14.00">HomeComponent</text>
</g>
<!-- HomeComponent&#45;&gt;AppModule -->
<g id="edge10" class="edge">
<title>HomeComponent&#45;&gt;AppModule</title>
<path fill="none" stroke="black" d="M2543,-160.82C2543,-178.17 2543,-201.8 2543,-201.8 2543,-201.8 2447.01,-201.8 2447.01,-201.8"/>
<polygon fill="black" stroke="black" points="2447.02,-198.3 2437.01,-201.8 2447.01,-205.3 2447.02,-198.3"/>
</g>
<!-- NavigationComponent -->
<g id="node12" class="node">
<title>NavigationComponent</title>
<polygon fill="#ffffb3" stroke="black" points="2466.54,-160.8 2323.46,-160.8 2323.46,-124.8 2466.54,-124.8 2466.54,-160.8"/>
<text text-anchor="middle" x="2395" y="-138.6" font-family="Times,serif" font-size="14.00">NavigationComponent</text>
</g>
<!-- NavigationComponent&#45;&gt;AppModule -->
<g id="edge11" class="edge">
<title>NavigationComponent&#45;&gt;AppModule</title>
<path fill="none" stroke="black" d="M2408.94,-161.02C2408.94,-161.02 2408.94,-182.53 2408.94,-182.53"/>
<polygon fill="black" stroke="black" points="2405.44,-182.53 2408.94,-192.53 2412.44,-182.53 2405.44,-182.53"/>
</g>
<!-- AppComponent  -->
<g id="node16" class="node">
<title>AppComponent </title>
<polygon fill="#80b1d3" stroke="black" points="2449.44,-296.8 2340.56,-296.8 2340.56,-260.8 2449.44,-260.8 2449.44,-296.8"/>
<text text-anchor="middle" x="2395" y="-274.6" font-family="Times,serif" font-size="14.00">AppComponent </text>
</g>
<!-- AppModule&#45;&gt;AppComponent  -->
<g id="edge15" class="edge">
<title>AppModule&#45;&gt;AppComponent </title>
<path fill="none" stroke="black" stroke-dasharray="1,5" d="M2395,-229.02C2395,-229.02 2395,-250.53 2395,-250.53"/>
<polygon fill="black" stroke="black" points="2391.5,-250.53 2395,-260.53 2398.5,-250.53 2391.5,-250.53"/>
</g>
<!-- AppRoutingModule -->
<g id="node14" class="node">
<title>AppRoutingModule</title>
<polygon fill="#8dd3c7" stroke="black" points="2299.27,-160.8 2296.27,-164.8 2275.27,-164.8 2272.27,-160.8 2170.73,-160.8 2170.73,-124.8 2299.27,-124.8 2299.27,-160.8"/>
<text text-anchor="middle" x="2235" y="-138.6" font-family="Times,serif" font-size="14.00">AppRoutingModule</text>
</g>
<!-- AppRoutingModule&#45;&gt;AppModule -->
<g id="edge12" class="edge">
<title>AppRoutingModule&#45;&gt;AppModule</title>
<path fill="none" stroke="black" d="M2235,-161.07C2235,-179.36 2235,-204.8 2235,-204.8 2235,-204.8 2342.96,-204.8 2342.96,-204.8"/>
<polygon fill="black" stroke="black" points="2342.96,-208.3 2352.96,-204.8 2342.96,-201.3 2342.96,-208.3"/>
</g>
<!-- BookingModule&#45;&gt;AppModule -->
<g id="edge13" class="edge">
<title>BookingModule&#45;&gt;AppModule</title>
<path fill="none" stroke="black" d="M2099,-161.09C2099,-183.01 2099,-216.8 2099,-216.8 2099,-216.8 2343.22,-216.8 2343.22,-216.8"/>
<polygon fill="black" stroke="black" points="2343.22,-220.3 2353.22,-216.8 2343.22,-213.3 2343.22,-220.3"/>
</g>
<!-- BookingFormComponent -->
<g id="node17" class="node">
<title>BookingFormComponent</title>
<polygon fill="#ffffb3" stroke="black" points="2348.89,-84.8 2189.11,-84.8 2189.11,-48.8 2348.89,-48.8 2348.89,-84.8"/>
<text text-anchor="middle" x="2269" y="-62.6" font-family="Times,serif" font-size="14.00">BookingFormComponent</text>
</g>
<!-- BookingFormComponent&#45;&gt;BookingModule -->
<g id="edge16" class="edge">
<title>BookingFormComponent&#45;&gt;BookingModule</title>
<path fill="none" stroke="black" d="M2244.22,-84.95C2244.22,-98.54 2244.22,-114.8 2244.22,-114.8 2244.22,-114.8 2116.96,-114.8 2116.96,-114.8 2116.96,-114.8 2116.96,-115.78 2116.96,-115.78"/>
<polygon fill="black" stroke="black" points="2113.46,-114.59 2116.96,-124.59 2120.46,-114.59 2113.46,-114.59"/>
</g>
<!-- DatePickerComponent -->
<g id="node18" class="node">
<title>DatePickerComponent</title>
<polygon fill="#ffffb3" stroke="black" points="2170.52,-84.8 2027.48,-84.8 2027.48,-48.8 2170.52,-48.8 2170.52,-84.8"/>
<text text-anchor="middle" x="2099" y="-62.6" font-family="Times,serif" font-size="14.00">DatePickerComponent</text>
</g>
<!-- DatePickerComponent&#45;&gt;BookingModule -->
<g id="edge17" class="edge">
<title>DatePickerComponent&#45;&gt;BookingModule</title>
<path fill="none" stroke="black" d="M2081.04,-84.81C2081.04,-84.81 2081.04,-114.65 2081.04,-114.65"/>
<polygon fill="black" stroke="black" points="2077.54,-114.65 2081.04,-124.65 2084.54,-114.65 2077.54,-114.65"/>
</g>
<!-- MainBookingComponent -->
<g id="node19" class="node">
<title>MainBookingComponent</title>
<polygon fill="#ffffb3" stroke="black" points="2009.61,-84.8 1850.39,-84.8 1850.39,-48.8 2009.61,-48.8 2009.61,-84.8"/>
<text text-anchor="middle" x="1930" y="-62.6" font-family="Times,serif" font-size="14.00">MainBookingComponent</text>
</g>
<!-- MainBookingComponent&#45;&gt;BookingModule -->
<g id="edge18" class="edge">
<title>MainBookingComponent&#45;&gt;BookingModule</title>
<path fill="none" stroke="black" d="M1956.18,-85.11C1956.18,-104.95 1956.18,-133.8 1956.18,-133.8 1956.18,-133.8 2035.01,-133.8 2035.01,-133.8"/>
<polygon fill="black" stroke="black" points="2035.01,-137.3 2045.01,-133.8 2035.01,-130.3 2035.01,-137.3"/>
</g>
<!-- DashboardComponent -->
<g id="node20" class="node">
<title>DashboardComponent</title>
<polygon fill="#ffffb3" stroke="black" points="3043.97,-84.8 2902.03,-84.8 2902.03,-48.8 3043.97,-48.8 3043.97,-84.8"/>
<text text-anchor="middle" x="2973" y="-62.6" font-family="Times,serif" font-size="14.00">DashboardComponent</text>
</g>
<!-- DashboardComponent&#45;&gt;DashboardModule -->
<g id="edge20" class="edge">
<title>DashboardComponent&#45;&gt;DashboardModule</title>
<path fill="none" stroke="black" d="M2993.03,-84.81C2993.03,-84.81 2993.03,-114.65 2993.03,-114.65"/>
<polygon fill="black" stroke="black" points="2989.53,-114.65 2993.03,-124.65 2996.53,-114.65 2989.53,-114.65"/>
</g>
<!-- DashboardComponent  -->
<g id="node22" class="node">
<title>DashboardComponent </title>
<polygon fill="#fb8072" stroke="black" points="3046.97,-228.8 2901.03,-228.8 2901.03,-192.8 3046.97,-192.8 3046.97,-228.8"/>
<text text-anchor="middle" x="2974" y="-206.6" font-family="Times,serif" font-size="14.00">DashboardComponent </text>
</g>
<!-- DashboardModule&#45;&gt;DashboardComponent  -->
<g id="edge22" class="edge">
<title>DashboardModule&#45;&gt;DashboardComponent </title>
<path fill="none" stroke="black" stroke-dasharray="5,2" d="M2973,-161.02C2973,-161.02 2973,-182.53 2973,-182.53"/>
<polygon fill="black" stroke="black" points="2969.5,-182.53 2973,-192.53 2976.5,-182.53 2969.5,-182.53"/>
</g>
<!-- PageNotFoundComponent -->
<g id="node23" class="node">
<title>PageNotFoundComponent</title>
<polygon fill="#ffffb3" stroke="black" points="3252.82,-84.8 3087.18,-84.8 3087.18,-48.8 3252.82,-48.8 3252.82,-84.8"/>
<text text-anchor="middle" x="3170" y="-62.6" font-family="Times,serif" font-size="14.00">PageNotFoundComponent</text>
</g>
<!-- ErrorModule -->
<g id="node24" class="node">
<title>ErrorModule</title>
<polygon fill="#8dd3c7" stroke="black" points="3214.58,-160.8 3211.58,-164.8 3190.58,-164.8 3187.58,-160.8 3125.42,-160.8 3125.42,-124.8 3214.58,-124.8 3214.58,-160.8"/>
<text text-anchor="middle" x="3170" y="-138.6" font-family="Times,serif" font-size="14.00">ErrorModule</text>
</g>
<!-- PageNotFoundComponent&#45;&gt;ErrorModule -->
<g id="edge23" class="edge">
<title>PageNotFoundComponent&#45;&gt;ErrorModule</title>
<path fill="none" stroke="black" d="M3170,-84.81C3170,-84.81 3170,-114.65 3170,-114.65"/>
<polygon fill="black" stroke="black" points="3166.5,-114.65 3170,-124.65 3173.5,-114.65 3166.5,-114.65"/>
</g>
<!-- SecurityComponent -->
<g id="node25" class="node">
<title>SecurityComponent</title>
<polygon fill="#ffffb3" stroke="black" points="1226.99,-84.8 1099.01,-84.8 1099.01,-48.8 1226.99,-48.8 1226.99,-84.8"/>
<text text-anchor="middle" x="1163" y="-62.6" font-family="Times,serif" font-size="14.00">SecurityComponent</text>
</g>
<!-- SecurityComponent&#45;&gt;SecurityModule -->
<g id="edge24" class="edge">
<title>SecurityComponent&#45;&gt;SecurityModule</title>
<path fill="none" stroke="black" d="M1163,-84.84C1163,-92.55 1163,-99.8 1163,-99.8 1163,-99.8 1430.62,-99.8 1430.62,-99.8 1430.62,-99.8 1430.62,-114.31 1430.62,-114.31"/>
<polygon fill="black" stroke="black" points="1427.12,-114.31 1430.62,-124.31 1434.12,-114.31 1427.12,-114.31"/>
</g>
<!-- AuthService -->
<g id="node27" class="node">
<title>AuthService</title>
<ellipse fill="#fdb462" stroke="black" cx="860" cy="-66.8" rx="59.11" ry="18"/>
<text text-anchor="middle" x="860" y="-62.6" font-family="Times,serif" font-size="14.00">AuthService</text>
</g>
<!-- AuthService&#45;&gt;SecurityModule -->
<g id="edge27" class="edge">
<title>AuthService&#45;&gt;SecurityModule</title>
<path fill="none" stroke="black" d="M860,-85.29C860,-96.94 860,-109.8 860,-109.8 860,-109.8 1388.14,-109.8 1388.14,-109.8 1388.14,-109.8 1388.14,-114.76 1388.14,-114.76"/>
<polygon fill="black" stroke="black" points="1384.64,-114.76 1388.14,-124.76 1391.64,-114.76 1384.64,-114.76"/>
</g>
<!-- TagFormComponent -->
<g id="node28" class="node">
<title>TagFormComponent</title>
<polygon fill="#ffffb3" stroke="black" points="760.93,-84.8 627.07,-84.8 627.07,-48.8 760.93,-48.8 760.93,-84.8"/>
<text text-anchor="middle" x="694" y="-62.6" font-family="Times,serif" font-size="14.00">TagFormComponent</text>
</g>
<!-- TagFormComponent&#45;&gt;TagModule -->
<g id="edge28" class="edge">
<title>TagFormComponent&#45;&gt;TagModule</title>
<path fill="none" stroke="black" d="M694,-84.97C694,-103.89 694,-130.8 694,-130.8 694,-130.8 1257.24,-130.8 1257.24,-130.8"/>
<polygon fill="black" stroke="black" points="1257.24,-134.3 1267.24,-130.8 1257.24,-127.3 1257.24,-134.3"/>
</g>
<!-- TagTableComponent -->
<g id="node29" class="node">
<title>TagTableComponent</title>
<polygon fill="#ffffb3" stroke="black" points="609.47,-84.8 474.53,-84.8 474.53,-48.8 609.47,-48.8 609.47,-84.8"/>
<text text-anchor="middle" x="542" y="-62.6" font-family="Times,serif" font-size="14.00">TagTableComponent</text>
</g>
<!-- TagTableComponent&#45;&gt;TagModule -->
<g id="edge29" class="edge">
<title>TagTableComponent&#45;&gt;TagModule</title>
<path fill="none" stroke="black" d="M542,-84.83C542,-105.57 542,-136.8 542,-136.8 542,-136.8 1257.09,-136.8 1257.09,-136.8"/>
<polygon fill="black" stroke="black" points="1257.09,-140.3 1267.09,-136.8 1257.09,-133.3 1257.09,-140.3"/>
</g>
<!-- TagService -->
<g id="node32" class="node">
<title>TagService</title>
<ellipse fill="#fdb462" stroke="black" cx="79" cy="-66.8" rx="55.01" ry="18"/>
<text text-anchor="middle" x="79" y="-62.6" font-family="Times,serif" font-size="14.00">TagService</text>
</g>
<!-- TagService&#45;&gt;TagModule -->
<g id="edge33" class="edge">
<title>TagService&#45;&gt;TagModule</title>
<path fill="none" stroke="black" d="M79,-85.03C79,-110.81 79,-154.8 79,-154.8 79,-154.8 1257.11,-154.8 1257.11,-154.8"/>
<polygon fill="black" stroke="black" points="1257.11,-158.3 1267.11,-154.8 1257.11,-151.3 1257.11,-158.3"/>
</g>
<!-- UsersTableComponent -->
<g id="node33" class="node">
<title>UsersTableComponent</title>
<polygon fill="#ffffb3" stroke="black" points="2004.58,-228.8 1859.42,-228.8 1859.42,-192.8 2004.58,-192.8 2004.58,-228.8"/>
<text text-anchor="middle" x="1932" y="-206.6" font-family="Times,serif" font-size="14.00">UsersTableComponent</text>
</g>
<!-- UsersTableComponent&#45;&gt;UsersTableModule -->
<g id="edge34" class="edge">
<title>UsersTableComponent&#45;&gt;UsersTableModule</title>
<path fill="none" stroke="black" d="M1907.82,-192.78C1907.82,-175.43 1907.82,-151.8 1907.82,-151.8 1907.82,-151.8 1624.81,-151.8 1624.81,-151.8"/>
<polygon fill="black" stroke="black" points="1624.81,-148.3 1614.81,-151.8 1624.81,-155.3 1624.81,-148.3"/>
</g>
</g>
</svg>
