<?xml version="1.0" encoding="UTF-8" standalone="no"?>
<!DOCTYPE svg PUBLIC "-//W3C//DTD SVG 1.1//EN"
 "http://www.w3.org/Graphics/SVG/1.1/DTD/svg11.dtd">
<!-- Generated by graphviz version 2.47.3 (20210619.1520)
 -->
<!-- Title: dependencies Pages: 1 -->
<svg width="2684pt" height="329pt"
 viewBox="0.00 0.00 2684.00 328.80" xmlns="http://www.w3.org/2000/svg" xmlns:xlink="http://www.w3.org/1999/xlink">
<g id="graph0" class="graph" transform="scale(1 1) rotate(0) translate(4 324.8)">
<title>dependencies</title>
<polygon fill="white" stroke="transparent" points="-4,4 -4,-324.8 2680,-324.8 2680,4 -4,4"/>
<text text-anchor="middle" x="1338" y="-8.2" font-family="sans-serif" font-size="14.00">dependencies</text>
<g id="clust1" class="cluster">
<title>cluster_AdminModule</title>
<polygon fill="none" stroke="black" stroke-dasharray="1,5" points="474,-32.8 474,-312.8 786,-312.8 786,-32.8 474,-32.8"/>
</g>
<g id="clust3" class="cluster">
<title>cluster_AdminModule_imports</title>
<polygon fill="none" stroke="black" points="482,-40.8 482,-168.8 758,-168.8 758,-40.8 482,-40.8"/>
</g>
<g id="clust4" class="cluster">
<title>cluster_AdminModule_exports</title>
<polygon fill="none" stroke="black" points="620,-252.8 620,-304.8 762,-304.8 762,-252.8 620,-252.8"/>
</g>
<g id="clust13" class="cluster">
<title>cluster_AppModule</title>
<polygon fill="none" stroke="black" stroke-dasharray="1,5" points="818,-108.8 818,-312.8 1666,-312.8 1666,-108.8 818,-108.8"/>
</g>
<g id="clust14" class="cluster">
<title>cluster_AppModule_declarations</title>
<polygon fill="none" stroke="black" points="1104,-116.8 1104,-168.8 1658,-168.8 1658,-116.8 1104,-116.8"/>
</g>
<g id="clust19" class="cluster">
<title>cluster_AppModule_imports</title>
<polygon fill="none" stroke="black" points="826,-116.8 826,-168.8 1096,-168.8 1096,-116.8 826,-116.8"/>
</g>
<g id="clust21" class="cluster">
<title>cluster_AppModule_bootstrap</title>
<polygon fill="none" stroke="black" points="1122,-252.8 1122,-304.8 1246,-304.8 1246,-252.8 1122,-252.8"/>
</g>
<g id="clust29" class="cluster">
<title>cluster_BookingModule</title>
<polygon fill="none" stroke="black" stroke-dasharray="1,5" points="794,-32.8 794,-100.8 1326,-100.8 1326,-32.8 794,-32.8"/>
</g>
<g id="clust30" class="cluster">
<title>cluster_BookingModule_declarations</title>
<polygon fill="none" stroke="black" points="802,-40.8 802,-92.8 1318,-92.8 1318,-40.8 802,-40.8"/>
</g>
<g id="clust38" class="cluster">
<title>cluster_DashboardModule</title>
<polygon fill="none" stroke="black" stroke-dasharray="1,5" points="1674,-32.8 1674,-244.8 1852,-244.8 1852,-32.8 1674,-32.8"/>
</g>
<g id="clust39" class="cluster">
<title>cluster_DashboardModule_declarations</title>
<polygon fill="none" stroke="black" points="1683,-40.8 1683,-92.8 1841,-92.8 1841,-40.8 1683,-40.8"/>
</g>
<g id="clust42" class="cluster">
<title>cluster_DashboardModule_exports</title>
<polygon fill="none" stroke="black" points="1682,-184.8 1682,-236.8 1844,-236.8 1844,-184.8 1682,-184.8"/>
</g>
<g id="clust45" class="cluster">
<title>cluster_ErrorModule</title>
<polygon fill="none" stroke="black" stroke-dasharray="1,5" points="2470,-32.8 2470,-168.8 2668,-168.8 2668,-32.8 2470,-32.8"/>
</g>
<g id="clust46" class="cluster">
<title>cluster_ErrorModule_declarations</title>
<polygon fill="none" stroke="black" points="2478,-40.8 2478,-92.8 2660,-92.8 2660,-40.8 2478,-40.8"/>
</g>
<g id="clust52" class="cluster">
<title>cluster_SecurityModule</title>
<polygon fill="none" stroke="black" stroke-dasharray="1,5" points="8,-32.8 8,-100.8 466,-100.8 466,-32.8 8,-32.8"/>
</g>
<g id="clust53" class="cluster">
<title>cluster_SecurityModule_declarations</title>
<polygon fill="none" stroke="black" points="314,-40.8 314,-92.8 458,-92.8 458,-40.8 314,-40.8"/>
</g>
<g id="clust56" class="cluster">
<title>cluster_SecurityModule_exports</title>
<polygon fill="none" stroke="black" points="158,-40.8 158,-92.8 306,-92.8 306,-40.8 158,-40.8"/>
</g>
<g id="clust58" class="cluster">
<title>cluster_SecurityModule_providers</title>
<polygon fill="none" stroke="black" points="16,-40.8 16,-92.8 150,-92.8 150,-40.8 16,-40.8"/>
</g>
<g id="clust65" class="cluster">
<title>cluster_TagModule</title>
<polygon fill="none" stroke="black" stroke-dasharray="1,5" points="1860,-32.8 1860,-244.8 2462,-244.8 2462,-32.8 1860,-32.8"/>
</g>
<g id="clust66" class="cluster">
<title>cluster_TagModule_declarations</title>
<polygon fill="none" stroke="black" points="2152,-40.8 2152,-92.8 2454,-92.8 2454,-40.8 2152,-40.8"/>
</g>
<g id="clust69" class="cluster">
<title>cluster_TagModule_imports</title>
<polygon fill="none" stroke="black" points="2002,-40.8 2002,-92.8 2144,-92.8 2144,-40.8 2002,-40.8"/>
</g>
<g id="clust70" class="cluster">
<title>cluster_TagModule_exports</title>
<polygon fill="none" stroke="black" points="1932,-184.8 1932,-236.8 2241,-236.8 2241,-184.8 1932,-184.8"/>
</g>
<g id="clust72" class="cluster">
<title>cluster_TagModule_providers</title>
<polygon fill="none" stroke="black" points="1868,-40.8 1868,-92.8 1994,-92.8 1994,-40.8 1868,-40.8"/>
</g>
<g id="clust79" class="cluster">
<title>cluster_UsersTableModule</title>
<polygon fill="none" stroke="black" stroke-dasharray="1,5" points="116,-176.8 116,-244.8 466,-244.8 466,-176.8 116,-176.8"/>
</g>
<g id="clust80" class="cluster">
<title>cluster_UsersTableModule_declarations</title>
<polygon fill="none" stroke="black" points="296,-184.8 296,-236.8 458,-236.8 458,-184.8 296,-184.8"/>
</g>
<g id="clust83" class="cluster">
<title>cluster_UsersTableModule_exports</title>
<polygon fill="none" stroke="black" points="124,-184.8 124,-236.8 288,-236.8 288,-184.8 124,-184.8"/>
</g>
<!-- AdminRoutingModule -->
<g id="node1" class="node">
<title>AdminRoutingModule</title>
<polygon fill="#8dd3c7" stroke="black" points="633.56,-84.8 630.56,-88.8 609.56,-88.8 606.56,-84.8 490.44,-84.8 490.44,-48.8 633.56,-48.8 633.56,-84.8"/>
<text text-anchor="middle" x="562" y="-62.6" font-family="Times,serif" font-size="14.00">AdminRoutingModule</text>
</g>
<!-- AdminModule -->
<g id="node5" class="node">
<title>AdminModule</title>
<polygon fill="#8dd3c7" stroke="black" points="740.44,-228.8 737.44,-232.8 716.44,-232.8 713.44,-228.8 641.56,-228.8 641.56,-192.8 740.44,-192.8 740.44,-228.8"/>
<text text-anchor="middle" x="691" y="-206.6" font-family="Times,serif" font-size="14.00">AdminModule</text>
</g>
<!-- AdminRoutingModule&#45;&gt;AdminModule -->
<g id="edge1" class="edge">
<title>AdminRoutingModule&#45;&gt;AdminModule</title>
<path fill="none" stroke="black" d="M605.23,-85.04C605.23,-123.79 605.23,-210.8 605.23,-210.8 605.23,-210.8 631.6,-210.8 631.6,-210.8"/>
<polygon fill="black" stroke="black" points="631.6,-214.3 641.6,-210.8 631.6,-207.3 631.6,-214.3"/>
</g>
<!-- SecurityModule -->
<g id="node2" class="node">
<title>SecurityModule</title>
<polygon fill="#8dd3c7" stroke="black" points="596.2,-160.8 593.2,-164.8 572.2,-164.8 569.2,-160.8 489.8,-160.8 489.8,-124.8 596.2,-124.8 596.2,-160.8"/>
<text text-anchor="middle" x="543" y="-138.6" font-family="Times,serif" font-size="14.00">SecurityModule</text>
</g>
<!-- SecurityModule&#45;&gt;AdminModule -->
<g id="edge2" class="edge">
<title>SecurityModule&#45;&gt;AdminModule</title>
<path fill="none" stroke="black" d="M543,-161.05C543,-183.82 543,-219.8 543,-219.8 543,-219.8 631.72,-219.8 631.72,-219.8"/>
<polygon fill="black" stroke="black" points="631.72,-223.3 641.72,-219.8 631.72,-216.3 631.72,-223.3"/>
</g>
<!-- SecurityComponent  -->
<g id="node24" class="node">
<title>SecurityComponent </title>
<polygon fill="#fb8072" stroke="black" points="297.99,-84.8 166.01,-84.8 166.01,-48.8 297.99,-48.8 297.99,-84.8"/>
<text text-anchor="middle" x="232" y="-62.6" font-family="Times,serif" font-size="14.00">SecurityComponent </text>
</g>
<!-- SecurityModule&#45;&gt;SecurityComponent  -->
<g id="edge24" class="edge">
<title>SecurityModule&#45;&gt;SecurityComponent </title>
<path fill="none" stroke="black" stroke-dasharray="5,2" d="M489.76,-142.8C415.28,-142.8 289.02,-142.8 289.02,-142.8 289.02,-142.8 289.02,-94.81 289.02,-94.81"/>
<polygon fill="black" stroke="black" points="292.52,-94.81 289.02,-84.81 285.52,-94.81 292.52,-94.81"/>
</g>
<!-- SharedModule -->
<g id="node3" class="node">
<title>SharedModule</title>
<polygon fill="#8dd3c7" stroke="black" points="750.42,-84.8 747.42,-88.8 726.42,-88.8 723.42,-84.8 651.58,-84.8 651.58,-48.8 750.42,-48.8 750.42,-84.8"/>
<text text-anchor="middle" x="701" y="-62.6" font-family="Times,serif" font-size="14.00">SharedModule</text>
</g>
<!-- SharedModule&#45;&gt;SecurityModule -->
<g id="edge23" class="edge">
<title>SharedModule&#45;&gt;SecurityModule</title>
<path fill="none" stroke="black" d="M673.25,-84.99C673.25,-99.98 673.25,-118.8 673.25,-118.8 673.25,-118.8 543.16,-118.8 543.16,-118.8 543.16,-118.8 543.16,-119.38 543.16,-119.38"/>
<polygon fill="black" stroke="black" points="539.66,-114.61 543.16,-124.61 546.66,-114.61 539.66,-114.61"/>
</g>
<!-- UsersTableModule -->
<g id="node4" class="node">
<title>UsersTableModule</title>
<polygon fill="#8dd3c7" stroke="black" points="737.79,-160.8 734.79,-164.8 713.79,-164.8 710.79,-160.8 614.21,-160.8 614.21,-124.8 737.79,-124.8 737.79,-160.8"/>
<text text-anchor="middle" x="676" y="-138.6" font-family="Times,serif" font-size="14.00">UsersTableModule</text>
</g>
<!-- SharedModule&#45;&gt;UsersTableModule -->
<g id="edge34" class="edge">
<title>SharedModule&#45;&gt;UsersTableModule</title>
<path fill="none" stroke="black" d="M694.72,-84.81C694.72,-84.81 694.72,-114.65 694.72,-114.65"/>
<polygon fill="black" stroke="black" points="691.22,-114.65 694.72,-124.65 698.22,-114.65 691.22,-114.65"/>
</g>
<!-- SharedModule&#45;&gt;AdminModule -->
<g id="edge3" class="edge">
<title>SharedModule&#45;&gt;AdminModule</title>
<path fill="none" stroke="black" d="M744.22,-84.95C744.22,-124.47 744.22,-214.8 744.22,-214.8 744.22,-214.8 743.83,-214.8 743.83,-214.8"/>
<polygon fill="black" stroke="black" points="750.39,-211.3 740.39,-214.8 750.39,-218.3 750.39,-211.3"/>
</g>
<!-- AppModule -->
<g id="node11" class="node">
<title>AppModule</title>
<polygon fill="#8dd3c7" stroke="black" points="1225.66,-228.8 1222.66,-232.8 1201.66,-232.8 1198.66,-228.8 1142.34,-228.8 1142.34,-192.8 1225.66,-192.8 1225.66,-228.8"/>
<text text-anchor="middle" x="1184" y="-206.6" font-family="Times,serif" font-size="14.00">AppModule</text>
</g>
<!-- SharedModule&#45;&gt;AppModule -->
<g id="edge12" class="edge">
<title>SharedModule&#45;&gt;AppModule</title>
<path fill="none" stroke="black" d="M746.21,-84.88C746.21,-125.77 746.21,-221.8 746.21,-221.8 746.21,-221.8 1132.02,-221.8 1132.02,-221.8"/>
<polygon fill="black" stroke="black" points="1132.02,-225.3 1142.02,-221.8 1132.02,-218.3 1132.02,-225.3"/>
</g>
<!-- BookingModule -->
<g id="node13" class="node">
<title>BookingModule</title>
<polygon fill="#8dd3c7" stroke="black" points="941.78,-160.8 938.78,-164.8 917.78,-164.8 914.78,-160.8 834.22,-160.8 834.22,-124.8 941.78,-124.8 941.78,-160.8"/>
<text text-anchor="middle" x="888" y="-138.6" font-family="Times,serif" font-size="14.00">BookingModule</text>
</g>
<!-- SharedModule&#45;&gt;BookingModule -->
<g id="edge17" class="edge">
<title>SharedModule&#45;&gt;BookingModule</title>
<path fill="none" stroke="black" d="M748.21,-84.81C748.21,-107.29 748.21,-142.8 748.21,-142.8 748.21,-142.8 823.95,-142.8 823.95,-142.8"/>
<polygon fill="black" stroke="black" points="823.95,-146.3 833.95,-142.8 823.95,-139.3 823.95,-146.3"/>
</g>
<!-- DashboardModule -->
<g id="node19" class="node">
<title>DashboardModule</title>
<polygon fill="#8dd3c7" stroke="black" points="1822.19,-160.8 1819.19,-164.8 1798.19,-164.8 1795.19,-160.8 1701.81,-160.8 1701.81,-124.8 1822.19,-124.8 1822.19,-160.8"/>
<text text-anchor="middle" x="1762" y="-138.6" font-family="Times,serif" font-size="14.00">DashboardModule</text>
</g>
<!-- SharedModule&#45;&gt;DashboardModule -->
<g id="edge19" class="edge">
<title>SharedModule&#45;&gt;DashboardModule</title>
<path fill="none" stroke="black" d="M742.22,-85.04C742.22,-92.23 742.22,-98.8 742.22,-98.8 742.22,-98.8 1741.97,-98.8 1741.97,-98.8 1741.97,-98.8 1741.97,-114.65 1741.97,-114.65"/>
<polygon fill="black" stroke="black" points="1738.47,-114.65 1741.97,-124.65 1745.47,-114.65 1738.47,-114.65"/>
</g>
<!-- TagModule -->
<g id="node28" class="node">
<title>TagModule</title>
<polygon fill="#8dd3c7" stroke="black" points="2113.82,-160.8 2110.82,-164.8 2089.82,-164.8 2086.82,-160.8 2032.18,-160.8 2032.18,-124.8 2113.82,-124.8 2113.82,-160.8"/>
<text text-anchor="middle" x="2073" y="-138.6" font-family="Times,serif" font-size="14.00">TagModule</text>
</g>
<!-- SharedModule&#45;&gt;TagModule -->
<g id="edge28" class="edge">
<title>SharedModule&#45;&gt;TagModule</title>
<path fill="none" stroke="black" d="M716.18,-84.97C716.18,-88.85 716.18,-91.8 716.18,-91.8 716.18,-91.8 2059.45,-91.8 2059.45,-91.8 2059.45,-91.8 2059.45,-114.68 2059.45,-114.68"/>
<polygon fill="black" stroke="black" points="2055.95,-114.68 2059.45,-124.68 2062.95,-114.68 2055.95,-114.68"/>
</g>
<!-- UsersTableModule&#45;&gt;AdminModule -->
<g id="edge4" class="edge">
<title>UsersTableModule&#45;&gt;AdminModule</title>
<path fill="none" stroke="black" d="M689.71,-161.02C689.71,-161.02 689.71,-182.53 689.71,-182.53"/>
<polygon fill="black" stroke="black" points="686.21,-182.53 689.71,-192.53 693.21,-182.53 686.21,-182.53"/>
</g>
<!-- UsersTableComponent  -->
<g id="node34" class="node">
<title>UsersTableComponent </title>
<polygon fill="#fb8072" stroke="black" points="280.08,-228.8 131.92,-228.8 131.92,-192.8 280.08,-192.8 280.08,-228.8"/>
<text text-anchor="middle" x="206" y="-206.6" font-family="Times,serif" font-size="14.00">UsersTableComponent </text>
</g>
<!-- UsersTableModule&#45;&gt;UsersTableComponent  -->
<g id="edge35" class="edge">
<title>UsersTableModule&#45;&gt;UsersTableComponent </title>
<path fill="none" stroke="black" stroke-dasharray="5,2" d="M618.77,-160.99C618.77,-169.08 618.77,-176.8 618.77,-176.8 618.77,-176.8 223.27,-176.8 223.27,-176.8 223.27,-176.8 223.27,-182.61 223.27,-182.61"/>
<polygon fill="black" stroke="black" points="219.77,-182.61 223.27,-192.61 226.77,-182.61 219.77,-182.61"/>
</g>
<!-- UsersTableModule  -->
<g id="node6" class="node">
<title>UsersTableModule </title>
<polygon fill="#fb8072" stroke="black" points="754.29,-296.8 627.71,-296.8 627.71,-260.8 754.29,-260.8 754.29,-296.8"/>
<text text-anchor="middle" x="691" y="-274.6" font-family="Times,serif" font-size="14.00">UsersTableModule </text>
</g>
<!-- AdminModule&#45;&gt;UsersTableModule  -->
<g id="edge5" class="edge">
<title>AdminModule&#45;&gt;UsersTableModule </title>
<path fill="none" stroke="black" stroke-dasharray="5,2" d="M691,-229.02C691,-229.02 691,-250.53 691,-250.53"/>
<polygon fill="black" stroke="black" points="687.5,-250.53 691,-260.53 694.5,-250.53 687.5,-250.53"/>
</g>
<!-- AppComponent -->
<g id="node7" class="node">
<title>AppComponent</title>
<polygon fill="#ffffb3" stroke="black" points="1649.94,-160.8 1544.06,-160.8 1544.06,-124.8 1649.94,-124.8 1649.94,-160.8"/>
<text text-anchor="middle" x="1597" y="-138.6" font-family="Times,serif" font-size="14.00">AppComponent</text>
</g>
<!-- AppComponent&#45;&gt;AppModule -->
<g id="edge6" class="edge">
<title>AppComponent&#45;&gt;AppModule</title>
<path fill="none" stroke="black" d="M1597,-161.05C1597,-183.82 1597,-219.8 1597,-219.8 1597,-219.8 1235.87,-219.8 1235.87,-219.8"/>
<polygon fill="black" stroke="black" points="1235.87,-216.3 1225.87,-219.8 1235.87,-223.3 1235.87,-216.3"/>
</g>
<!-- FooterComponent -->
<g id="node8" class="node">
<title>FooterComponent</title>
<polygon fill="#ffffb3" stroke="black" points="1525.88,-160.8 1408.12,-160.8 1408.12,-124.8 1525.88,-124.8 1525.88,-160.8"/>
<text text-anchor="middle" x="1467" y="-138.6" font-family="Times,serif" font-size="14.00">FooterComponent</text>
</g>
<!-- FooterComponent&#45;&gt;AppModule -->
<g id="edge7" class="edge">
<title>FooterComponent&#45;&gt;AppModule</title>
<path fill="none" stroke="black" d="M1467,-161.02C1467,-181.17 1467,-210.8 1467,-210.8 1467,-210.8 1235.76,-210.8 1235.76,-210.8"/>
<polygon fill="black" stroke="black" points="1235.76,-207.3 1225.76,-210.8 1235.76,-214.3 1235.76,-207.3"/>
</g>
<!-- HomeComponent -->
<g id="node9" class="node">
<title>HomeComponent</title>
<polygon fill="#ffffb3" stroke="black" points="1389.55,-160.8 1274.45,-160.8 1274.45,-124.8 1389.55,-124.8 1389.55,-160.8"/>
<text text-anchor="middle" x="1332" y="-138.6" font-family="Times,serif" font-size="14.00">HomeComponent</text>
</g>
<!-- HomeComponent&#45;&gt;AppModule -->
<g id="edge8" class="edge">
<title>HomeComponent&#45;&gt;AppModule</title>
<path fill="none" stroke="black" d="M1332,-160.82C1332,-178.17 1332,-201.8 1332,-201.8 1332,-201.8 1236.01,-201.8 1236.01,-201.8"/>
<polygon fill="black" stroke="black" points="1236.02,-198.3 1226.01,-201.8 1236.01,-205.3 1236.02,-198.3"/>
</g>
<!-- NavigationComponent -->
<g id="node10" class="node">
<title>NavigationComponent</title>
<polygon fill="#ffffb3" stroke="black" points="1255.54,-160.8 1112.46,-160.8 1112.46,-124.8 1255.54,-124.8 1255.54,-160.8"/>
<text text-anchor="middle" x="1184" y="-138.6" font-family="Times,serif" font-size="14.00">NavigationComponent</text>
</g>
<!-- NavigationComponent&#45;&gt;AppModule -->
<g id="edge9" class="edge">
<title>NavigationComponent&#45;&gt;AppModule</title>
<path fill="none" stroke="black" d="M1184,-161.02C1184,-161.02 1184,-182.53 1184,-182.53"/>
<polygon fill="black" stroke="black" points="1180.5,-182.53 1184,-192.53 1187.5,-182.53 1180.5,-182.53"/>
</g>
<!-- AppComponent  -->
<g id="node14" class="node">
<title>AppComponent </title>
<polygon fill="#80b1d3" stroke="black" points="1238.44,-296.8 1129.56,-296.8 1129.56,-260.8 1238.44,-260.8 1238.44,-296.8"/>
<text text-anchor="middle" x="1184" y="-274.6" font-family="Times,serif" font-size="14.00">AppComponent </text>
</g>
<!-- AppModule&#45;&gt;AppComponent  -->
<g id="edge13" class="edge">
<title>AppModule&#45;&gt;AppComponent </title>
<path fill="none" stroke="black" stroke-dasharray="1,5" d="M1184,-229.02C1184,-229.02 1184,-250.53 1184,-250.53"/>
<polygon fill="black" stroke="black" points="1180.5,-250.53 1184,-260.53 1187.5,-250.53 1180.5,-250.53"/>
</g>
<!-- AppRoutingModule -->
<g id="node12" class="node">
<title>AppRoutingModule</title>
<polygon fill="#8dd3c7" stroke="black" points="1088.27,-160.8 1085.27,-164.8 1064.27,-164.8 1061.27,-160.8 959.73,-160.8 959.73,-124.8 1088.27,-124.8 1088.27,-160.8"/>
<text text-anchor="middle" x="1024" y="-138.6" font-family="Times,serif" font-size="14.00">AppRoutingModule</text>
</g>
<!-- AppRoutingModule&#45;&gt;AppModule -->
<g id="edge10" class="edge">
<title>AppRoutingModule&#45;&gt;AppModule</title>
<path fill="none" stroke="black" d="M1024,-160.83C1024,-177.86 1024,-200.8 1024,-200.8 1024,-200.8 1131.96,-200.8 1131.96,-200.8"/>
<polygon fill="black" stroke="black" points="1131.96,-204.3 1141.96,-200.8 1131.96,-197.3 1131.96,-204.3"/>
</g>
<!-- BookingModule&#45;&gt;AppModule -->
<g id="edge11" class="edge">
<title>BookingModule&#45;&gt;AppModule</title>
<path fill="none" stroke="black" d="M888,-160.91C888,-180.14 888,-207.8 888,-207.8 888,-207.8 1132.22,-207.8 1132.22,-207.8"/>
<polygon fill="black" stroke="black" points="1132.22,-211.3 1142.22,-207.8 1132.22,-204.3 1132.22,-211.3"/>
</g>
<!-- BookingFormComponent -->
<g id="node15" class="node">
<title>BookingFormComponent</title>
<polygon fill="#ffffb3" stroke="black" points="1131.89,-84.8 972.11,-84.8 972.11,-48.8 1131.89,-48.8 1131.89,-84.8"/>
<text text-anchor="middle" x="1052" y="-62.6" font-family="Times,serif" font-size="14.00">BookingFormComponent</text>
</g>
<!-- BookingFormComponent&#45;&gt;BookingModule -->
<g id="edge14" class="edge">
<title>BookingFormComponent&#45;&gt;BookingModule</title>
<path fill="none" stroke="black" d="M1030.22,-84.91C1030.22,-94.7 1030.22,-104.8 1030.22,-104.8 1030.22,-104.8 888,-104.8 888,-104.8 888,-104.8 888,-114.69 888,-114.69"/>
<polygon fill="black" stroke="black" points="884.5,-114.69 888,-124.69 891.5,-114.69 884.5,-114.69"/>
</g>
<!-- DatePickerComponent -->
<g id="node16" class="node">
<title>DatePickerComponent</title>
<polygon fill="#ffffb3" stroke="black" points="953.52,-84.8 810.48,-84.8 810.48,-48.8 953.52,-48.8 953.52,-84.8"/>
<text text-anchor="middle" x="882" y="-62.6" font-family="Times,serif" font-size="14.00">DatePickerComponent</text>
</g>
<!-- DatePickerComponent&#45;&gt;BookingModule -->
<g id="edge15" class="edge">
<title>DatePickerComponent&#45;&gt;BookingModule</title>
<path fill="none" stroke="black" d="M861.06,-84.81C861.06,-84.81 861.06,-114.65 861.06,-114.65"/>
<polygon fill="black" stroke="black" points="857.56,-114.65 861.06,-124.65 864.56,-114.65 857.56,-114.65"/>
</g>
<!-- MainBookingComponent -->
<g id="node17" class="node">
<title>MainBookingComponent</title>
<polygon fill="#ffffb3" stroke="black" points="1309.61,-84.8 1150.39,-84.8 1150.39,-48.8 1309.61,-48.8 1309.61,-84.8"/>
<text text-anchor="middle" x="1230" y="-62.6" font-family="Times,serif" font-size="14.00">MainBookingComponent</text>
</g>
<!-- MainBookingComponent&#45;&gt;BookingModule -->
<g id="edge16" class="edge">
<title>MainBookingComponent&#45;&gt;BookingModule</title>
<path fill="none" stroke="black" d="M1203.11,-84.84C1203.11,-97.36 1203.11,-111.8 1203.11,-111.8 1203.11,-111.8 914.94,-111.8 914.94,-111.8 914.94,-111.8 914.94,-114.77 914.94,-114.77"/>
<polygon fill="black" stroke="black" points="911.44,-114.77 914.94,-124.77 918.44,-114.77 911.44,-114.77"/>
</g>
<!-- DashboardComponent -->
<g id="node18" class="node">
<title>DashboardComponent</title>
<polygon fill="#ffffb3" stroke="black" points="1832.97,-84.8 1691.03,-84.8 1691.03,-48.8 1832.97,-48.8 1832.97,-84.8"/>
<text text-anchor="middle" x="1762" y="-62.6" font-family="Times,serif" font-size="14.00">DashboardComponent</text>
</g>
<!-- DashboardComponent&#45;&gt;DashboardModule -->
<g id="edge18" class="edge">
<title>DashboardComponent&#45;&gt;DashboardModule</title>
<path fill="none" stroke="black" d="M1782.03,-84.81C1782.03,-84.81 1782.03,-114.65 1782.03,-114.65"/>
<polygon fill="black" stroke="black" points="1778.53,-114.65 1782.03,-124.65 1785.53,-114.65 1778.53,-114.65"/>
</g>
<!-- DashboardComponent  -->
<g id="node20" class="node">
<title>DashboardComponent </title>
<polygon fill="#fb8072" stroke="black" points="1835.97,-228.8 1690.03,-228.8 1690.03,-192.8 1835.97,-192.8 1835.97,-228.8"/>
<text text-anchor="middle" x="1763" y="-206.6" font-family="Times,serif" font-size="14.00">DashboardComponent </text>
</g>
<!-- DashboardModule&#45;&gt;DashboardComponent  -->
<g id="edge20" class="edge">
<title>DashboardModule&#45;&gt;DashboardComponent </title>
<path fill="none" stroke="black" stroke-dasharray="5,2" d="M1762,-161.02C1762,-161.02 1762,-182.53 1762,-182.53"/>
<polygon fill="black" stroke="black" points="1758.5,-182.53 1762,-192.53 1765.5,-182.53 1758.5,-182.53"/>
</g>
<!-- PageNotFoundComponent -->
<g id="node21" class="node">
<title>PageNotFoundComponent</title>
<polygon fill="#ffffb3" stroke="black" points="2651.82,-84.8 2486.18,-84.8 2486.18,-48.8 2651.82,-48.8 2651.82,-84.8"/>
<text text-anchor="middle" x="2569" y="-62.6" font-family="Times,serif" font-size="14.00">PageNotFoundComponent</text>
</g>
<!-- ErrorModule -->
<g id="node22" class="node">
<title>ErrorModule</title>
<polygon fill="#8dd3c7" stroke="black" points="2613.58,-160.8 2610.58,-164.8 2589.58,-164.8 2586.58,-160.8 2524.42,-160.8 2524.42,-124.8 2613.58,-124.8 2613.58,-160.8"/>
<text text-anchor="middle" x="2569" y="-138.6" font-family="Times,serif" font-size="14.00">ErrorModule</text>
</g>
<!-- PageNotFoundComponent&#45;&gt;ErrorModule -->
<g id="edge21" class="edge">
<title>PageNotFoundComponent&#45;&gt;ErrorModule</title>
<path fill="none" stroke="black" d="M2569,-84.81C2569,-84.81 2569,-114.65 2569,-114.65"/>
<polygon fill="black" stroke="black" points="2565.5,-114.65 2569,-124.65 2572.5,-114.65 2565.5,-114.65"/>
</g>
<!-- SecurityComponent -->
<g id="node23" class="node">
<title>SecurityComponent</title>
<polygon fill="#ffffb3" stroke="black" points="449.99,-84.8 322.01,-84.8 322.01,-48.8 449.99,-48.8 449.99,-84.8"/>
<text text-anchor="middle" x="386" y="-62.6" font-family="Times,serif" font-size="14.00">SecurityComponent</text>
</g>
<!-- SecurityComponent&#45;&gt;SecurityModule -->
<g id="edge22" class="edge">
<title>SecurityComponent&#45;&gt;SecurityModule</title>
<path fill="none" stroke="black" d="M385.77,-85.11C385.77,-104.95 385.77,-133.8 385.77,-133.8 385.77,-133.8 479.77,-133.8 479.77,-133.8"/>
<polygon fill="black" stroke="black" points="479.77,-137.3 489.77,-133.8 479.77,-130.3 479.77,-137.3"/>
</g>
<!-- AuthService -->
<g id="node25" class="node">
<title>AuthService</title>
<ellipse fill="#fdb462" stroke="black" cx="83" cy="-66.8" rx="59.11" ry="18"/>
<text text-anchor="middle" x="83" y="-62.6" font-family="Times,serif" font-size="14.00">AuthService</text>
</g>
<!-- AuthService&#45;&gt;SecurityModule -->
<g id="edge25" class="edge">
<title>AuthService&#45;&gt;SecurityModule</title>
<path fill="none" stroke="black" d="M137.01,-74.34C137.01,-95.15 137.01,-151.8 137.01,-151.8 137.01,-151.8 479.51,-151.8 479.51,-151.8"/>
<polygon fill="black" stroke="black" points="479.51,-155.3 489.51,-151.8 479.51,-148.3 479.51,-155.3"/>
</g>
<!-- TagFormComponent -->
<g id="node26" class="node">
<title>TagFormComponent</title>
<polygon fill="#ffffb3" stroke="black" points="2445.93,-84.8 2312.07,-84.8 2312.07,-48.8 2445.93,-48.8 2445.93,-84.8"/>
<text text-anchor="middle" x="2379" y="-62.6" font-family="Times,serif" font-size="14.00">TagFormComponent</text>
</g>
<!-- TagFormComponent&#45;&gt;TagModule -->
<g id="edge26" class="edge">
<title>TagFormComponent&#45;&gt;TagModule</title>
<path fill="none" stroke="black" d="M2379,-85C2379,-109.16 2379,-148.8 2379,-148.8 2379,-148.8 2123.95,-148.8 2123.95,-148.8"/>
<polygon fill="black" stroke="black" points="2123.95,-145.3 2113.95,-148.8 2123.95,-152.3 2123.95,-145.3"/>
</g>
<!-- TagTableComponent -->
<g id="node27" class="node">
<title>TagTableComponent</title>
<polygon fill="#ffffb3" stroke="black" points="2294.47,-84.8 2159.53,-84.8 2159.53,-48.8 2294.47,-48.8 2294.47,-84.8"/>
<text text-anchor="middle" x="2227" y="-62.6" font-family="Times,serif" font-size="14.00">TagTableComponent</text>
</g>
<!-- TagTableComponent&#45;&gt;TagModule -->
<g id="edge27" class="edge">
<title>TagTableComponent&#45;&gt;TagModule</title>
<path fill="none" stroke="black" d="M2196.49,-84.83C2196.49,-105.57 2196.49,-136.8 2196.49,-136.8 2196.49,-136.8 2123.78,-136.8 2123.78,-136.8"/>
<polygon fill="black" stroke="black" points="2123.78,-133.3 2113.78,-136.8 2123.78,-140.3 2123.78,-133.3"/>
</g>
<!-- TagFormComponent  -->
<g id="node30" class="node">
<title>TagFormComponent </title>
<polygon fill="#fb8072" stroke="black" points="2233.43,-228.8 2096.57,-228.8 2096.57,-192.8 2233.43,-192.8 2233.43,-228.8"/>
<text text-anchor="middle" x="2165" y="-206.6" font-family="Times,serif" font-size="14.00">TagFormComponent </text>
</g>
<!-- TagModule&#45;&gt;TagFormComponent  -->
<g id="edge30" class="edge">
<title>TagModule&#45;&gt;TagFormComponent </title>
<path fill="none" stroke="black" stroke-dasharray="5,2" d="M2105.1,-161.02C2105.1,-161.02 2105.1,-182.53 2105.1,-182.53"/>
<polygon fill="black" stroke="black" points="2101.6,-182.53 2105.1,-192.53 2108.6,-182.53 2101.6,-182.53"/>
</g>
<!-- TagTableComponent  -->
<g id="node31" class="node">
<title>TagTableComponent </title>
<polygon fill="#fb8072" stroke="black" points="2078.47,-228.8 1939.53,-228.8 1939.53,-192.8 2078.47,-192.8 2078.47,-228.8"/>
<text text-anchor="middle" x="2009" y="-206.6" font-family="Times,serif" font-size="14.00">TagTableComponent </text>
</g>
<!-- TagModule&#45;&gt;TagTableComponent  -->
<g id="edge31" class="edge">
<title>TagModule&#45;&gt;TagTableComponent </title>
<path fill="none" stroke="black" stroke-dasharray="5,2" d="M2055.29,-161.02C2055.29,-161.02 2055.29,-182.53 2055.29,-182.53"/>
<polygon fill="black" stroke="black" points="2051.79,-182.53 2055.29,-192.53 2058.79,-182.53 2051.79,-182.53"/>
</g>
<!-- TagRoutingModule -->
<g id="node29" class="node">
<title>TagRoutingModule</title>
<polygon fill="#8dd3c7" stroke="black" points="2136.44,-84.8 2133.44,-88.8 2112.44,-88.8 2109.44,-84.8 2009.56,-84.8 2009.56,-48.8 2136.44,-48.8 2136.44,-84.8"/>
<text text-anchor="middle" x="2073" y="-62.6" font-family="Times,serif" font-size="14.00">TagRoutingModule</text>
</g>
<!-- TagRoutingModule&#45;&gt;TagModule -->
<g id="edge29" class="edge">
<title>TagRoutingModule&#45;&gt;TagModule</title>
<path fill="none" stroke="black" d="M2086.55,-84.81C2086.55,-84.81 2086.55,-114.65 2086.55,-114.65"/>
<polygon fill="black" stroke="black" points="2083.05,-114.65 2086.55,-124.65 2090.05,-114.65 2083.05,-114.65"/>
</g>
<!-- TagService -->
<g id="node32" class="node">
<title>TagService</title>
<ellipse fill="#fdb462" stroke="black" cx="1931" cy="-66.8" rx="55.01" ry="18"/>
<text text-anchor="middle" x="1931" y="-62.6" font-family="Times,serif" font-size="14.00">TagService</text>
</g>
<!-- TagService&#45;&gt;TagModule -->
<g id="edge32" class="edge">
<title>TagService&#45;&gt;TagModule</title>
<path fill="none" stroke="black" d="M1962.89,-81.82C1962.89,-103.96 1962.89,-142.8 1962.89,-142.8 1962.89,-142.8 2022.31,-142.8 2022.31,-142.8"/>
<polygon fill="black" stroke="black" points="2022.31,-146.3 2032.31,-142.8 2022.31,-139.3 2022.31,-146.3"/>
</g>
<!-- UsersTableComponent -->
<g id="node33" class="node">
<title>UsersTableComponent</title>
<polygon fill="#ffffb3" stroke="black" points="449.58,-228.8 304.42,-228.8 304.42,-192.8 449.58,-192.8 449.58,-228.8"/>
<text text-anchor="middle" x="377" y="-206.6" font-family="Times,serif" font-size="14.00">UsersTableComponent</text>
</g>
<!-- UsersTableComponent&#45;&gt;UsersTableModule -->
<g id="edge33" class="edge">
<title>UsersTableComponent&#45;&gt;UsersTableModule</title>
<path fill="none" stroke="black" d="M449.86,-201.8C522.46,-201.8 623.19,-201.8 623.19,-201.8 623.19,-201.8 623.19,-170.82 623.19,-170.82"/>
<polygon fill="black" stroke="black" points="626.69,-170.82 623.19,-160.82 619.69,-170.82 626.69,-170.82"/>
</g>
</g>
</svg>
